<?xml version="1.0" encoding="utf-8"?>
<!-- Generator: Adobe Illustrator 26.5.2, SVG Export Plug-In . SVG Version: 6.00 Build 0)  -->
<svg version="1.1" id="Layer_1" xmlns="http://www.w3.org/2000/svg" xmlns:xlink="http://www.w3.org/1999/xlink" x="0px" y="0px"
	 viewBox="0 0 141.73 141.73" style="enable-background:new 0 0 141.73 141.73;" xml:space="preserve">
<style type="text/css">
	.st0{fill:#FFFFFF;stroke:#020202;stroke-width:0.25;stroke-linecap:round;stroke-linejoin:round;stroke-miterlimit:10;}
</style>
<path class="st0" d="M49.34,58.47l0.15-0.23l0.98-0.29c0,0,0.29,0,0.4,0.07c0.11,0.07,0.29,0.04,0.29,0.15c0,0.11,0,0.15,0.07,0.18
	c0.07,0.04,0.58-0.22,0.58-0.22l0.4-0.07l0.11-0.11l0.11-0.4l0.18-0.07c0,0,0.22,0,0.26,0.04c0.04,0.04,0.15-0.04,0.22,0.04
	c0.07,0.07,0.29,0.15,0.29,0.15s0.15,0.04,0.22,0.07c0.07,0.04,0.26,0.04,0.33,0.18c0.07,0.15,0.07,0.29,0.11,0.36
	c0.04,0.07,0.33,0.29,0.33,0.29h0.22c0,0,0.29-0.18,0.29-0.22v-0.36l0.04-0.15c0,0,0.36-0.15,0.54-0.15c0.18,0,0.4-0.04,0.43-0.04
	c0.04,0,0.29,0.04,0.4,0.11c0.11,0.07,0.47,0.11,0.54,0.15c0.07,0.04,0.4,0.11,0.47,0.15c0.07,0.04,0.18,0.07,0.18,0.07
	s0.33,0.26,0.36,0.29c0.04,0.04,0.58,0.04,0.62,0c0.04-0.04,1.09-0.4,1.12-0.4c0.04,0,0.58-0.07,0.58-0.07l0.47-0.04
	c0,0,0.54-0.18,0.58-0.18c0.04,0,0.8-0.15,0.8-0.15l0.47-0.07c0,0,0.36,0.11,0.4,0.11c0.04,0,0.22,0.15,0.22,0.15L63.53,58
	l0.58,0.15c0,0,0.22,0.11,0.29,0.18c0.07,0.07,0.26,0.29,0.29,0.29s0.29,0.29,0.33,0.29s0.43,0.11,0.43,0.11l0.36-0.11l0.33-0.25
	l0.04-0.18c0,0,0.26-0.07,0.29-0.04c0.04,0.04,0.26,0.15,0.26,0.15v0.07l0.58,0.36l1.38-0.11l0.54,0.18l0.54,0.15l0.33-0.11
	c0,0,0.61,0,0.61-0.04c0-0.04,0.61-0.25,0.61-0.25l0.4-0.25l0.36-0.29l0.29-0.18L72.88,58c0,0,0.44-0.15,0.44-0.18
	c0-0.04,0.22-0.44,0.22-0.44s0.11-0.22,0.11-0.25c0-0.04,0.18-0.43,0.18-0.43l0.15-0.15l0.54-0.15l0.33-0.29l0.51-0.91l0.26-0.84
	l0.04-0.87v-0.91l0.07-0.51l0.33-0.18l0.52-0.31l0.47,0.98l0.29,0.43l0.11,0.29v0.22l0.11,0.26l0.15,0.25l0.15,0.26v0.25v0.29
	l0.15,0.25v0.29l-0.07,0.15l-0.04,0.22l-0.04,0.18l0.15,0.07l0.15-0.07h0.18l0.15,0.07l0.07,0.15l-0.04,0.15l-0.04,0.15l-0.04,0.11
	l-0.07,0.07v0.07l0.07,0.18l0.49,0.89l0.4,0.47v0.51l0.15,0.22l0.29,0.43v0.65l0.29,0.47l0.15,0.84l0.4,0.65l0.18,0.47l0.18,0.51
	l0.07,0.47v0.26v0.61l0.24,0.63l0.43,0.51l0.76,1.3l0.54,1.16l0.54,0.76l0.22,0.54l0.84,1.49l0.4,0.51l0.36,0.62v0.58l0.18,0.43
	l0.62,0.58c0,0,0.25,0.54,0.69,0.94c0.43,0.4,1.6,1.78,1.6,1.78l0.18,0.43l0.65,0.84l0.33,0.54v0.51l-0.18,0.29l0.18,0.58l0.61,0.72
	l0.4,0.4h0.18l0.15,0.84l-0.33,0.22l0.33,0.36v0.51l0.26,0.58l0.43,0.33l0.4,0.69l0.4,0.94l0.58,0.8l0.33,0.29l0.15,0.65l0.22,0.76
	v0.29l0.51,0.29v0.33l0.43,0.54l0.22,0.54l0.33,0.36l-0.18,0.54v0.98l0.18,0.8l0.25,0.25c0,0-0.8,0.29-0.8,0.33
	s-0.69,0.51-0.69,0.51l-0.43,0.07c0,0-0.22,0.22-0.22,0.25c0,0.04-0.15,0.15-0.18,0.22s-0.36,0.04-0.36,0.07
	c0,0.04-0.15,0.18-0.18,0.25c-0.04,0.07-0.07,0.18-0.07,0.29s0.04,0.25,0,0.36c-0.04,0.11,0,0.07-0.04,0.25
	c-0.04,0.18-0.18,0.22-0.18,0.22l-0.58-0.15c0,0-0.07-0.07-0.11,0c-0.04,0.07-0.26,0.07-0.26,0.07l0.04-0.15
	c0,0-0.33-0.25-0.33-0.36s0.18-0.29-0.07-0.44c-0.25-0.15-0.43-0.18-0.47-0.18c-0.04,0-0.22,0.07-0.29-0.04
	c-0.07-0.11-0.51-0.33-0.51-0.33s-0.4-0.11-0.4,0S89,93.8,88.96,93.91c-0.04,0.11-0.36,0.22-0.36,0.22l-0.07,0.11l-0.33-0.18
	l-0.47-0.15h-0.22c0,0-0.22-0.22-0.29-0.22c-0.07,0-0.26-0.07-0.26-0.07s-0.04-0.04-0.07,0s-0.33-0.04-0.33-0.07
	c0-0.04-0.18-0.11-0.18-0.11l-0.22-0.15c0,0-0.25,0.11-0.25,0.15c0,0.04-0.26,0.18-0.26,0.18l-0.29,0.33c0,0-0.15,0.18-0.15,0.26
	c0,0.07,0,0.15-0.11,0.22s-0.22,0.15-0.29,0.11c-0.07-0.04-0.61-0.22-0.61-0.22h-0.15c-0.04,0-0.26-0.15-0.26-0.18
	c0-0.04-0.11-0.36-0.11-0.36l-0.36-0.15l-0.36-0.22c0,0-0.04-0.15-0.07-0.15s-0.25,0.15-0.25,0.15l-0.07,0.36
	c0,0-0.11,0.07-0.11,0.15c0,0.07-0.11,0.11-0.18,0.18c-0.07,0.07-0.07-0.07-0.07,0.07v0.33l-0.4-0.07l-0.58-0.07l-0.69-0.4
	c0,0-0.15-0.07-0.4-0.18c-0.26-0.11-0.65-0.18-0.65-0.18l-0.22-0.26c0,0-0.26-0.18-0.36-0.15c-0.11,0.04-0.61,0.07-0.61,0.07
	l-0.29-0.29c0,0-0.4-0.15-0.43-0.15h-0.18c0,0-0.33-0.4-0.33-0.43s-0.29-0.36-0.29-0.36l-0.07-0.07h-0.4
	c-0.15,0-0.65,0.18-0.65,0.18l-0.43,0.07l-0.26-0.25l-0.33-0.4l-0.26-0.36l-0.07-0.26l-0.43-0.11c0,0-0.62,0.07-0.58,0.04
	c0.04-0.04-0.29-0.04-0.29-0.04l-0.33,0.29c0,0-0.25,0.15-0.33,0.04c-0.07-0.11-0.33-0.33-0.33-0.33l-0.18-0.18
	c0,0,0.04-0.29,0.11-0.29c0.07,0,0.36-0.07,0.43-0.15c0.07-0.07,0.22-0.33,0.22-0.33l0.29-0.22l0.07-0.22c0,0,0.29-0.11,0.29-0.15
	s-0.18-0.25-0.18-0.25s-0.33-0.15-0.36-0.11c-0.04,0.04-0.54,0.18-0.54,0.18l-0.51-0.18l-0.22-0.15l-0.29-0.15l-0.22-0.33
	c0,0-0.15-0.18-0.22-0.15c-0.07,0.04-0.36,0.04-0.43,0.15c-0.07,0.11-0.33,0.11-0.33,0.22c0,0.11-0.04,0.15-0.11,0.22
	c-0.07,0.07-0.18,0.15-0.18,0.15s-0.36-0.18-0.36-0.22s-0.25-0.11-0.25-0.11l-0.11-0.22c0,0-0.18,0.04-0.18,0.11
	s-0.04,0.26-0.04,0.29s-0.11,0.11-0.15,0.18c-0.04,0.07-0.33,0.22-0.4,0.26c-0.07,0.04-0.25,0.04-0.43,0.15
	c-0.18,0.11-0.47,0.15-0.47,0.15s-0.15-0.07-0.18-0.07s-0.29-0.11-0.29-0.15c0-0.04,0.07-0.4,0.07-0.4v-0.15
	c0,0,0.11-0.11,0.11-0.18c0-0.07-0.36-0.36-0.36-0.36l-0.07-0.36l-0.29-0.11l-0.72-0.07l-0.62,0.22c0,0-0.33,0.36-0.33,0.4
	c0,0.04,0.04,0.22,0.04,0.25c0,0.04,0.11,0.47,0.15,0.51c0.04,0.04,0,0.33,0,0.36s-0.11,0.33-0.11,0.33l-0.47,0.07
	c0,0-0.26,0.15-0.29,0.22c-0.04,0.07-0.07,0.15-0.07,0.15s-0.22-0.22-0.26-0.22c-0.04,0-0.29-0.07-0.29-0.07
	c-0.11,0-0.18,0.07-0.18,0.07s-0.07,0.11-0.11,0.11h-0.33c0,0-0.18-0.15-0.22-0.11c-0.04,0.04-0.4,0.07-0.4,0.11
	c0,0.04-0.07,0.15-0.07,0.18s-0.36,0.07-0.36,0.07s-0.15-0.07-0.15-0.11c0-0.04-0.26-0.04-0.26-0.04l-0.18-0.47
	c0,0-0.18-0.36-0.18-0.4s-0.25-0.37-0.25-0.37l0.14-0.14l0.15-0.98l-0.04-0.58l0.36-0.33l0.11-0.18l-0.11-0.26
	c0,0,0.07-0.15,0.18-0.44c0.11-0.29,0-0.36,0-0.36l-0.07-0.8l0.04-0.47l0.43-0.44c0,0,0.15-0.25,0.26-0.44
	c0.11-0.18,0.4-0.98,0.4-0.98l0.07-0.29c0,0-0.18-0.44-0.11-0.76c0.07-0.33-0.29-0.33-0.4-0.33c-0.11,0-0.36-0.47-0.36-0.47
	s0.54-0.25,0.65-0.33c0.11-0.07,0.07-0.44,0.07-0.44h0.43l0.76-0.51c0,0-0.4-0.22-0.47-0.25c-0.07-0.04-0.36-0.43-0.44-0.65
	c-0.07-0.22-0.61-0.11-0.76-0.18c-0.15-0.07-0.69-0.15-0.69-0.15l-0.76-0.44l-0.84-0.54c0,0-0.36-0.58-0.47-0.61
	s-0.54-0.22-0.54-0.22l-0.29,0.36h-0.54h-0.33v-0.34v-0.25l0.22-0.22l0.07-0.65l0.11-0.36l0.11-0.4l-0.22-0.22h-0.65l-0.33-0.29
	l0.43-0.25l0.25-0.33l0.22-0.4l-0.43-0.18l0.22-0.54v-0.22v-0.65l0.51-0.33c0,0,0.11-0.11,0.11-0.25c0-0.15,0.51-0.15,0.76-0.26
	c0.26-0.11,0.65-0.47,0.65-0.47s0.04-0.43,0-0.54c-0.04-0.11,0-0.18,0-0.36s-0.15-0.18-0.15-0.18v-0.36v-0.47l-0.76-0.22
	c0,0-0.15-0.07-0.29-0.36c-0.15-0.29,0-0.4,0-0.4l-0.4-0.33l-1.05-0.4l-0.47-0.58l-0.11-0.58l0.07-0.36v-0.43
	c0-0.04,0.07-0.15,0.18-0.22c0.11-0.07,0-0.11,0-0.11s-0.11-0.18-0.15-0.26c-0.04-0.07,0-0.22,0-0.22l-0.07-0.22l-0.36,0.18
	l-0.11,0.15l-0.26-0.07l-0.26-0.11c0,0-0.43,0.07-0.58,0.07c-0.15,0-0.11-0.04-0.11-0.04s-0.36,0.11-0.4,0.11
	c-0.04,0-0.15,0.15-0.15,0.15h-0.29c0,0-0.15-0.15-0.18-0.22c-0.04-0.07-0.15-0.18-0.18-0.22c-0.04-0.04-0.33-0.15-0.4-0.25
	c-0.07-0.11-0.11-0.4-0.11-0.4s0.07-0.22,0.11-0.33c0.04-0.11,0.15-0.58,0.15-0.58l-0.18-0.29l-0.26,0.22l-0.54,0.4
	c0,0-0.54,0.15-0.61,0.11c-0.07-0.04-0.11-0.11-0.15-0.15c-0.04-0.04-0.18-0.29-0.22-0.4c-0.04-0.11-0.07-0.22-0.07-0.33
	s-0.15-0.33-0.18-0.47c-0.04-0.15-0.25-0.36-0.25-0.4c0-0.04-0.22-0.44-0.26-0.58c-0.04-0.15-0.36-0.15-0.36-0.15
	s-0.4-0.15-0.44-0.18c-0.04-0.04-0.07-0.43-0.07-0.47c0-0.04,0.07-0.36,0.07-0.4s-0.36-0.39-0.36-0.39"/>
</svg>
