<?xml version="1.0" encoding="utf-8"?>
<!-- Generator: Adobe Illustrator 26.5.2, SVG Export Plug-In . SVG Version: 6.00 Build 0)  -->
<svg version="1.1" id="Layer_1" xmlns="http://www.w3.org/2000/svg" xmlns:xlink="http://www.w3.org/1999/xlink" x="0px" y="0px"
	 viewBox="0 0 141.73 141.73" style="enable-background:new 0 0 141.73 141.73;" xml:space="preserve">
<style type="text/css">
	.st0{fill:#FFFFFF;stroke:#020202;stroke-width:0.25;stroke-linecap:round;stroke-linejoin:round;stroke-miterlimit:10;}
</style>
<path class="st0" d="M62.72,105.66l0.15-0.25l0.15-0.37l0.04-0.44l-0.26-0.22l-0.33-0.33c0,0-0.25-0.22-0.29-0.26
	c-0.04-0.04-0.26-0.22-0.26-0.22l-0.04-0.29v-0.29l-0.15-0.29l-0.18-0.04l-0.29-0.07c0,0-0.11-0.04-0.18-0.08
	c-0.08-0.04-0.33-0.15-0.33-0.15s0-0.25,0.04-0.25s0.18-0.04,0.29-0.04h0.55V102c0-0.04-0.33-0.25-0.33-0.25l-0.11-0.11l-0.48-0.11
	c0,0-0.26-0.07-0.26-0.11c0-0.04-0.18-0.11-0.22-0.15c-0.04-0.04-0.18-0.22-0.18-0.22s0.07-0.04,0.07-0.07s0.11-0.15,0.11-0.15
	l0.15-0.04c0.15-0.04,0.18-0.04,0.22-0.04c0.04,0,0.22-0.07,0.22-0.11c0-0.04,0-0.15-0.07-0.18c-0.07-0.04-0.11-0.07-0.11-0.07
	l-0.15-0.29v-0.37c0-0.07,0.11-0.73,0.11-0.73s0.04-0.22,0.07-0.22c0.04,0,0.48-0.07,0.48-0.07s0.26-0.04,0.29-0.04
	c0.04,0,0.18-0.04,0.18-0.04v-0.22l-0.15-0.22l-0.07-0.3l-0.07-0.4l-0.37,0.18l-0.15,0.07c0,0-0.29-0.04-0.29,0
	s-0.11,0.18-0.11,0.18s0,0.11-0.04,0.11s-0.22,0-0.22,0.07c0,0.07,0.04,0.18,0,0.22S60,98.44,60,98.44s-0.07,0.04-0.15,0.11
	c-0.07,0.07-0.22,0.07-0.25,0.15c-0.04,0.07-0.22,0.15-0.26,0.18c-0.04,0.04,0,0.04-0.11,0.04s-0.26,0.04-0.26,0
	c0-0.04-0.07-0.07-0.11-0.11c-0.04-0.04-0.11-0.08-0.11-0.11s-0.08-0.11-0.08-0.18c0-0.08,0.04-0.18,0.04-0.18l0.11-0.15
	c0,0,0.15-0.18,0.08-0.22c-0.08-0.04-0.11-0.11-0.18-0.11s-0.15-0.04-0.18-0.04s-0.11,0.04-0.18-0.04
	c-0.07-0.07-0.07-0.07-0.07-0.11c0-0.04,0.04-0.11,0.04-0.11l0.11-0.33c0,0,0.11-0.26,0.15-0.26c0.04,0,0.15-0.07,0.18-0.07
	s0,0,0.04-0.04s0.07-0.11,0.07-0.15v-0.22v-0.07c0,0,0.04,0.04-0.04-0.22c-0.07-0.25-0.07-0.22-0.07-0.22l-0.15-0.22
	c0,0,0-0.07,0.04-0.11c0.04-0.04-0.04-0.11,0.07-0.18c0.11-0.07,0.18-0.15,0.22-0.15s0.22-0.07,0.22-0.07s0.18-0.04,0.22-0.04
	c0.04,0,0.11,0,0.18,0.04c0.07,0.04,0.11,0.07,0.22,0.11c0.11,0.04,0.22,0.07,0.33,0.07h0.29c0.08,0,0.22,0.04,0.22,0.04l0.22,0.18
	c0,0,0.15,0.04,0.18,0.15c0.04,0.11,0.07,0.25,0.15,0.22c0.07-0.04,0.11-0.11,0.15-0.18c0.04-0.07,0.07-0.18,0.07-0.22
	s0.15-0.33,0.18-0.37s0.07-0.18,0.11-0.18c0.04,0,0.08-0.04,0.11-0.04H62l0.33,0.04h0.18c0,0,0.08-0.07,0.04-0.15
	c-0.04-0.08-0.07-0.11-0.11-0.18c-0.04-0.07-0.15-0.26-0.15-0.26s-0.08-0.11-0.11-0.11c-0.04,0-0.44-0.04-0.44-0.04l-0.44-0.11
	l-0.29-0.11l-0.37-0.22l-0.29-0.25l-0.4-0.22l-0.26-0.18l-0.07-0.22l-0.04-0.18l0.29-0.22l0.44-0.29l0.15-0.15l-0.08-0.22
	c0,0-0.07-0.11-0.22-0.11s-0.44-0.15-0.48-0.15h-0.4c0,0-0.29-0.04-0.29-0.07c0-0.04-0.15-0.33-0.18-0.4
	c-0.04-0.07-0.29-0.37-0.29-0.37s-0.07-0.37-0.07-0.4c0-0.04-0.18-0.18-0.22-0.18c-0.04,0-0.4-0.11-0.4-0.15s0.08-0.29,0.11-0.33
	c0.04-0.04,0.37-0.07,0.37-0.07s0.04-0.04-0.04-0.18c-0.07-0.15-0.18-0.22-0.18-0.22v-0.11l0.08-0.18c0,0,0-0.07,0.15-0.07
	s0.33-0.07,0.4-0.07s0.15-0.07,0.18-0.11c0.04-0.04-0.02-0.05-0.06-0.12c-0.04-0.07-0.01-0.22-0.08-0.22
	c-0.08,0-0.04-0.11-0.15-0.13c-0.25-0.05-0.44,0.07-0.44,0.07l-0.08-0.04c0,0-0.07-0.11-0.07-0.18c0-0.08-0.08-0.11,0-0.18
	c0.07-0.07,0.22-0.44,0.22-0.44l-0.07-0.23l-0.12-0.25l-0.3-0.62c0,0-0.06-0.04-0.14-0.08c-0.08-0.04-0.11-0.15-0.26-0.15
	s-0.33-0.07-0.33-0.07s-0.22-0.18-0.18-0.26c0.04-0.07,0.25-0.51,0.25-0.51l-0.07-0.62L57.2,84l-0.18-0.55v-0.84l0.22-0.51
	l-0.15-0.7l0.08-0.22l0.29-0.04c0,0,0.07-0.04,0.18,0.04c0.11,0.07,0.15,0.07,0.22,0.11c0.07,0.04,0.22,0.07,0.25,0.11
	c0.04,0.04,0.22,0.11,0.29,0.15c0.07,0.04,0.29,0.04,0.33,0.04c0.04,0,0.22,0,0.22-0.04s0.26-0.15,0.26-0.18
	c0-0.04,0.04-0.15,0.04-0.18c0-0.04,0.11-0.18,0.15-0.18s0.08-0.04,0.08-0.04l0.11-0.04l0.25-0.04l0.18-0.29l0.07-0.26l0.15-0.51
	c0,0,0.15-0.07,0.22-0.11c0.07-0.04,0.22-0.15,0.22-0.15l0.11-0.18c0,0,0.04-0.15,0.04-0.18c0-0.04-0.07-0.22-0.07-0.22l-0.04-0.22
	l0.18-0.81c0,0,0.07-0.33,0.07-0.37s-0.18-0.4-0.18-0.4l-0.18-0.15l0.07-0.51c0,0,0.22-0.15,0.25-0.15s0.44-0.07,0.51-0.04
	c0.07,0.04,0.48,0.07,0.48,0.07l0.15-0.11c0,0,0.11-0.18,0.26-0.25s0.18-0.11,0.26-0.18c0.07-0.07,0.29-0.22,0.29-0.22
	s0.22-0.11,0.33-0.15c0.11-0.04,0.04-0.07,0.29-0.18l0.26-0.11l0.15-0.48l0.18-0.15l0.48-0.29l0.11-0.11c0,0,0.08-0.11,0.18-0.15
	l0.11-0.04l0.15-0.15l0.08-0.7c0,0,0.29-0.37,0.33-0.37c0.04,0,0.7-0.44,0.7-0.44l0.48-0.22l0.15-0.18l0.11-0.15
	c0,0,0.22-0.15,0.26-0.18c0.04-0.04,0.26-0.4,0.26-0.4l0.11-0.33v-0.18l0.07-0.29l0.04-0.22l0.11-0.15c0,0,0-0.04,0.11-0.04
	c0.11,0,0.22-0.04,0.33-0.07c0.11-0.04,0.33-0.15,0.33-0.18c0-0.04,0.04-0.44,0.08-0.48c0.04-0.04,0.22-0.29,0.4-0.37
	c0.18-0.07,0.07,0,0.18-0.07c0.11-0.07,0.33-0.22,0.33-0.22l0.44-0.25l0.22-0.1c0,0,0.36,0.35,0.36,0.39c0,0.04-0.08,0.37-0.08,0.4
	c0,0.04,0.04,0.44,0.08,0.48c0.04,0.04,0.44,0.18,0.44,0.18s0.33,0,0.37,0.15c0.04,0.15,0.26,0.55,0.26,0.59s0.22,0.25,0.26,0.4
	c0.04,0.15,0.18,0.37,0.18,0.48c0,0.11,0.04,0.22,0.08,0.33c0.04,0.11,0.18,0.37,0.22,0.4s0.08,0.11,0.15,0.15
	c0.08,0.04,0.62-0.11,0.62-0.11l0.55-0.4l0.26-0.22l0.18,0.29c0,0-0.11,0.48-0.15,0.59c-0.04,0.11-0.11,0.33-0.11,0.33
	s0.04,0.29,0.11,0.4c0.08,0.11,0.37,0.22,0.4,0.25s0.15,0.15,0.18,0.22c0.04,0.07,0.18,0.22,0.18,0.22h0.29c0,0,0.11-0.15,0.15-0.15
	s0.4-0.11,0.4-0.11s-0.04,0.04,0.11,0.04c0.15,0,0.59-0.08,0.59-0.08l0.25,0.11l0.26,0.07l0.11-0.15l0.37-0.18l0.07,0.22
	c0,0-0.04,0.15,0,0.22c0.04,0.08,0.15,0.26,0.15,0.26s0.11,0.04,0,0.11c-0.11,0.07-0.18,0.18-0.18,0.22v0.44l-0.08,0.37l0.11,0.59
	l0.48,0.59l1.06,0.4l0.4,0.33c0,0-0.15,0.11,0,0.4c0.15,0.29,0.29,0.37,0.29,0.37l0.77,0.22v0.48v0.37c0,0,0.15,0,0.15,0.18
	c0,0.18-0.04,0.26,0,0.37c0.04,0.11,0,0.55,0,0.55s-0.4,0.37-0.66,0.48c-0.25,0.11-0.77,0.11-0.77,0.26c0,0.15-0.11,0.25-0.11,0.25
	l-0.51,0.33v0.66v0.22l-0.22,0.55l0.44,0.18l-0.22,0.4l-0.25,0.33l-0.44,0.25l0.33,0.29h0.66l0.22,0.22l-0.11,0.4l-0.11,0.37
	l-0.08,0.66l-0.22,0.22v0.28v0.37h0.33h0.55l0.29-0.37c0,0,0.44,0.18,0.55,0.22c0.11,0.04,0.48,0.62,0.48,0.62l0.84,0.55l0.77,0.44
	c0,0,0.55,0.07,0.7,0.15c0.15,0.07,0.7-0.04,0.77,0.18c0.07,0.22,0.37,0.62,0.44,0.66c0.07,0.04,0.48,0.25,0.48,0.25l-0.77,0.51
	h-0.44c0,0,0.04,0.37-0.07,0.44c-0.11,0.07-0.66,0.33-0.66,0.33s0.26,0.48,0.37,0.48c0.11,0,0.48,0,0.4,0.33
	c-0.07,0.33,0.11,0.77,0.11,0.77l-0.07,0.29c0,0-0.29,0.8-0.4,0.99c-0.11,0.18-0.26,0.44-0.26,0.44l-0.44,0.44l-0.04,0.48l0.08,0.8
	c0,0,0.11,0.07,0,0.37c-0.11,0.29-0.18,0.44-0.18,0.44l0.11,0.26l-0.11,0.18l-0.37,0.33l0.04,0.59l-0.15,0.99l-0.26,0.26l-0.7,0.44
	c0,0-0.18,0.33-0.18,0.4s-0.07,0.44-0.07,0.44h-0.66c0,0-0.04-0.44-0.11-0.48c-0.07-0.04-0.48,0.25-0.48,0.25s-0.04,0.55,0,0.62
	c0.04,0.07,0.07,0.37,0,0.37c-0.08,0-0.59,0.18-0.59,0.25c0,0.07-0.18,0.33-0.18,0.4s-0.25,0.15-0.29,0.26
	c-0.04,0.11-0.33,0.25-0.33,0.25l-0.37,0.37h-0.15l-0.48-0.33c0,0-0.55,0.11-0.51,0.15c0.04,0.04-0.29-0.07-0.29-0.07l-0.29-0.04
	l-0.62,0.51c0,0,0.7,0-0.07,0.25l-0.77,0.25l-0.26,0.18c0,0-0.11-0.22-0.11,0s-0.29,0.59-0.29,0.66c0,0.07-0.29,0.25-0.29,0.25
	s-0.29,0.44-0.62,0.44h-0.62l-0.55,0.18l-0.07,0.4v0.22c0,0.08-0.04,0.37-0.04,0.37l-0.37-0.18c0,0-0.18-0.15-0.18-0.22
	c0-0.07-0.11-0.37-0.11-0.37s-0.37-0.07-0.37-0.04s-0.04,0.18-0.11,0.15c-0.07-0.04-0.29-0.15-0.29-0.18c0-0.04-0.25-0.22-0.25-0.22
	l-0.18-0.18l-0.18-0.44c0,0-0.37-0.18-0.44-0.22c-0.08-0.04-0.26-0.04-0.29-0.07c-0.04-0.04-0.37-0.26-0.37-0.26l-0.4-0.04
	c0,0-0.44,0.07-0.48,0.11c-0.04,0.04-0.15,0.29-0.15,0.29l-0.29,0.15l-0.51,0.15l-0.73-0.07l-0.33,0.22l-0.48-0.11l-0.48,0.22
	l-0.84,0.22l-0.55,0.29L62.72,105.66"/>
<path class="st0" d="M57.74,86.45c0.07,0.04,0.19,0.33,0.19,0.33l0.17,0.35l0.08,0.16l0.07,0.24c0,0-0.15,0.37-0.22,0.44
	c-0.08,0.07,0,0.11,0,0.18c0,0.07,0.07,0.18,0.07,0.18l0.08,0.04c0,0,0.08-0.05,0.34-0.09c0.26-0.04,0.04-0.02,0.12-0.02
	c0.07,0,0.21,0.32,0.24,0.39c0.04,0.07,0.07,0.08,0.04,0.11c-0.04,0.04-0.11,0.11-0.18,0.11s-0.25,0.07-0.4,0.07
	s-0.15,0.07-0.15,0.07l-0.08,0.18v0.11c0,0,0.11,0.07,0.18,0.22s0.04,0.18,0.04,0.18s-0.33,0.04-0.37,0.07
	c-0.04,0.04-0.11,0.29-0.11,0.33s0.37,0.15,0.4,0.15c0.04,0,0.22,0.15,0.22,0.18c0,0.04,0.07,0.4,0.07,0.4s0.26,0.29,0.29,0.37
	c0.04,0.07,0.18,0.37,0.18,0.4s0.29,0.07,0.29,0.07h0.4c0.04,0,0.33,0.15,0.48,0.15c0.15,0,0.22,0.11,0.22,0.11l0.04,0.12l0.07-0.37
	l0.29-0.07l0.04-0.33l0.22-0.22l0.18-0.22l0.08-0.15c0,0,0-0.22,0.04-0.37l0.15-0.11v-0.07l-0.04-0.22l-0.04-0.11
	c0,0-0.11-0.15-0.18-0.18c-0.07-0.04-0.22-0.25-0.29-0.29c-0.07-0.04-0.04-0.18-0.04-0.25v-0.33v-0.25h0.37l0.08-0.29l0.11-0.33
	l0.22-0.18l0.04-0.29l0.07-0.18l0.37-0.48c0,0-0.22-0.11-0.25-0.04c-0.04,0.07-0.44,0-0.44,0l-0.51-0.4l-0.4-0.22
	c0,0-0.22-0.29-0.22-0.37s-0.29-0.29-0.4-0.37c-0.11-0.07-0.33-0.29-0.44-0.37c-0.11-0.07-0.37,0.18-0.4,0.18
	c-0.04,0-0.29,0.15-0.29,0.15v0.25l-0.48,0.22l-0.33,0.15l-0.25,0.15C57.73,86.09,57.69,86.42,57.74,86.45z"/>
<path class="st0" d="M70.34,87.78v-0.11l-0.04-0.26l-0.33,0.07c0,0,0,0.04-0.15,0.11c-0.15,0.07-0.51,0.11-0.51,0.11
	s-0.07-0.07-0.18,0c-0.11,0.07-0.25,0.15-0.25,0.15v-0.11v-0.22c0-0.04-0.04-0.22,0-0.29c0.04-0.07,0.22-0.29,0.22-0.29l0.11-0.33
	l-0.08-0.29l-0.18-0.26l0.15-0.29c0,0,0.07-0.07,0-0.15c-0.07-0.08-0.4-0.15-0.4-0.15l0.08-0.37l0.04-0.51l-0.11-0.18l-0.18-0.22
	l-0.4,0.07c0,0-0.26,0-0.29-0.04c-0.04-0.04-0.25-0.18-0.25-0.18l-0.26-0.11c0,0-0.25,0.04-0.25,0.11c0,0.07-0.11,0.22-0.11,0.29
	c0,0.08-0.18,0.26-0.18,0.26s-0.11,0.15-0.11,0.25c0,0.11-0.11,0.29-0.11,0.29s-0.07,0.15-0.07,0.22c0,0.07,0.18,0.11,0,0.15
	c-0.18,0.04-0.33,0.04-0.33,0.04s-0.04-0.11-0.07-0.15c-0.04-0.04-0.11-0.18-0.15-0.18c-0.04,0-0.18-0.22-0.18-0.22
	s0-0.18-0.07-0.11c-0.07,0.08-0.44,0.11-0.44,0.11l-0.18,0.18c0,0-0.11,0-0.11,0.04c0,0.04-0.11,0.26-0.11,0.26
	s-0.04,0.11-0.04,0.18c0,0.07-0.11,0.15-0.11,0.29v0.44c0,0.07,0,0.18-0.07,0.22c-0.07,0.04-0.22,0.15-0.22,0.15l-0.15-0.07h-0.18
	l-0.11,0.11l-0.18-0.04h-0.22l-0.44-0.07l-0.29-0.15l-0.11-0.15l-0.15-0.04c0,0-0.22,0.11-0.25,0.15c-0.04,0.04-0.07,0.15-0.07,0.15
	l-0.04,0.11l-0.32,0.42l-0.12,0.24l-0.04,0.29h0.26l0.18,0.11l0.25,0.07l0.22,0.07v0.22l0.11,0.4v0.25l-0.22,0.18l-0.07,0.25
	l0.18,0.29l0.25,0.07l0.59-0.18l0.25,0.18l0.07,0.33c0,0,0.18,0.11,0.18,0.15s0.11,0.37,0.11,0.37s0.07,0.25,0.07,0.29
	c0,0.04,0.25,0.15,0.29,0.11c0.04-0.04,0.4-0.18,0.4-0.18s0.26,0.11,0.29,0.15c0.04,0.04,0.29,0.07,0.33,0.07
	c0.04,0,0.37-0.15,0.4-0.15s0.48-0.25,0.48-0.25s0-0.07,0.07-0.07c0.08,0,0.29,0.07,0.29,0.07l0.22-0.04l0.15-0.18
	c0,0,0.07,0.11,0.07,0.18v0.33l0.07,0.22l0.07,0.11c0,0,0.15,0.04,0.18,0.04c0.04,0,0.4-0.04,0.44-0.07
	c0.04-0.04,0.33-0.18,0.33-0.18v-0.07l0.18-0.26l0.11-0.04l0.29,0.04l0.15-0.07l0.11-0.04c0,0,0.07-0.15,0.11-0.15
	c0.04,0,0.22-0.15,0.22-0.15l0.25-0.07l0.08-0.4l-0.15-0.26l-0.22-0.15l0.07-0.11l0.22-0.25c0,0,0.08-0.15,0.08-0.18
	c0-0.04,0.18-0.25,0.22-0.25c0.04,0,0.15-0.15,0.15-0.15l0.18-0.07l0.07-0.07l0.08-0.07v-0.08L70.34,87.78z"/>
</svg>
