<?xml version="1.0" encoding="utf-8"?>
<!-- Generator: Adobe Illustrator 26.5.2, SVG Export Plug-In . SVG Version: 6.00 Build 0)  -->
<svg version="1.1" id="Layer_1" xmlns="http://www.w3.org/2000/svg" xmlns:xlink="http://www.w3.org/1999/xlink" x="0px" y="0px"
	 viewBox="0 0 141.73 141.73" style="enable-background:new 0 0 141.73 141.73;" xml:space="preserve">
<style type="text/css">
	.st0{fill:#FFFFFF;stroke:#020202;stroke-width:0.25;stroke-linecap:round;stroke-linejoin:round;stroke-miterlimit:10;}
</style>
<g>
	<path class="st0" d="M54.24,66.59c0,0-0.11,0-0.15,0.04c-0.04,0.04-0.11,0.11-0.15,0.11c-0.04,0-0.08,0.11-0.08,0.11
		s-0.11,0.15-0.11,0.18s-0.11,0.22-0.11,0.22l-0.36,0.33c0,0-0.4,0.18-0.4,0.22s-0.07,0.18-0.15,0.22
		c-0.07,0.04,0.11,0.04-0.15,0.11c-0.26,0.07-0.54,0.07-0.54,0.07l-0.25,0.15l-0.47-0.07c0,0-0.22-0.15-0.22-0.04
		c0,0.11-0.18,0.33-0.18,0.36c0,0.04-0.07,0.4-0.15,0.47c-0.07,0.07-0.62,0.4-0.62,0.4l-0.8,0.54l-0.18,0.26l-0.07,0.51l-0.18,0.66
		l-0.15,0.44l-0.33,0.44l-0.4,0.91L47.8,73.5l0.18,0.36l0.07,0.15l-0.25,0.25l-0.18,0.18l-0.07,0.4l-0.22,0.36L47,75.54l0.18,0.22
		l0.43,0.36l0.33,0.47l0.04,0.26l0.15,0.36l0.04,0.4l-0.22,0.44l-0.04,0.29l0.26,0.29c0,0,0.29,0.22,0.29,0.25
		c0,0.04-0.15,0.4-0.15,0.4l-0.15,0.15l-0.4,0.4l-0.26,0.29l-0.18,0.36l-0.15,0.29c0,0-0.08,0.22-0.04,0.22
		c0.04,0,0.11,0.29,0.11,0.29l-0.25,0.36l-0.11,0.25l-0.47,0.29l-0.26-0.04v0.11l0.18,0.94l0.36,0.4v0.94L47,86.01l0.62,0.47
		l0.47,0.66l0.33,0.8c0,0,0.29,0.47,0.33,0.66c0.04,0.18,0.15,0.26,0.18,0.43c0.04,0.18,0.15,0.18,0.15,0.18s0.44,0.18,0.62,0.33
		c0.18,0.15,0.22,0.51,0.22,0.51s0.18,0.51,0.18,0.66c0,0.15-0.25,0.58-0.25,0.58l-0.54,0.47l0.13,0.04h0.06l0.15-0.04l0.18,0.07
		l0.29,0.04l0.25,0.07l0.29,0.11v0.22l0.29-0.04c0,0,0.04-0.22,0-0.25c-0.04-0.04,0.29,0.07,0.29,0.07s0.11,0.22,0.11,0.25
		c0,0.04,0.26,0.11,0.26,0.11l0.36-0.04l0.4-0.26l0.15-0.36l0.22-0.11l0.22-0.15c0,0,0.15-0.15,0.15-0.18v-0.26
		c0-0.11,0.18,0,0.18,0l0.22,0.18l-0.04,0.25c0,0,0.07,0.15,0.11,0.18c0.04,0.04,0.18,0,0.22-0.04c0.04-0.04,0.18,0,0.18,0
		s0.15-0.18,0.15-0.22s0.22,0.15,0.22,0.15l0.22,0.11l0.25-0.07l0.25-0.15c0,0-0.11-0.26-0.11-0.29s-0.18-0.29-0.18-0.29l-0.22-0.47
		l0.15-0.22c0,0,0.04,0,0.25,0.04c0.22,0.04,0.18,0.07,0.25,0.15c0.08,0.07,0.15-0.11,0.15-0.15c0-0.04-0.04-0.29-0.04-0.29
		l0.26-0.36l0.33-0.15l0.33-0.11l0.11,0.18l-0.11,0.18l-0.15,0.15l-0.22,0.29l-0.04,0.36l0.07,0.33l-0.07,0.29l-0.15,0.33v0.07
		l0.15,0.33c0,0,0.04,0.25,0.04,0.29c0,0.04-0.11,0.18-0.11,0.18l-0.11,0.15l-0.07,0.22l0.04,0.18l0.11,0.25l0.76,0.4l0.33,0.07
		l0.29,0.11c0,0,0.22,0.4,0.22,0.44c0,0.04,0.08,0.25,0.08,0.29c0,0.04,0.18,0.04,0.22,0.04c0.04,0,0.11-0.04,0.11-0.04
		s0.11-0.18,0.15-0.22s0.22,0,0.22,0h0.36l0.22,0.18l0.22,0.04l0.11-0.18c0,0,0.15-0.25,0.11-0.29c-0.04-0.04,0.04-0.29,0.04-0.33
		s0.11-0.18,0.11-0.18s0.18-0.15,0.22-0.15c0.04,0,0.29,0.15,0.29,0.18s0.33-0.04,0.36-0.07c0.04-0.04,0.25,0.04,0.29,0.04
		c0.04,0,0.07,0.25,0.07,0.29c0,0.04,0.11,0.22,0.11,0.22l0.15,0.25h0.18c0.04,0,0.25-0.11,0.25-0.11l0.22-0.18
		c0,0,0.07-0.18,0.11-0.25c0.04-0.07,0.22-0.15,0.25-0.18c0.04-0.04,0.04-0.15,0.04-0.18s0.15-0.26,0.15-0.26l0.15,0.26l0.22,0.25
		l-0.07,0.36c0,0,0.07,0.15,0.07,0.18s-0.04,0.18-0.04,0.18l-0.11,0.07l-0.29,0.04h-0.33c-0.04,0-0.11,0.18-0.11,0.22
		s0.04,0.25,0.04,0.25l0.18,0.18l0.18,0.15l0.33,0.15c0,0,0.26,0,0.29-0.04c0.04-0.04,0.29-0.26,0.29-0.26l0.22,0.04l0.15,0.4v0.25
		c0,0.04-0.11,0.15-0.11,0.15l0.04,0.29v0.36c0,0.04-0.07,0.11-0.07,0.11l-0.36-0.18l-0.29-0.18l-0.29,0.15l-0.07,0.15l0.18,0.22
		c0,0,0.29,0.18,0.33,0.18c0.04,0,0.29,0.26,0.29,0.26l0.08,0.33v0.11c0,0,0.07,0.15,0.11,0.15c0.04,0,0.11,0.22,0.11,0.33
		c0,0.11,0.11,0.18,0.11,0.22s0.18,0.11,0.18,0.11h0.25l0.15-0.11c0,0,0.15-0.11,0.15-0.15s0.07-0.26,0.07-0.26v-0.36
		c0-0.04,0.04-0.11,0.04-0.11s0.07-0.11,0.07-0.15s0.04-0.11,0.04-0.11s-0.04-0.15-0.04-0.18s-0.04-0.15-0.04-0.15
		s-0.11-0.15-0.15-0.18c-0.04-0.04-0.04-0.18-0.04-0.18l0.11-0.15h0.18l0.26-0.04l0.04-0.22c0,0,0.15-0.18,0.15-0.22
		s0.08-0.22,0.11-0.29c0.04-0.07,0.22-0.25,0.22-0.25s0.11-0.18,0.11-0.22c0-0.04-0.15-0.18-0.15-0.18l-0.11-0.18
		c0,0-0.11-0.15-0.18-0.15c-0.07,0-0.11,0.15-0.11,0.18s-0.15,0.22-0.15,0.22s-0.11,0.29-0.11,0.33c0,0.04-0.22,0.04-0.26,0.04
		c-0.04,0-0.11-0.07-0.11-0.11c0-0.04,0.04-0.29,0.04-0.33c0-0.04,0.11-0.29,0.11-0.29v-0.4l0.18-0.18v-0.15v-0.26l-0.11-0.29
		c0,0,0.07-0.15,0.07-0.18s0.15-0.22,0.18-0.25c0.04-0.04,0-0.18,0-0.18l-0.07-0.29l0.07-0.07l0.11-0.07h0.47l0.47-0.07l0.25-0.15
		l0.15-0.18l0.15-0.11l-0.15-0.29l-0.15-0.07l-0.29-0.22l-0.07-0.18l-0.26-0.18l-0.29,0.11l-0.62,0.04l-0.43,0.11
		c0,0-0.15,0.33-0.15,0.4c0,0.07-0.36,0.11-0.4,0.11h-0.29v-0.22l0.26-0.18l0.15-0.26v-0.22l0.29-0.07c0,0,0.58-0.11,0.62-0.11
		c0.04,0,0.29-0.15,0.29-0.18c0-0.04,0.33-0.04,0.33-0.04s0.33-0.15,0.4-0.15c0.08,0,0.11-0.15,0.11-0.22
		c0-0.07-0.11-0.22-0.11-0.22l-0.18-0.36l0.51,0.07l0.29-0.04l0.36-0.07c0,0,0.15,0.18,0.15,0.25c0,0.07,0.33-0.11,0.33-0.11
		l0.44-0.11l0.25,0.15c0,0,0.18,0.18,0.25,0.22c0.08,0.04,0.08,0.26,0.08,0.26s0.04,0.29,0.04,0.33v0.25l0.07,0.29h0.11l0.47-0.15
		l0.25,0.04c0,0,0.18-0.4,0.18-0.51c0-0.11-0.15-0.25-0.15-0.25l-0.33-0.33l-0.15-0.36l0.04-0.33l-0.08-0.25l-0.07-0.33l-0.11-0.25
		l-0.11-0.47c0,0-0.07-0.33-0.07-0.36c0-0.04,0.22-0.4,0.22-0.4s0.11-0.22,0.15-0.25c0.04-0.04,0.33-0.11,0.33-0.11l0.15,0.15v0.22
		l-0.07,0.33l-0.15,0.29v0.22l0.29,0.51l0.11,0.29h0.4l0.29,0.04l0.15,0.11c0,0,0.18,0.25,0.22,0.29c0.04,0.04,0.11,0.18,0.18,0.26
		c0.08,0.07,0.08-0.04,0.08-0.04s0.04-0.29,0.04-0.33s0.08-0.22,0.11-0.26c0.04-0.04,0.15,0.04,0.15,0.04s0.15,0.18,0.18,0.22
		c0.04,0.04,0.04,0.29,0.04,0.29l-0.07,0.29l-0.15,0.26l0.22,0.25h0.25c0.04,0,0.18,0.04,0.18,0.04l0.26,0.15
		c0,0,0.15-0.04,0.18-0.04c0.04,0,0.29-0.04,0.33-0.04s0.22,0.04,0.22,0.04s0.15-0.11,0.22-0.18c0.07-0.07,0.22-0.07,0.22-0.07
		l0.04,0.18l0.15,0.25l0.11,0.18c0,0,0.15,0.04,0.51,0l0.18-0.04l0.11-0.66l-0.29-0.47c0,0-0.29-0.33-0.33-0.36
		c-0.04-0.04-0.26-0.25-0.18-0.29c0.07-0.04,0.4,0.04,0.47,0c0.07-0.04,0.4,0,0.4,0h0.4l0.62-0.18c0,0,0.04-0.04,0-0.22
		s-0.15-0.54-0.15-0.54s0.07-0.22,0.11-0.26c0.04-0.04,0.15-0.18,0.26-0.22c0.11-0.04,0.22-0.07,0.33-0.07
		c0.11,0,1.05-0.18,1.09-0.18c0.04,0,0.54,0.11,0.54,0.11l0.62-0.29l0.15-0.22l0.04-0.11l0.11-0.4c0,0,0.4-0.36,0.47-0.36
		c0.08,0,0.36-0.11,0.36-0.11l0.07-0.18l0.47-0.22l0.33-0.11l0.47-0.07L80,84.88l0.18-0.15l0.18-0.84l0.29-0.29h0.58
		c0,0,0.07,0.07,0.11,0.07c0.04,0,0.43,0.07,0.43,0.07s0.22-0.29,0.22-0.33c0-0.04,0.33-0.4,0.33-0.4l0.15-0.36
		c0,0-0.04-0.36-0.07-0.36s-0.43-0.43-0.43-0.43H81.6l-0.44-0.33l-0.54-0.69l-0.36-0.51l-0.54-0.51l-1.56-0.66l-0.25-0.29
		l-0.33-0.44l-0.07-0.18l0.36-0.33c0,0,0.29-0.18,0.33-0.18s0.33-0.26,0.33-0.29s-0.04-0.62-0.04-0.62l-0.11-0.36l0.09-0.32
		l-0.06-0.07l-0.54,0.5l-0.69-0.18l-0.4-0.44l-0.87-0.04l-0.36,0.04l-0.58,0.33l-0.15,0.4h-0.98l-0.4,0.58l-0.66,0.15l-1.09-0.44
		l-0.43-0.22h-0.8l-1.02-0.26c0,0-0.51,0.22-0.51,0s-0.4-0.47-0.4-0.47s-0.47-0.4-0.43-0.51c0.04-0.11-0.04-0.29,0-0.44
		c0.04-0.15,0-0.51,0-0.58c0-0.07-0.29-0.43-0.29-0.43s-0.54,0.51-0.54,0.73s-0.33,0.29-0.33,0.29h-0.91c0,0-0.76,0.29-0.91,0.29
		c-0.15,0,0,0.15,0,0.15l-0.36-0.04c0,0-0.4,0.07-0.43,0c-0.04-0.07-0.15-0.15-0.26-0.29c-0.11-0.15-0.22-0.15-0.22-0.15
		s-0.07-0.36-0.22-0.69c0,0-0.98,0.04-1.05,0.11c-0.07,0.07-0.58-0.22-0.58-0.22l-0.26-0.04c0,0-0.69,0.26-0.94,0.26
		c-0.26,0,0-0.18,0-0.18l-0.36-0.22h-0.43l-0.33-0.29l0.15-0.15l0.22-0.15l0.4-0.29l0.36-0.15v-0.47v-0.51v-0.22l-0.18-0.15
		c0,0-0.18-0.4-0.29-0.47c-0.11-0.07-0.07-0.18-0.07-0.18l-0.22-0.4l-0.26-0.11c0,0-0.18-0.18-0.4-0.36c-0.22-0.18,0-0.22,0-0.22
		s-0.18-0.36-0.18-0.4s-0.15-0.33-0.15-0.33l-0.47-0.29c0,0-0.51,0-0.58,0.07c-0.08,0.07-0.18-0.15-0.18-0.15l-0.51,0.22
		c0,0-0.62-0.22-0.62-0.29c0-0.07-0.33-0.4-0.33-0.4l-0.29-0.18c0,0-0.43-0.11-0.47-0.11c-0.04,0-0.26-0.04-0.26-0.04
		s-0.11-0.15-0.11-0.18s-0.04-0.22-0.04-0.29c0-0.08-0.11-0.11-0.11-0.18c0-0.07-0.25-0.07-0.25-0.07s-0.29-0.22-0.33-0.25
		c-0.04-0.04-0.22-0.54-0.22-0.54"/>
	<path class="st0" d="M70.43,92.49l-0.11,0.43l-0.04,0.29l0.15,0.15l0.26,0.25v0.29l-0.08,0.47l0.04,0.22l0.04,0.25l-0.11,0.18
		l-0.15,0.15v0.15l-0.15,0.11l-0.22,0.15l-0.04,0.15v0.18l0.15,0.07l0.18-0.04l0.15-0.26l0.26-0.18l0.33,0.04v0.22
		c0,0,0.08,0.18,0,0.22c-0.07,0.04-0.11,0.11-0.11,0.11l-0.04,0.22c0,0-0.07,0.07-0.11,0.07h-0.15v0.25l-0.11,0.15
		c0,0-0.08,0.07-0.11,0.07h-0.18h-0.11l-0.07,0.22l0.15,0.15l0.18,0.11L70.4,97.5l0.11,0.22l0.26,0.18l0.04,0.18l-0.04,0.18
		l-0.26,0.11l-0.33-0.15l-0.18-0.22l-0.07-0.33l-0.26,0.04l-0.29-0.04l-0.11,0.11v0.33l-0.04,0.18l-0.11,0.15l-0.26,0.04l-0.26,0.04
		l-0.11,0.11v0.18l-0.07,0.26l0.11,0.22l0.15,0.15l-0.04,0.11l-0.22,0.04c0,0-0.15,0.04-0.15,0.07s-0.08,0.18-0.08,0.18l-0.04,0.18
		v0.11l-0.07,0.11l-0.18,0.11l-0.18,0.07c0,0-0.11,0.07-0.15,0.07c-0.04,0-0.26-0.04-0.26-0.04s-0.18-0.04-0.22-0.04
		s-0.11-0.07-0.11-0.07l-0.08-0.11v-0.15l0.08-0.11l0.11-0.04l0.22-0.07l0.15-0.07l0.04-0.04v-0.15l-0.18-0.04l-0.15-0.11
		l-0.15-0.04v-0.11l-0.04-0.15l0.04-0.11c0,0,0.04-0.15,0.08-0.15c0.04,0,0.18-0.11,0.18-0.11l0.11-0.07l0.04-0.07l-0.04-0.11
		l-0.11-0.07l-0.33-0.04H66.8l-0.11-0.04l-0.07-0.07v-0.11l-0.07-0.07l-0.22-0.07l0.04-0.11l0.07-0.07l0.11-0.07l0.22-0.04
		l0.18-0.04l0.15-0.07l0.04-0.07l0.04-0.07l0.07-0.11l0.18-0.29l0.11-0.18c0,0,0.04-0.11,0-0.11c-0.04,0-0.11-0.07-0.11-0.07v-0.11
		v-0.29l-0.08-0.11l-0.07-0.07l-0.11,0.07l-0.11,0.15l-0.15,0.25l-0.22,0.18h-0.22h-0.18l-0.11,0.11l-0.11,0.18l-0.22,0.15
		l-0.26-0.04L65.48,97l-0.11-0.18c0,0-0.04-0.18-0.04-0.22s-0.11-0.25-0.11-0.25l-0.18-0.22v-0.29v-0.22l0.15-0.15l0.07-0.18
		l0.11-0.18L65.44,95c0,0,0.07-0.04,0.11-0.07c0.04-0.04,0.07-0.04,0.07-0.04l0.18-0.11l0.07-0.11l0.11-0.15l0.07-0.04h0.18
		l0.22,0.11l0.22,0.15l0.22,0.15h0.15l0.11-0.04l0.11-0.11l0.07-0.04l0.08,0.04l0.11,0.07L67.62,95l0.08,0.11l0.15,0.08h0.15
		l0.15,0.11c0,0,0.04,0.07,0.07,0.07s0.15,0.04,0.15,0.04h0.04V95.3v-0.11v-0.11c0-0.04-0.08-0.15-0.08-0.15s0-0.11-0.04-0.11
		c-0.04,0-0.11-0.07-0.11-0.07l-0.11-0.07l-0.07-0.07l-0.04-0.15v-0.11l-0.04-0.15c0,0,0.04-0.11,0-0.11
		c-0.04,0-0.15-0.11-0.15-0.11l-0.04-0.11V93.8l0.07-0.07c0,0,0.07-0.04,0.11-0.04h0.22l0.18-0.07c0,0,0.08-0.11,0.11-0.11
		c0.04,0,0.18-0.04,0.18-0.04l0.22-0.07h0.22l0.04-0.07l0.04-0.18l0.07-0.07l0.15-0.07l0.18-0.04l0.11-0.04l0.08-0.11v-0.15
		l-0.08-0.29l0.04-0.18l0.11-0.18l0.15-0.18l0.18-0.07l0.26-0.04l0.29,0.11L70.86,92l0.04,0.15c0,0-0.04,0.07-0.04,0.11
		c0,0.04-0.18,0.18-0.18,0.18L70.43,92.49z"/>
	<path class="st0" d="M59.29,95.52c0,0-0.66-0.18-0.66-0.15s-0.43,0-0.43,0l-0.22,0.15c0,0-0.04,0.11-0.04,0.15s0.04,0.18,0.04,0.18
		l0.07,0.04L58.2,96l0.43,0.07h0.29l0.15-0.11l0.15-0.11l0.15-0.04l0.07-0.04v-0.18L59.29,95.52z"/>
	<polygon class="st0" points="59.54,96.1 59.36,96.25 59.32,96.39 59.25,96.58 59.25,96.83 59.29,97.05 59.36,97.16 59.5,97.16 
		59.68,97.12 59.76,97.05 59.98,97.05 60.16,97.01 60.19,96.87 60.19,96.72 60.12,96.54 59.98,96.39 59.79,96.28 59.72,96.1 
		59.65,96.07 	"/>
	<polygon class="st0" points="54.92,94.9 55.07,94.83 55.07,94.54 55.21,94.32 55.47,94.29 55.58,94.4 55.72,94.54 55.87,94.65 
		56.02,94.72 56.09,94.76 56.09,94.9 55.98,95.09 55.91,95.27 55.91,95.41 55.98,95.52 56.16,95.7 56.23,95.81 56.2,95.92 
		56.02,95.92 55.94,95.96 55.69,95.81 55.36,95.63 55.21,95.52 54.92,95.45 54.63,95.52 54.27,95.52 54.01,95.41 53.83,95.38 
		53.73,95.19 53.69,95.01 53.69,94.87 53.73,94.65 53.91,94.47 54.05,94.25 54.31,94.1 54.45,94.03 54.49,93.81 54.71,93.63 
		54.89,93.48 55.14,93.45 55.25,93.45 55.29,93.56 55.29,93.67 55.11,93.85 55,94.07 54.89,94.32 54.82,94.5 54.85,94.76 	"/>
	<path class="st0" d="M50.67,96.25v0.25l0.04,0.22l0.11,0.15l0.15,0.11L51,97.09l-0.04,0.11l-0.15,0.15l-0.15,0.11l-0.07,0.11
		l-0.04,0.11l0.18,0.11l0.11,0.07l0.22,0.11v0.11l0.04,0.18l0.07,0.15l0.15,0.07l0.15-0.04h0.29l0.18-0.04l0.15-0.07l0.15-0.15
		v-0.23l-0.08-0.15l-0.04-0.22l0.04-0.11l0.11-0.07l0.29-0.04l0.18-0.15h0.18h0.18l0.07,0.15v0.11c0,0-0.07,0.11-0.07,0.15
		c0,0.04-0.04,0.18-0.04,0.18L53,98.03v0.08l-0.04,0.15L53,98.33l0.04,0.07l0.04,0.18v0.18l0.07,0.15l0.33,0.04l0.36,0.11l0.26-0.04
		l0.18,0.04l0.15-0.11c0,0,0.07,0.07,0.11,0.07c0.04,0,0.07,0.15,0.07,0.15l0.26,0.11l0.26,0.04h0.11l0.04-0.18l-0.04-0.22
		l-0.11-0.11l-0.04-0.15v-0.18l0.07-0.07l0.15-0.15l0.11-0.04l0.07-0.07v-0.36c0,0-0.07-0.33-0.07-0.36v-0.15l0.04-0.18l0.07-0.22
		c0,0-0.04-0.15,0-0.15c0.04,0,0.11-0.11,0.11-0.11l0.11-0.07l0.04-0.15l-0.04-0.15l-0.18-0.08l-0.18-0.07L55.23,96l-0.11-0.04
		h-0.15h-0.18l-0.25-0.04l-0.15-0.11h-0.26L53.95,96l-0.26,0.18l-0.15,0.11v0.11l-0.22-0.04l-0.07-0.18l-0.15-0.22l-0.04-0.11
		l-0.07-0.15l-0.18-0.07l-0.18-0.07l-0.07-0.07c0,0-0.04-0.07-0.04-0.11S52.5,95.2,52.5,95.2v-0.07c0-0.04-0.11-0.11-0.11-0.11
		l-0.04-0.11l-0.07-0.18l-0.04-0.22l0.11-0.15l0.04-0.15l0.25-0.04l0.11-0.07l0.08-0.04l0.04-0.11l0.04-0.18l0.08-0.07l0.11-0.15
		v-0.11l-0.04-0.18l-0.07-0.22l0.04-0.22l-0.33-0.22h-0.26h-0.22l-0.29,0.04l-0.22,0.18l-0.15,0.22l-0.07,0.18l-0.07,0.22v0.11
		l-0.25,0.07l-0.15,0.07l-0.11,0.15c0,0,0.04,0.07,0,0.11c-0.04,0.04-0.18,0.15-0.18,0.15v0.22l-0.07,0.18l-0.11,0.07l-0.15,0.07
		l-0.04,0.15v0.22l0.04,0.18l-0.04,0.22l0.08,0.25l0.07,0.29L50.67,96.25z"/>
</g>
<path class="st0" d="M67.74,74.06l0.15-0.22l0.18-0.36l0.18-0.4l0.26-0.18c0,0,0.43-0.15,0.47-0.18c0.04-0.04,0.15-0.04,0.15-0.04
	l0.4,0.04l0.29,0.04v0.29v0.29l0.43,0.15l0.29-0.07l0.4-0.04l0.4-0.25l0.15-0.29c0,0,0.04-0.15,0.04-0.22c0-0.07,0-0.11,0.04-0.15
	s0.04-0.15,0.04-0.22v-0.29c0,0-0.04-0.26-0.08-0.33c-0.04-0.07,0.04-0.18,0.04-0.18s0.26-0.29,0.26-0.33s0.15-0.11,0.18-0.11
	c0.04,0,0.07-0.07,0.07-0.11c0-0.04,0-0.15-0.04-0.18s0.04-0.11,0.04-0.11s0.07-0.15,0.04-0.22c-0.04-0.07,0-0.11,0-0.18
	c0-0.07,0.18-0.07,0.29-0.11c0.11-0.04,0.04-0.07,0.04-0.18c0-0.11-0.04-0.15-0.11-0.22c-0.07-0.07,0.22-0.07,0.22-0.07
	s0.36,0.04,0.4,0.04s0.04-0.15,0.08-0.15c0.04,0,0.04-0.11,0.04-0.15v-0.18c0-0.04,0.29-0.18,0.33-0.22c0.04-0.04,0-0.11,0-0.18
	v-0.58c0-0.04-0.04-0.11-0.07-0.18c-0.04-0.07-0.11-0.15-0.15-0.22c-0.04-0.07,0-0.11,0-0.15c0-0.04,0.04-0.11,0.04-0.29
	s0.04-0.11,0.07-0.18c0.04-0.07,0.04-0.15,0.04-0.18s-0.08-0.22-0.18-0.36c-0.11-0.15-0.04-0.11-0.04-0.18v-0.22
	c0-0.07,0-0.11-0.07-0.25c-0.08-0.15-0.04-0.22-0.04-0.22s-0.51-0.22-0.58-0.22c0,0-0.18-0.08-0.36-0.22c0,0-0.43,0.15-0.47,0.15
	c-0.04,0-0.29,0.11-0.33,0.11s-0.04-0.04-0.26-0.11c-0.22-0.07-0.11,0-0.11,0s-0.11,0-0.18,0.04c-0.07,0.04-0.26,0.18-0.26,0.18
	l-0.4,0.18h-0.07l-0.29,0.15l-0.29,0.18c0,0-0.36,0.04-0.43,0s-0.04,0-0.18-0.15c-0.15-0.15-0.07,0-0.07,0l-0.15,0.15
	c0,0-0.04,0.18-0.04,0.22s-0.04,0.18-0.04,0.22c0,0.04,0.04,0.36,0.04,0.43v0.29l-0.04,0.18c0,0-0.07,0.07-0.22,0.22
	c-0.15,0.15-0.15,0.11-0.15,0.11l-0.22,0.07l-0.11,0.11l-0.15,0.18c0,0-0.04-0.04-0.11-0.04c-0.08,0-0.15-0.07-0.29-0.11
	c-0.15-0.04-0.11-0.15-0.15-0.18c-0.04-0.04,0-0.04,0.07-0.15c0.08-0.11,0.08-0.11,0.11-0.18c0.04-0.07,0-0.15,0-0.26
	c0-0.11-0.04-0.11-0.07-0.18c-0.04-0.07-0.22-0.11-0.26-0.22c-0.04-0.11-0.04,0-0.18-0.11c-0.15-0.11-0.07,0.04-0.07,0.04
	l-0.29,0.11c0,0-0.11,0.04-0.15,0.07s-0.26,0.15-0.26,0.15s-0.07,0.26-0.11,0.33c-0.04,0.07-0.04,0.18-0.04,0.22
	c0,0.04-0.07,0.29-0.07,0.29l-0.33,0.54l-0.18,0.15c0,0-0.11,0.22-0.15,0.25c-0.04,0.04-0.04,0.15-0.04,0.18s0.07,0.04,0.07,0.04
	s0.18,0.08,0.33,0.08s0.22,0.11,0.33,0.11c0.11,0,0.26,0.04,0.4,0.07c0.15,0.04,0.33,0.07,0.51,0.11c0.18,0.04,0.15,0.15,0.26,0.22
	c0.11,0.07,0.07,0.29,0.07,0.29l-0.04,0.18c0,0-0.15,0.07-0.22,0.15c-0.08,0.07-0.04,0-0.04,0h-0.51h-0.29
	c-0.08,0-0.11,0.04-0.26,0.04s-0.04,0.11-0.04,0.11l-0.22,0.4l-0.29,0.36c0,0-0.11,0.25-0.15,0.29c-0.04,0.04-0.04,0.22-0.04,0.22
	s0.04,0.11,0.11,0.15c0.07,0.04,0.22,0.25,0.22,0.25s0.22,0.15,0.26,0.22c0.04,0.07,0.22,0.22,0.26,0.25
	c0.04,0.04,0.04,0.29,0.07,0.4c0.04,0.11,0,0.15,0,0.15s-0.43,0.15-0.51,0.15c-0.08,0-0.08,0-0.15-0.04c-0.07-0.04-0.07,0-0.22-0.11
	c-0.15-0.11-0.15-0.11-0.22-0.18c-0.08-0.07-0.22,0-0.26,0h-0.15l-0.26,0.29v0.04c0,0,0.11,0.22,0.18,0.43
	c0.07,0.22,0.15,0.29,0.15,0.29s0.15,0.22,0.15,0.25c0,0.04,0.25,0.33,0.22,0.36c-0.04,0.04,0.11,0.29,0.11,0.29l-0.19,0.48
	l0.3,0.03c0,0-0.15-0.15,0-0.15s0.91-0.29,0.91-0.29h0.91c0,0,0.33-0.07,0.33-0.29C67.2,74.57,67.74,74.06,67.74,74.06z"/>
<path class="st0" d="M88,76.49c0-0.04,0.15-0.22,0.15-0.22l0.18-0.29l0.18-0.29l0.15-0.25l0.04-0.44l0.04-0.15l0.11-0.26l0.11-0.18
	v-0.29c0-0.04,0.15-0.22,0.15-0.22l0.18-0.18v-0.4c0,0,0.04-0.36,0.04-0.43s0.04-0.15,0.04-0.15l0.18-0.25l0.04-0.22v-0.25v-0.29
	c0-0.04,0.11-0.11,0.11-0.15c0-0.04,0.15-0.22,0.15-0.22l0.15-0.29l0.15-0.26l0.15-0.15l-0.04-0.15v-0.07l-0.25-0.18v-0.11
	l0.18-0.18l0.07-0.25l-0.07-0.15l-0.04-0.25l-0.04-0.36l0.18-0.07l0.15-0.26l0.15-0.33l0.15-0.22l0.18-0.18l0.04-0.29l0.11-0.26
	l0.18-0.15l0.22-0.33l0.15-0.18c0,0,0.04-0.29,0.07-0.33s0-0.62,0-0.62v-0.22c0-0.04-0.07-0.25-0.07-0.25l-0.04-0.11l-0.11-0.15
	l-0.18-0.07h-0.26l-0.22,0.15l-0.07,0.22l-0.11,0.15l-0.18,0.33l-0.29,0.18l-0.26,0.11l-0.11,0.22l-0.18,0.18l-0.18,0.07l-0.36,0.18
	l-0.29,0.22l-0.15,0.22l-0.4-0.15l-0.33-0.22l-0.15-0.15l-0.22-0.22c0,0-0.18-0.25-0.22-0.29c-0.04-0.04-0.04-0.26-0.04-0.26v-0.15
	l0.07-0.22c0,0,0.04-0.18,0.07-0.22c0.04-0.04,0.25-0.07,0.25-0.07s0.18-0.18,0.18-0.22s0.33-0.18,0.36-0.18s0.08-0.22,0.08-0.26
	c0-0.04,0.07-0.25,0.07-0.29c0-0.04,0.15-0.22,0.15-0.22l-0.04-0.29l-0.15-0.22l-0.26-0.15l-0.18-0.22l-0.04-0.29l0.07-0.36
	l-0.04-0.4l-0.11-0.29l-0.33-0.29v-0.29l0.26-0.4l0.15-0.4l-0.18-0.4c0,0-0.11-0.22-0.11-0.25c0-0.04,0.07-0.29,0.07-0.29l0.15-0.15
	v-0.22l-0.07-0.22l-0.04-0.15l0.08-0.25l0.07-0.29l0.11-0.73l0.04-0.22l0.11-0.11l0.18-0.11l0.04-0.15l0.04-0.25l0.11-0.22
	l0.15-0.22l0.11-0.15l0.07-0.11c0,0,0.15-0.11,0.15-0.15c0-0.04,0.18-0.15,0.18-0.15l0.11-0.11l0.04-0.25l0.04-0.26l0.04-0.25
	l0.04-0.22l0.04-0.22l-0.04-0.22l0.04-0.25v-0.25l0.15-0.15l0.15-0.18l-0.04-0.29l-0.04-0.29l-0.04-0.43v-0.22l-0.08-0.22
	l-0.15-0.26l-0.26-0.4L88.92,51l0.04-0.18l0.11-0.22v-0.22l0.04-0.15l0.11-0.11l0.11-0.18l0.08-0.33l0.07-0.29l0.15-0.25l0.08-0.15
	l0.18-0.15l0.36-0.11l0.11-0.15l0.11-0.26l0.18-0.15l0.08-0.4v-0.44l-0.08-0.33l-0.04-0.29l0.11-0.15l0.11-0.22l-0.11-0.26
	l-0.08-0.36l-0.11-0.25l-0.08-0.47l-0.18-0.33l-0.11-0.29l-0.33-0.54l-0.08-0.54l0.11-0.36l-0.11-0.73l-0.04-1.67l0.18-0.4
	l-0.07-0.69v-0.76l0.29-0.25l-0.54-0.58l-0.47-0.69v-0.33v-0.66l-0.26-0.33c0,0-0.8,0.29-0.8,0.33s-0.69,0.51-0.69,0.51l-0.43,0.07
	c0,0-0.22,0.22-0.22,0.25c0,0.04-0.15,0.15-0.18,0.22c-0.04,0.07-0.36,0.04-0.36,0.07s-0.15,0.18-0.18,0.25
	c-0.04,0.08-0.07,0.18-0.07,0.29c0,0.11,0.04,0.25,0,0.36s0,0.07-0.04,0.25s-0.18,0.22-0.18,0.22l-0.58-0.15c0,0-0.07-0.07-0.11,0
	c-0.04,0.07-0.25,0.07-0.25,0.07l0.04-0.15c0,0-0.33-0.25-0.33-0.36s0.18-0.29-0.07-0.44c-0.26-0.15-0.43-0.18-0.47-0.18
	c-0.04,0-0.22,0.07-0.29-0.04c-0.08-0.11-0.51-0.33-0.51-0.33s-0.4-0.11-0.4,0s-0.29,0.18-0.33,0.29s-0.36,0.22-0.36,0.22
	l-0.07,0.11l-0.33-0.18l-0.47-0.15h-0.22c0,0-0.22-0.22-0.29-0.22c-0.08,0-0.26-0.07-0.26-0.07s-0.04-0.04-0.07,0
	c-0.04,0.04-0.33-0.04-0.33-0.07c0-0.04-0.18-0.11-0.18-0.11l-0.22-0.15c0,0-0.25,0.11-0.25,0.15c0,0.04-0.25,0.18-0.25,0.18
	l-0.29,0.33c0,0-0.15,0.18-0.15,0.26c0,0.08,0,0.15-0.11,0.22c-0.11,0.07-0.22,0.15-0.29,0.11c-0.08-0.04-0.62-0.22-0.62-0.22h-0.15
	c-0.04,0-0.25-0.15-0.25-0.18c0-0.04-0.11-0.36-0.11-0.36l-0.36-0.15l-0.36-0.22c0,0-0.04-0.15-0.07-0.15s-0.26,0.15-0.26,0.15
	l-0.07,0.36c0,0-0.11,0.07-0.11,0.15c0,0.08-0.11,0.11-0.18,0.18c-0.08,0.07-0.08-0.07-0.08,0.07v0.33l-0.4-0.07l-0.58-0.07
	l-0.69-0.4c0,0-0.15-0.07-0.4-0.18l-0.76,0.36H72.2h-0.26l-0.54,0.4l-0.22,0.4l-0.4,0.36c0,0-0.54,0.04-0.54,0.07
	c0,0.04-0.18,0.29-0.18,0.33c0,0.04,0.11,0.15-0.15,0.22c-0.26,0.08-0.36,0.15-0.36,0.15l-0.4,0.15l-0.11,0.25
	c0,0-0.04,0.15-0.07,0.18c-0.04,0.04-0.04,0.07-0.18,0.15c-0.15,0.07-0.25,0.15-0.22,0.15s0,0-0.04,0.15
	c-0.04,0.15-0.07,0.11-0.04,0.18c0.04,0.07,0,0.25,0,0.25l-0.15,0.26l-0.22,0.25c0,0,0.07,0.22,0.11,0.29
	c0.04,0.07,0.18,0.15,0.18,0.15s0.11,0.07,0.11,0.15v0.22c0,0,0.04,0.15,0.04,0.22s-0.04,0.18-0.04,0.18l-0.15,0.15
	c0,0-0.22,0.04-0.25,0.11c-0.04,0.07-0.18,0.18-0.22,0.22c-0.04,0.04-0.26,0.15-0.26,0.15s-0.11,0.11-0.18,0.11
	c-0.07,0-0.26,0.04-0.29,0.07c-0.04,0.04-0.4,0.15-0.4,0.15v0.07c0,0-0.22-0.07-0.25-0.11c-0.04-0.04-0.33-0.11-0.33-0.11
	l-0.33-0.15c0,0-0.08-0.07-0.08-0.11c0-0.04-0.07-0.15-0.07-0.15l-0.26-0.07c0,0,0.07-0.07,0-0.22c-0.07-0.15-0.22-0.33-0.22-0.33
	s-0.11-0.07-0.11-0.11c0-0.04-0.04-0.29-0.11-0.33c-0.07-0.04-0.29-0.18-0.29-0.18l-0.15-0.11l-0.36-0.04c0,0-0.11-0.07-0.15,0
	c-0.04,0.07-0.07,0.11-0.11,0.18c-0.04,0.07-0.11,0.15-0.11,0.18c0,0.04-0.4,0.15-0.4,0.15v0.15c0,0,0.04,0,0,0.15
	c-0.04,0.15-0.11,0.29-0.11,0.29l-0.11,0.18l-0.18,0.08l-0.33-0.11l-0.29,0.04l-0.22-0.18c0,0-0.18-0.11-0.22-0.15
	c-0.04-0.04-0.18-0.15-0.18-0.15s-0.11-0.15-0.15,0c-0.04,0.15-0.15,0.18-0.15,0.18s-0.07,0.04-0.15,0.08
	c-0.07,0.04-0.33,0.25-0.33,0.25h-0.33l-0.33-0.11l-0.4,0.11c0,0-0.29,0.43-0.29,0.51s-0.22,0.54-0.22,0.54l-0.11,0.36
	c0,0-0.04,0.29,0,0.33c0.04,0.04,0.26,0.11,0.26,0.11l0.33,0.33c0,0,0.11,0.11,0.11,0.15c0,0.04,0.04,0.11,0,0.22
	c-0.04,0.11-0.15,0.11-0.18,0.15c-0.04,0.04-0.33,0.07-0.36,0.07c-0.04,0-0.43-0.11-0.43-0.11l-0.07-0.47l-0.4-0.11l-0.36,0.22
	c0,0-0.22-0.07-0.22-0.15c0-0.07-0.04-0.4-0.07-0.4c-0.04,0-0.36-0.18-0.4-0.08c-0.04,0.11,0.04,0.4,0,0.47
	c-0.04,0.07-0.26,0.11-0.26,0.15s0.04-0.04,0,0.07c-0.04,0.11-0.07,0.22-0.07,0.22l-0.29,0.07c-0.07,0.11-0.26,0.22-0.26,0.22v0.07
	h-0.36l-0.43,0.04c0,0,0.07,0.22,0.07,0.25c0,0.04,0.22,0.29,0.26,0.29c0.04,0,0.36,0.08,0.36,0.08l0.18,0.15l0.18,0.25v0.26
	c0,0-0.04,0.36-0.04,0.4c0,0.04-0.36,0.25-0.36,0.25s-0.11-0.04-0.15-0.07c-0.04-0.04-0.18-0.29-0.18-0.29l-0.22-0.26l-0.25-0.25
	h-0.11l-0.29,0.18l-0.29,0.11v0.26v0.22c0,0.04-0.25,0.07-0.25,0.07l-0.26,0.04l-0.11-0.04c0,0-0.29,0.15-0.33,0.15
	c-0.04,0-0.22,0.07-0.22,0.11c0,0.04-0.04,0.29-0.04,0.33c0,0.04,0.22,0.15,0.22,0.18c0,0.04,0.15,0.15,0.15,0.15l0.8,0.07l0.4,0.36
	l0.11,0.36c0,0,0.04,0.25,0.07,0.29c0.04,0.04,0.36,0.22,0.36,0.29c0,0.07,0.04,0.33,0.04,0.36c0,0.04-0.18,0.25-0.18,0.25
	l-0.29,0.15l-0.18,0.18c0,0-0.04,0.25,0.04,0.29c0.07,0.04,0.15,0.25,0.15,0.25s-0.15,0.22-0.15,0.26c0,0.04-0.11,0.22-0.11,0.22
	s-0.07,0.11-0.07,0.15c0,0.04-0.08,0.07,0,0.15c0.07,0.07,0.11,0.25,0.11,0.33c0,0.07,0.04,0.22,0.04,0.25
	c0,0.04-0.11,0.11-0.11,0.18s-0.08,0.22-0.08,0.22l-0.04,0.15l-0.11,0.4l0.26,0.4c0,0,0.15,0,0.15,0.22c0,0.22-0.18,0.43-0.26,0.51
	c-0.07,0.07-0.07,0.07-0.18,0.18c-0.11,0.11-0.22,0.11-0.26,0.15c-0.04,0.04-0.33,0.4-0.33,0.4l-0.04,0.58l0.07,0.4
	c0,0,0.18-0.04,0.22,0c0.04,0.04,0.04,0,0.22,0.07c0.18,0.07,0.26,0.11,0.26,0.11s0.08-0.33,0.15-0.4c0.08-0.07,0.29-0.33,0.29-0.33
	s0.08,0,0.11,0.11c0.04,0.11,0.11,0.33,0.11,0.36v0.11l0.25,0.07l0.33,0.22l0.04,0.11c0.04,0.11-0.18,0.04,0.04,0.18l0.22,0.15
	c0,0-0.07-0.04,0,0c0.07,0.04,0.43-0.15,0.43-0.15l0.07-0.11l0.4-0.07h0.18c0.07,0,0.73,0.07,0.73,0.07s0,0.08,0.04,0.26
	c0.04,0.18,0.11,0.18,0.11,0.25c0,0.07-0.04,0.07-0.08,0.22c-0.04,0.15-0.11,0.11-0.07,0.22c0.04,0.11-0.04,0.04,0.04,0.22
	s0.07,0.25,0.11,0.25h0.04l0.04,0.33c0,0-0.18,0.26-0.25,0.26s-0.29-0.07-0.36-0.15c-0.07-0.07-0.26-0.33-0.33-0.29
	c-0.07,0.04-0.29,0.11-0.29,0.11s-0.33,0.04-0.33,0.07c0,0.04-0.07-0.04-0.07,0.11c0,0.15-0.04,0-0.04,0.15
	c0,0.15,0.04,0.29,0.07,0.36c0.04,0.07,0.04,0.25,0.04,0.33c0,0.08,0.04,0.15,0,0.29c-0.04,0.15-0.07,0.11-0.07,0.26
	c0,0.15-0.08,0.33-0.08,0.33l-0.11,0.18c0,0,0-0.15-0.04,0c-0.04,0.15-0.18,0.26-0.18,0.26s-0.15,0.04-0.18,0.15
	c-0.04,0.11-0.11,0.29-0.11,0.33S56.3,61.96,56.3,62c0,0.04-0.04,0.22,0,0.26c0.04,0.04,0.07,0.11,0.04,0.18
	c-0.04,0.07-0.15,0.15-0.15,0.22c0,0.07-0.11,0.18-0.11,0.18l-0.18,0.11l-0.69,0.22h-0.08c0,0,0.08-0.07-0.07,0.11
	c-0.15,0.18-0.25,0.22-0.29,0.22c-0.04,0-0.36,0.07-0.36,0.07v0.33v0.33c0,0,0.29,0.33,0.29,0.36c0,0.04,0.04,0.15,0.07,0.29
	c0.04,0.15,0.11,0.29,0.11,0.36s0.04,0.29,0.04,0.29s0.04,0.18-0.04,0.25l-0.07,0.07c-0.08,0.07-0.15,0.18-0.15,0.18
	s0.07-0.04-0.15,0.07c-0.22,0.11-0.29,0.15-0.29,0.15v0.18v0.15v-0.04c0,0,0.18,0.51,0.22,0.54c0.04,0.04,0.33,0.25,0.33,0.25
	s0.25,0,0.25,0.07c0,0.08,0.11,0.11,0.11,0.18c0,0.07,0.04,0.25,0.04,0.29c0,0.04,0.11,0.18,0.11,0.18s0.22,0.04,0.26,0.04
	c0.04,0,0.47,0.11,0.47,0.11l0.29,0.18c0,0,0.33,0.33,0.33,0.4c0,0.07,0.62,0.29,0.62,0.29l0.51-0.22c0,0,0.11,0.22,0.18,0.15
	c0.07-0.07,0.58-0.07,0.58-0.07l0.47,0.29c0,0,0.15,0.29,0.15,0.33s0.18,0.4,0.18,0.4s-0.22,0.04,0,0.22s0.4,0.36,0.4,0.36
	l0.25,0.11l0.22,0.4c0,0-0.04,0.11,0.07,0.18c0.11,0.07,0.29,0.47,0.29,0.47l0.18,0.15v0.22v0.51v0.47l-0.36,0.15l-0.4,0.29
	l-0.22,0.15l-0.15,0.15l0.33,0.29h0.43l0.36,0.22c0,0-0.26,0.18,0,0.18c0.25,0,0.94-0.26,0.94-0.26l0.26,0.04
	c0,0,0.51,0.29,0.58,0.22c0.08-0.07,1.05-0.11,1.05-0.11c0.15,0.33,0.22,0.69,0.22,0.69s0.11,0,0.22,0.15
	c0.11,0.15,0.22,0.22,0.26,0.29c0.04,0.07,0.43,0,0.43,0l0.06,0.01l0.19-0.48c0,0-0.15-0.25-0.11-0.29
	c0.04-0.04-0.22-0.33-0.22-0.36c0-0.04-0.15-0.25-0.15-0.25s-0.07-0.07-0.15-0.29c-0.07-0.22-0.18-0.43-0.18-0.43v-0.04l0.26-0.29
	h0.15c0.04,0,0.18-0.07,0.25,0c0.07,0.07,0.07,0.07,0.22,0.18c0.15,0.11,0.15,0.07,0.22,0.11c0.07,0.04,0.07,0.04,0.15,0.04
	c0.07,0,0.51-0.15,0.51-0.15s0.04-0.04,0-0.15c-0.04-0.11-0.04-0.36-0.07-0.4s-0.22-0.18-0.26-0.25c-0.04-0.07-0.25-0.22-0.25-0.22
	s-0.15-0.22-0.22-0.25c-0.07-0.04-0.11-0.15-0.11-0.15s0-0.18,0.04-0.22c0.04-0.04,0.15-0.29,0.15-0.29l0.29-0.36l0.22-0.4
	c0,0-0.11-0.11,0.04-0.11c0.15,0,0.18-0.04,0.25-0.04h0.29h0.51c0,0-0.04,0.07,0.04,0c0.07-0.07,0.22-0.15,0.22-0.15l0.04-0.18
	c0,0,0.04-0.22-0.07-0.29c-0.11-0.07-0.08-0.18-0.26-0.22c-0.18-0.04-0.36-0.07-0.51-0.11c-0.15-0.04-0.29-0.07-0.4-0.07
	c-0.11,0-0.18-0.11-0.33-0.11s-0.33-0.07-0.33-0.07s-0.07,0-0.07-0.04s0-0.15,0.04-0.18s0.15-0.25,0.15-0.25l0.18-0.15l0.33-0.54
	c0,0,0.08-0.25,0.08-0.29c0-0.04,0-0.15,0.04-0.22c0.04-0.07,0.11-0.33,0.11-0.33s0.22-0.11,0.26-0.15
	c0.04-0.04,0.15-0.07,0.15-0.07l0.29-0.11c0,0-0.08-0.15,0.07-0.04c0.15,0.11,0.15,0,0.18,0.11c0.04,0.11,0.22,0.15,0.25,0.22
	c0.04,0.07,0.08,0.07,0.08,0.18c0,0.11,0.04,0.18,0,0.26c-0.04,0.07-0.04,0.07-0.11,0.18c-0.07,0.11-0.11,0.11-0.07,0.15
	c0.04,0.04,0,0.15,0.15,0.18c0.15,0.04,0.22,0.11,0.29,0.11c0.07,0,0.11,0.04,0.11,0.04l0.15-0.18l0.11-0.11l0.22-0.07
	c0,0,0,0.04,0.15-0.11s0.22-0.22,0.22-0.22l0.04-0.18V67.1c0-0.07-0.04-0.4-0.04-0.43c0-0.04,0.04-0.18,0.04-0.22
	c0-0.04,0.04-0.22,0.04-0.22l0.15-0.15c0,0-0.07-0.15,0.07,0c0.15,0.15,0.11,0.11,0.18,0.15c0.07,0.04,0.43,0,0.43,0l0.29-0.18
	l0.29-0.15h0.07l0.4-0.18c0,0,0.18-0.15,0.26-0.18c0.07-0.04,0.18-0.04,0.18-0.04s-0.11-0.07,0.11,0c0.22,0.07,0.22,0.11,0.26,0.11
	c0.04,0,0.29-0.11,0.33-0.11s0.47-0.15,0.47-0.15c0.18,0.15,0.36,0.22,0.36,0.22c0.07,0,0.58,0.22,0.58,0.22s-0.04,0.07,0.04,0.22
	c0.08,0.15,0.08,0.18,0.08,0.25v0.22c0,0.07-0.08,0.04,0.04,0.18c0.11,0.15,0.18,0.33,0.18,0.36c0,0.04,0,0.11-0.04,0.18
	c-0.04,0.07-0.07,0-0.07,0.18s-0.04,0.26-0.04,0.29s-0.04,0.07,0,0.15c0.04,0.07,0.11,0.15,0.15,0.22c0.04,0.07,0.08,0.15,0.08,0.18
	v0.58c0,0.07,0.04,0.15,0,0.18c-0.04,0.04-0.33,0.18-0.33,0.22v0.18c0,0.04,0,0.15-0.04,0.15c-0.04,0-0.04,0.15-0.07,0.15
	s-0.4-0.04-0.4-0.04s-0.29,0-0.22,0.07c0.07,0.07,0.11,0.11,0.11,0.22c0,0.11,0.08,0.15-0.04,0.18c-0.11,0.04-0.29,0.04-0.29,0.11
	c0,0.07-0.04,0.11,0,0.18c0.04,0.07-0.04,0.22-0.04,0.22s-0.07,0.07-0.04,0.11c0.04,0.04,0.04,0.15,0.04,0.18s-0.04,0.11-0.07,0.11
	c-0.04,0-0.18,0.07-0.18,0.11c0,0.04-0.26,0.33-0.26,0.33s-0.08,0.11-0.04,0.18c0.04,0.07,0.07,0.33,0.07,0.33v0.29
	c0,0.07,0,0.18-0.04,0.22s-0.04,0.07-0.04,0.15c0,0.07-0.04,0.22-0.04,0.22l-0.15,0.29l-0.4,0.26l-0.4,0.04l-0.29,0.07l-0.43-0.15
	v-0.29v-0.29l-0.29-0.04l-0.4-0.04c0,0-0.11,0-0.15,0.04c-0.04,0.04-0.47,0.18-0.47,0.18l-0.25,0.18l-0.18,0.4l-0.18,0.36
	l-0.15,0.22c0,0,0.29,0.36,0.29,0.44c0,0.07,0.04,0.43,0,0.58c-0.04,0.15,0.04,0.33,0,0.43c-0.04,0.11,0.43,0.51,0.43,0.51
	s0.4,0.25,0.4,0.47c0,0.22,0.51,0,0.51,0l1.02,0.25h0.8l0.44,0.22l1.09,0.44l0.66-0.15l0.4-0.58h0.98l0.15-0.4l0.58-0.33l0.36-0.04
	l0.87,0.04l0.4,0.43l0.69,0.18l0.54-0.51l0.69-0.15l0.43-0.11l0.22,0.04v-0.54l0.29-0.76L81,74.08l0.84-0.04l0.47,0.07l0.51-0.07
	l0.62,0.33l0.25,0.26l0.33,0.11l-0.15,0.33c0,0,0.07,0.29-0.04,0.4c-0.11,0.11-0.11,0.29-0.04,0.33c0.08,0.04,0.76,0.4,0.76,0.4
	s0.29-0.07,0.29-0.11c0-0.04,0.18-0.29,0.18-0.29l0.58-0.07l0.62-0.15l0.51,0.11l0.84,0.36l0.36,0.29v0.4"/>
<path class="st0" d="M84.36,84.78l-0.33-0.07c0,0-0.04-0.22-0.07-0.25c-0.04-0.04-0.25-0.4-0.25-0.43v-0.36l-0.15-0.33l-0.33-0.07
	c0,0-0.4,0.04-0.43,0c-0.04-0.04-0.25-0.11-0.25-0.11l-0.18-0.11l-0.03-0.06l0.12-0.31c0,0-0.04-0.36-0.07-0.36
	s-0.43-0.44-0.43-0.44h-0.36l-0.43-0.33l-0.54-0.69l-0.36-0.51l-0.54-0.51l-1.56-0.66l-0.26-0.29l-0.33-0.43l-0.08-0.18l0.36-0.33
	c0,0,0.29-0.18,0.33-0.18s0.33-0.26,0.33-0.29c0-0.04-0.04-0.62-0.04-0.62l-0.11-0.36l0.09-0.32l-0.06-0.07l0.69-0.14l0.43-0.11
	l0.22,0.04v-0.54l0.29-0.76l0.98-0.47l0.84-0.04l0.47,0.07l0.51-0.07l0.62,0.33l0.26,0.25l0.33,0.11l-0.15,0.33
	c0,0,0.07,0.29-0.04,0.4c-0.11,0.11-0.11,0.29-0.04,0.33c0.07,0.04,0.76,0.4,0.76,0.4s0.29-0.07,0.29-0.11
	c0-0.04,0.18-0.29,0.18-0.29l0.58-0.07l0.62-0.15l0.51,0.11l0.84,0.36l0.36,0.29L88,76.49c0,0.04-0.08,0.25-0.08,0.25L88,76.96
	l0.11,0.22l0.11,0.29v0.4l-0.11,0.22L88,78.2l0.04,0.29l0.04,0.18l0.04,0.36l-0.07,0.25l-0.18,0.11l-0.07,0.26l-0.04,0.26
	l-0.11,0.22l-0.07,0.22l-0.11,0.22l-0.18,0.11l-0.44,0.18l-0.18-0.33l-0.04-0.54l-0.18-0.44l-0.15,0.11c0,0,0.07,0.26,0.07,0.29
	s0.07,0.4,0.07,0.4s-0.04,0.36-0.04,0.44c0,0.07-0.29,0.36-0.29,0.36h-0.25l-0.26,0.04l-0.15,0.25c0,0,0.11,0.43,0.15,0.43
	c0.04,0,0.15,0.04,0.15,0.04v0.29c0,0.04-0.11,0.15-0.11,0.15l-0.04,0.18l0.11,0.36l-0.15,0.15l-0.26,0.22v0.29l0.22,0.11v0.18v0.07
	l-0.07,0.18c0,0-0.22,0.04-0.26,0.04S84.9,84.2,84.9,84.2l-0.29,0.15c0,0-0.04,0.11-0.04,0.15c0,0.04-0.04,0.11-0.11,0.15
	C84.39,84.67,84.36,84.78,84.36,84.78"/>
<path class="st0" d="M82.31,82.99l0.04,0.04l0.18,0.11c0,0,0.22,0.07,0.25,0.11c0.04,0.04,0.43,0,0.43,0l0.33,0.07l0.15,0.33v0.36
	c0,0.04,0.22,0.4,0.25,0.43c0.04,0.04,0.07,0.25,0.07,0.25l0.33,0.07l-0.22,0.11l-0.11,0.07l-0.33,0.04l-0.18,0.04l-0.11,0.11
	l-0.08,0.15l-0.15,0.62l-0.07,0.25c0,0-0.11,0.07-0.15,0.07s-0.26,0.11-0.26,0.15c0,0.04,0.04,0.18,0.04,0.18l0.07,0.22v0.11
	l-0.04,0.15l-0.11,0.18l-0.18,0.22l-0.11,0.18l-0.07,0.15c0,0-0.08,0.18-0.04,0.18c0.04,0,0,0.11,0,0.11l-0.15,0.15l-0.22,0.11
	l-0.26,0.18l-0.22,0.25l-0.08,0.22l-0.11,0.15c0,0-0.15,0.07-0.18,0.07s-0.33-0.07-0.33-0.07l-0.33-0.04l-0.22-0.15h-0.18
	l-0.18,0.15l-0.18,0.11l-0.07,0.22c0,0-0.11,0.11-0.07,0.15c0.04,0.04,0.15,0.18,0.15,0.18l0.11,0.22c0,0,0.04,0.07,0.04,0.11
	c0,0.04,0.04,0.25,0.04,0.25v0.22h-0.22l-0.26-0.04l-0.29-0.04l-0.15-0.25l-0.26-0.22l-0.15-0.07h-0.18l-0.15,0.07l-0.08,0.15
	l-0.07,0.15l-0.11,0.15l-0.18,0.11l-0.11,0.25c0,0-0.04,0.29-0.07,0.29c-0.04,0-0.11,0.18-0.11,0.18l-0.15,0.18l-0.18-0.29
	c0,0-0.15-0.07-0.15-0.11c0-0.04-0.18,0.04-0.18,0.08c0,0.04,0.04,0.22,0.04,0.22s0.04,0.18,0.04,0.22s-0.04,0.11-0.04,0.11
	l-0.22,0.25l-0.15-0.04c0,0-0.18,0.04-0.18,0.07c0,0.04-0.18,0.11-0.18,0.11s-0.04-0.04-0.07-0.11c-0.04-0.07-0.15-0.15-0.15-0.18
	v-0.4l-0.04-0.51l0.22-0.54l0.18-0.47l-0.07-0.36l-0.36,0.36l-0.29,0.4l-0.18,0.25l-0.29-0.04l-0.11-0.29c0,0-0.26-0.18-0.26-0.11
	s-0.11,0.33-0.11,0.33s-0.07,0.11-0.15,0.11c-0.07,0-0.15,0.04-0.15,0.04s-0.18,0.07-0.25,0.07c-0.07,0-0.47-0.18-0.47-0.18h-0.24
	l0,0l0.11-0.59l-0.29-0.47c0,0-0.29-0.33-0.33-0.36c-0.04-0.04-0.26-0.26-0.18-0.29c0.07-0.04,0.4,0.04,0.47,0
	c0.07-0.04,0.4,0,0.4,0h0.4l0.62-0.18c0,0,0.04-0.04,0-0.22s-0.15-0.54-0.15-0.54s0.07-0.22,0.11-0.26
	c0.04-0.04,0.15-0.18,0.25-0.22c0.11-0.04,0.22-0.07,0.33-0.07c0.11,0,1.05-0.18,1.09-0.18c0.04,0,0.54,0.11,0.54,0.11l0.62-0.29
	l0.15-0.22l0.04-0.11l0.11-0.4c0,0,0.4-0.36,0.47-0.36c0.07,0,0.36-0.11,0.36-0.11l0.07-0.18l0.47-0.22l0.33-0.11l0.47-0.07
	l0.15-0.18l0.18-0.15l0.18-0.84l0.29-0.29h0.58c0,0,0.07,0.08,0.11,0.08c0.04,0,0.43,0.07,0.43,0.07s0.22-0.29,0.22-0.33
	C81.97,83.38,82.31,82.99,82.31,82.99z"/>
</svg>
