<?xml version="1.0" encoding="utf-8"?>
<!-- Generator: Adobe Illustrator 26.5.2, SVG Export Plug-In . SVG Version: 6.00 Build 0)  -->
<svg version="1.1" id="Layer_1" xmlns="http://www.w3.org/2000/svg" xmlns:xlink="http://www.w3.org/1999/xlink" x="0px" y="0px"
	 viewBox="0 0 141.73 141.73" style="enable-background:new 0 0 141.73 141.73;" xml:space="preserve">
<style type="text/css">
	.st0{fill:#FFFFFF;stroke:#020202;stroke-width:0.25;stroke-linecap:round;stroke-linejoin:round;stroke-miterlimit:10;}
</style>
<path class="st0" d="M87.66,47.39v0.33v0.33c0,0,0.29,0.33,0.29,0.36c0,0.04,0.04,0.15,0.07,0.29s0.11,0.29,0.11,0.36
	c0,0.07,0.04,0.29,0.04,0.29s0.04,0.18-0.04,0.25l-0.07,0.07c-0.07,0.07-0.15,0.18-0.15,0.18s0.07-0.04-0.15,0.07
	c-0.22,0.11-0.29,0.15-0.29,0.15v0.18v0.15c0,0-0.11,0-0.15,0.04c-0.04,0.04-0.11,0.11-0.15,0.11c-0.04,0-0.07,0.11-0.07,0.11
	s-0.11,0.15-0.11,0.18c0,0.04-0.11,0.22-0.11,0.22l-0.36,0.33c0,0-0.4,0.18-0.4,0.22S86.07,51.76,86,51.8
	c-0.07,0.04,0.11,0.04-0.15,0.11c-0.25,0.07-0.54,0.07-0.54,0.07l-0.25,0.15l-0.47-0.07c0,0-0.22-0.15-0.22-0.04
	c0,0.11-0.18,0.33-0.18,0.36c0,0.04-0.07,0.4-0.15,0.47c-0.07,0.07-0.62,0.4-0.62,0.4l-0.79,0.54l-0.18,0.25l-0.07,0.51l-0.18,0.65
	l-0.15,0.43l-0.33,0.43l-0.4,0.9l-0.25,0.29l0.18,0.36l0.07,0.15l-0.25,0.25l-0.18,0.18l-0.07,0.4l-0.22,0.36l-0.33,0.33l0.18,0.22
	l0.43,0.36l0.33,0.47l0.04,0.25l0.15,0.36l0.04,0.4l-0.22,0.43l-0.04,0.29l0.25,0.29c0,0,0.29,0.22,0.29,0.25
	c0,0.04-0.15,0.4-0.15,0.4l-0.15,0.15l-0.4,0.4l-0.25,0.29l-0.18,0.36l-0.15,0.29c0,0-0.07,0.22-0.04,0.22
	c0.04,0,0.11,0.29,0.11,0.29l-0.25,0.36l-0.11,0.25l-0.47,0.29l-0.25-0.04l-0.65-0.54l-0.54-0.54l-0.4-0.43H77.3l-0.44,0.04
	l-0.47,0.07l-0.25,0.25l-0.29,0.51l-0.15,0.36c0,0-0.33,0.11-0.4,0.07c-0.07-0.04-0.47-0.36-0.47-0.36l-0.47,0.07l-0.62,0.29
	l-0.43-0.22l-0.87-0.22v-0.43l-0.51-0.22l-0.11,0.36l-0.07,0.15l-0.25-0.18l-0.36-0.04v-0.29l-0.18-0.07l-0.43,0.33
	c0,0-0.62,0.33-0.69,0.36c-0.07,0.04-0.61,0.15-0.61,0.15l-0.25-0.25c0,0-0.33-0.04-0.4-0.07s-0.22-0.18-0.25-0.22
	c-0.04-0.04-0.22-0.22-0.11-0.29c0.11-0.07,0.15-0.18,0.22-0.22s0.18-0.07,0.18-0.07l0.15-0.29c0,0,0.04-0.25,0-0.29
	s-0.22-0.51-0.25-0.54s-0.15-0.22-0.18-0.18s-0.15,0-0.15,0v-0.18c0-0.04,0.15-0.29,0.15-0.29l0.11-0.11l0.04-0.22
	c0,0-0.11-0.18-0.11-0.22s-0.07-0.29-0.07-0.29l-0.11-0.18c0,0,0.07-0.18,0-0.25l-0.15-0.15c0,0-0.07-0.15-0.25-0.04
	c-0.18,0.11-0.58,0.47-0.58,0.47l-0.15,0.15v0.11l-0.04,0.11L66.93,62c0,0,0.04,0.04,0,0.15c-0.04,0.11-0.15,0.29-0.15,0.29
	l-0.22,0.11c0,0-0.25-0.11-0.33-0.11c-0.07,0-0.4-0.25-0.4-0.25L65.49,62c0,0-0.04-0.25-0.04-0.29s-0.11-0.29-0.11-0.29
	s0.04-0.15-0.04-0.29c-0.07-0.15-0.15-0.22-0.15-0.22l-0.11-0.04l-0.25-0.11l-0.61-0.29l-0.29-0.33l-0.36-0.15l-0.29,0.36
	c0,0-0.07,0.07-0.18,0.04c-0.11-0.04-0.51-0.07-0.51-0.07s-0.18,0.22-0.29,0.25c-0.11,0.04-0.22,0.15-0.18,0.22
	c0.04,0.07,0.11,0.47,0.11,0.47s0.15-0.07,0.04,0.11s0.07,0.15-0.15,0.33S61.87,61.92,61.8,62c-0.07,0.07-0.51,0.33-0.51,0.33
	s-0.07-0.04,0,0.15c0.07,0.18,0.15,0.43,0.15,0.43l-0.47,0.15c0,0,0,0.04-0.15,0.07s-0.47,0.15-0.47,0.15s-0.51-0.11-0.51-0.04
	c0,0.07,0.11,0.47,0,0.54c-0.11,0.07-0.4,0.15-0.4,0.15s-0.29,0-0.4-0.07c-0.11-0.07-0.22-0.25-0.33-0.29
	c-0.11-0.04-0.29-0.11-0.29-0.11s-0.47,0.04-0.4,0.15c0.07,0.11,0.15,0.36,0.22,0.4c0.07,0.04,0.04,0.25,0.04,0.25
	s0.07,0.04-0.07,0.07c-0.15,0.04-0.33,0-0.33,0l-0.33-0.25c0,0-0.18-0.07-0.29-0.04l-0.11,0.04c0,0-0.18,0.15-0.15-0.15
	c0.04-0.29,0-0.65,0-0.65v-0.18c0-0.07,0.18-0.36,0-0.44c-0.18-0.07-0.58-0.25-0.58-0.25s-0.04,0,0-0.07
	c0.04-0.07,0.07-0.22,0.07-0.22l-0.07-0.33l0.07-0.4c0,0,0.07,0-0.07-0.15c-0.15-0.15-0.43-0.33-0.43-0.33l-0.11-0.04l-0.52-0.12
	l0.18-0.11l0.15-0.18c0,0,0.11-0.22,0.15-0.25c0.04-0.04,0.18-0.22,0.18-0.22s0-0.11,0.04-0.15c0.04-0.04,0.11-0.22,0.11-0.22
	l0.11-0.25l0.07-0.15l0.07-0.04l0.07-0.11l0.11-0.18l0.15-0.15l0.07-0.11h0.07h0.25l0.11-0.04c0,0-0.04,0,0.11-0.15
	c0.15-0.15,0.18-0.22,0.18-0.22l0.15-0.07l0.07,0.04l0.29,0.11h0.18c0,0,0.22-0.11,0.25-0.15c0.04-0.04,0.36-0.18,0.36-0.18h0.07
	c0.04,0,0.4,0.07,0.4,0.07h0.15c0,0,0.07,0.04,0.07,0s0.18-0.25,0.18-0.25s0.04-0.07,0.07-0.11s0.18-0.18,0.18-0.18l0.25-0.11
	c0,0,0.22,0.15,0.22,0.18s0.07,0.11,0.11,0.22c0.04,0.11,0.07,0.22,0.11,0.25c0.04,0.04,0,0.07,0.07,0.07
	c0.07,0,0.22-0.04,0.22-0.04l0.07-0.15v-0.15c0-0.15,0.04-0.25,0-0.29c-0.04-0.04-0.07-0.18-0.07-0.18s0-0.11-0.11-0.15
	c-0.11-0.04-0.25-0.11-0.25-0.11s-0.11-0.11-0.15-0.15c-0.04-0.04-0.07-0.11-0.11-0.15c-0.04-0.04-0.07-0.07-0.15-0.07
	c-0.07,0-0.25,0.04-0.25,0.04s-0.04-0.07-0.15,0c-0.11,0.07-0.43,0.11-0.43,0.11h-0.29l-0.43-0.04c0,0,0.15-0.07-0.07-0.04
	c-0.22,0.04-0.25,0-0.33,0.04c-0.07,0.04-0.04-0.04-0.15,0.07c-0.11,0.11-0.36,0.11-0.36,0.11s0.04,0.11-0.11,0.04
	c-0.15-0.07-0.25-0.11-0.25-0.11l-0.33-0.11l-0.07-0.11v-0.15l-0.07-0.07l-0.36-0.15c0,0-0.07-0.07-0.07-0.15v-0.18
	c0,0,0.04-0.07,0.07-0.11c0.04-0.04,0.04-0.18,0.04-0.18v-0.15c0-0.04,0-0.18,0.04-0.22s-0.07-0.11,0.07-0.18
	c0.15-0.07,0.33-0.18,0.36-0.18c0.04,0,0.07-0.04,0.15-0.04c0.07,0,0.33-0.07,0.36-0.11c0.04-0.04,0.11-0.25,0.18-0.29
	c0.07-0.04,0.22-0.25,0.25-0.25c0.04,0,0-0.07,0.15-0.15c0.15-0.07,0.25-0.18,0.33-0.18c0.07,0,0.22-0.07,0.22-0.07l0.4-0.11
	l0.07-0.04l0.33-0.15l0.18-0.04l0.22-0.36c0,0,0.04-0.04,0.07-0.11c0.04-0.07,0.11-0.18,0.11-0.18l0.22-0.47l0.29-0.36l-0.15-0.43
	l0.07-0.22c0,0,0.07-0.07,0.11-0.07c0.04,0,0.4,0.04,0.4,0.04l0.29,0.11h0.29c0.15,0,0.43,0.04,0.43,0.04l0.43,0.07
	c0,0,0.15-0.04,0.25,0.04c0.11,0.07,0.15,0.11,0.22,0.18c0.07,0.07,0.18,0.22,0.25,0.29c0.07,0.07,0.15,0.11,0.25,0.18
	c0.11,0.07,0.25,0.15,0.25,0.15s0.11-0.22,0.11-0.29c0-0.07-0.04-0.15-0.04-0.18v-0.25V51.6c0-0.04,0.18-0.11,0-0.15
	c-0.18-0.04-0.25-0.07-0.29-0.07c-0.04,0-0.36-0.07-0.36-0.07s-0.29-0.15-0.33-0.18s-0.15-0.22-0.15-0.22s-0.18-0.15-0.18-0.18
	s0-0.15-0.15-0.22c-0.15-0.07-0.25-0.15-0.25-0.15v-0.15l0.07-0.11l0.22-0.11l0.4-0.11l0.18-0.04c0,0,0.15-0.07,0.25-0.07h0.33
	c0.04,0,0.11,0.04,0.25,0.11c0.15,0.07,0.07,0.07,0.15,0.07h0.33l0.07-0.04l0.04-0.11c0,0-0.04-0.07,0.04-0.25
	c0.07-0.18,0.11-0.25,0.11-0.25l0.11-0.07l0.18-0.15l0.15-0.29c0,0-0.04-0.04-0.29-0.04c-0.25,0-0.62,0.07-0.62,0.07l-0.15,0.07
	l-0.61,0.36l-0.44-0.11l-0.25-0.04l-0.11,0.07c0,0-0.15-0.22-0.22-0.22h-0.36l-0.04,0.15l-0.43,0.36v-0.18l-0.72-0.25h-0.4
	l0.04-0.11l0.04-0.33l0.04-0.25v-0.4v-0.33v-0.29l-0.25-0.18h-0.4l-0.36-0.25l0.04-0.25c0,0,0-0.25,0.18-0.25
	c0.18,0,0.4-0.04,0.4-0.04s0.07,0,0.22,0.04c0.15,0.04,0.25,0.04,0.25,0.04s0-0.04,0.11,0.04c0.11,0.07,0.36,0.07,0.36,0.07h0.15
	h0.11l0.4-0.07c0,0,0.11-0.04,0.18-0.04h0.43l0.4-0.11l0.04-0.15l0.02-0.05l0.41,0.02l0.15-0.04c0,0,0.11-0.11,0.11-0.15v-0.07
	l0.15-0.18c0,0,0.25-0.15,0.29-0.22c0.04-0.07,0.22-0.07,0.25-0.15c0.04-0.07,0.25-0.04,0.25-0.04h0.25l0.36-0.04l0.07-0.07
	l0.29-0.11c0,0,0.18,0,0.22-0.04s0.25-0.07,0.33-0.11c0.07-0.04,0.18-0.11,0.25-0.18s0.11-0.04,0.15-0.11
	c0.04-0.07,0.07-0.11,0.18-0.22c0.11-0.11,0-0.11-0.07-0.25c-0.07-0.15,0-0.18,0-0.25c0-0.07,0.07-0.18,0.07-0.25
	c0-0.07,0.07-0.18,0.11-0.25c0.04-0.07,0.15-0.18,0.11-0.29c-0.04-0.11,0.11-0.18,0.15-0.33c0.04-0.15,0.43-0.07,0.43-0.07
	s0.22-0.07,0.33-0.07s0.18-0.07,0.47-0.18c0.29-0.11,0.25-0.07,0.25-0.07l0.4,0.29l0.11,0.04c0,0,0.29,0.07,0.33,0.07
	c0.04,0,0.22-0.18,0.29-0.18c0.07,0,0.11,0.04,0.18,0.11c0.07,0.07,0.11,0.15,0.18,0.25c0.07,0.11,0,0.15,0,0.15
	s0.47-0.22,0.51-0.18c0.04,0.04,0.29,0.29,0.29,0.29s-0.07,0.51-0.11,0.51c-0.04,0-0.07,0.29-0.07,0.33s0.22,0.33,0.22,0.33
	s0.15,0.18,0.11,0.25c-0.04,0.07,0,0.15,0,0.15h0.51c0.07,0,0.11,0.07,0.15,0.11c0.04,0.04,0.22,0.15,0.25,0.15s0.11,0.15,0.11,0.15
	s0.04-0.04,0.07-0.07c0.04-0.04,0.11-0.11,0.11-0.11v-0.25c0-0.04,0.11-0.04,0.22-0.11c0.11-0.07,0.11,0.07,0.25,0.11
	c0.15,0.04,0.11,0.04,0.11,0.04s0.25-0.11,0.29-0.18c0.04-0.07,0.11-0.11,0.18-0.18s0.07,0.04,0.07,0.04l0.4,0.18l0.22-0.18
	c0,0,0.4,0.18,0.43,0.22c0.04,0.04,0.29,0.04,0.29,0.04s0.29-0.22,0.29-0.25c0-0.04,0.11-0.22,0.11-0.25s0.25,0,0.25,0
	s0.43-0.11,0.47-0.15c0.04-0.04,0.07-0.07,0.07-0.07l0.07-0.11c0,0,0.11,0.04,0.15,0.07c0.04,0.04,0.11,0.04,0.11,0.04l0.18-0.04
	l0.29-0.11l0.25,0.29l0.15,0.25l-0.04,0.33c0,0,0.04,0.15,0,0.25c-0.04,0.11,0,0.18,0,0.18s0.11,0.25,0.15,0.29
	c0.04,0.04,0.18,0.36,0.18,0.36s0.04,0.18,0.04,0.22c0,0.04-0.04,0.25-0.07,0.29c-0.04,0.04,0,0.15,0,0.18s0.29,0.22,0.29,0.29v0.11
	l0.58,0.07l0.33-0.25l0.15,0.15c0,0,0.18,0.22,0.18,0.29c0,0.07,0.07,0.18,0.07,0.18s0.29,0.25,0.29,0.36v0.11l0.47,0.04l0.25,0.07
	l0.33-0.04c0,0,0.36-0.07,0.4-0.15c0.04-0.07,0.11-0.04,0.15-0.18s0.04-0.15,0.04-0.29c0-0.15-0.04-0.22-0.04-0.25v-0.25
	c0-0.04,0.15-0.22,0.15-0.22l0.33-0.04l0.11,0.22l0.22,0.15c0,0,0.33,0.07,0.4,0.07c0.07,0,0.07,0.07,0.07,0.22v0.29
	c0,0.11,0.25,0.11,0.29,0.07c0.04-0.04,0.07-0.04,0.11-0.18c0.04-0.15,0.07-0.11,0.11-0.22c0.04-0.11,0-0.11,0-0.15
	s0.15-0.07,0.18-0.11c0.04-0.04,0.11-0.11,0.11-0.11l-0.07-0.15c0,0,0-0.07-0.04-0.11c-0.04-0.04-0.07-0.15-0.15-0.22
	c-0.07-0.07-0.04-0.11-0.04-0.11l0.18-0.18c0.04-0.04,0.04-0.15,0.04-0.15s0.36,0,0.4-0.04s0.18,0.11,0.18,0.11s0.11,0.25,0.11,0.29
	v0.15c0,0.04,0.11,0.07,0.11,0.11c0,0.04,0.15,0.04,0.22,0.04c0.07,0,0-0.11,0-0.11s0.11-0.18,0.11-0.22c0-0.04,0.18-0.15,0.22-0.18
	c0.04-0.04,0.25,0.07,0.25,0.07s0.11,0.18,0.11,0.22s0.18,0.36,0.18,0.36l0.33,0.33c0,0,0.25,0,0.4-0.07
	c0.15-0.07,0.22,0.18,0.29,0.25c0.07,0.07,0.22,0.18,0.22,0.22c0,0.04,0.15,0,0.15,0s0.36-0.04,0.4-0.07s0.29-0.07,0.29-0.07
	l0.36-0.25h0.36l0.4,0.04L87.66,47.39"/>
<g>
	<path class="st0" d="M79.47,65.78v0.11l0.18,0.94l0.36,0.4v0.94l0.29,1.44l0.61,0.47l0.47,0.65l0.33,0.79c0,0,0.29,0.47,0.33,0.65
		s0.15,0.25,0.18,0.44s0.15,0.18,0.15,0.18s0.43,0.18,0.62,0.33c0.18,0.15,0.22,0.51,0.22,0.51s0.18,0.51,0.18,0.65
		s-0.25,0.58-0.25,0.58l-0.54,0.47l0,0l-0.25,0.04c0,0-0.07-0.22-0.11-0.18c-0.04,0.04-0.25,0.18-0.25,0.18l-0.15,0.22l-0.07,0.18
		l-0.18,0.18l-0.22,0.04l-0.29,0.04l-0.18,0.22l-0.04,0.15l-0.11,0.15l-0.15,0.11l-0.33-0.04l-0.33-0.15c0,0-0.22-0.07-0.22-0.11
		c0-0.04-0.18-0.29-0.18-0.29l-0.15-0.36l-0.18,0.11L79,75.85c0,0-0.11,0.15-0.11,0.22s-0.07,0.22-0.07,0.25
		c0,0.04-0.11,0.25-0.11,0.29c0,0.04-0.04,0.22-0.04,0.25c0,0.04,0.15,0.22,0.15,0.22l0.11,0.22l0.18,0.22c0,0,0.07,0.25,0.11,0.25
		s0.33,0.15,0.33,0.15l0.18,0.11c0,0,0.04,0.15,0.07,0.15c0.04,0,0,0.11,0,0.15s-0.04,0.15-0.04,0.15s0.07,0.04,0.07,0.07
		c0,0.04,0.15,0.11,0.15,0.11h0.25h0.25l0.36-0.11l0.33-0.18l0.22-0.36L82,78.09l0.22,0.11l0.33-0.18l0.22-0.07l0.22,0.29
		c0,0-0.04,0.25-0.07,0.33c-0.04,0.07-0.18,0.4-0.18,0.47v0.22c0,0.07-0.11,0.25-0.11,0.29c0,0.04-0.25,0.07-0.25,0.11v0.22
		c0,0.04-0.04,0.15-0.04,0.15l-0.15,0.15l-0.07,0.11v0.25c0,0.04-0.04,0.44-0.04,0.44l-0.36,0.18c0,0-0.18,0.18-0.18,0.22
		s-0.22,0.11-0.25,0.11c-0.04,0-0.33-0.04-0.36-0.07c-0.04-0.04-0.36-0.25-0.36-0.33c0-0.07-0.29-0.36-0.29-0.36s0,0.11-0.07,0.18
		c-0.07,0.07-0.22,0.15-0.22,0.15l-0.07,0.15l-0.25,0.07v0.22c0,0-0.07,0.15-0.07,0.18s-0.04,0.11-0.04,0.11s-0.15,0.11-0.15,0.15
		s-0.04,0.11-0.07,0.18s-0.07,0.11-0.07,0.11v0.33l-0.14,0.13l0.04,0.15c0,0,0.15,0.18,0.18,0.22s0.11,0.11,0.11,0.11
		s-0.07,0.18-0.04,0.25c0.04,0.07,0.15,0.29,0.11,0.33s-0.18,0.15-0.22,0.15s-0.36-0.04-0.36-0.07s-0.18-0.29-0.25-0.33
		c-0.07-0.04-0.4-0.15-0.4-0.15l-0.33,0.11c0,0-0.15-0.07-0.18-0.15c-0.04-0.07-0.18-0.51-0.18-0.51l0.07-0.43l0.22-0.36
		c0,0,0.11-0.07,0.15-0.15c0.04-0.07,0.07-0.07,0.04-0.15c-0.04-0.07-0.15-0.29-0.15-0.29l-0.04-0.25l0.15-0.15l0.29-0.15l0.22-0.29
		c0,0-0.04-0.18-0.04-0.22s-0.15-0.25-0.15-0.25l-0.11-0.22l-0.04-0.18v-0.11l-0.04-0.25l-0.25-0.22c0,0-0.15-0.11-0.18-0.11
		s-0.25-0.15-0.25-0.15v-0.25c0-0.04,0.04-0.29,0.04-0.29l0.04-0.18l-0.07-0.36l-0.15-0.36c0,0-0.15-0.15-0.15-0.18
		s-0.07-0.18-0.07-0.18l-0.22,0.04l-0.15,0.07c0,0-0.04,0.11-0.04,0.15s0,0.22,0.04,0.22s0.04,0.15,0.04,0.15l0.04,0.11l-0.15,0.07
		l-0.33,0.11c0,0-0.18-0.04-0.22,0c-0.04,0.04-0.18,0.15-0.18,0.15l-0.11,0.04l-0.25-0.15c0,0-0.15,0-0.18,0.04
		s-0.18,0.07-0.18,0.07l-0.25,0.04l-0.33-0.04c0,0-0.22,0-0.22,0.04c0,0.04-0.04,0.11-0.04,0.15c0,0.04-0.04,0.11,0.04,0.15
		c0.07,0.04,0.18,0.15,0.22,0.15s0.29,0.11,0.29,0.11l0.07,0.11l-0.04,0.11c0,0-0.11,0.04-0.18,0.07c-0.07,0.04-0.18,0.04-0.22,0.07
		s-0.15,0.11-0.15,0.11s-0.29,0.25-0.25,0.25c0.04,0,0.04,0.15,0.04,0.15s0.07,0.07,0.11,0.11c0.04,0.04,0.15,0.07,0.15,0.07
		s0.04,0.07,0.07,0.11c0.04,0.04,0.04,0.07,0.04,0.11c0,0.04,0.04,0.07-0.04,0.11c-0.07,0.04-0.18,0.07-0.18,0.07l-0.18,0.04
		c0,0,0-0.04-0.04,0s-0.04,0-0.04,0.04s-0.07,0.11-0.07,0.15s-0.04,0.15-0.04,0.15v0.07c0,0.04-0.04,0.29-0.04,0.29
		s-0.04,0.15,0,0.18s0.04,0.15,0.07,0.18c0.04,0.04,0.25,0.15,0.25,0.18s0.18,0.07,0.22,0.11c0.04,0.04,0.22,0.15,0.22,0.15
		l0.18,0.25l0.15,0.22l0.11,0.15l0.15-0.07l0.07-0.04c0,0,0.15-0.04,0.15,0c0,0.04,0.15,0.15,0.15,0.18c0,0.04,0.04,0.07,0.04,0.11
		c0,0.04,0.04,0.07,0.04,0.07v0.11c0,0.04,0,0.07,0.04,0.11c0.04,0.04,0.07,0.15,0.11,0.15c0.04,0,0.15,0.11,0.15,0.11l0.04,0.07
		v0.11l-0.11,0.11l-0.07,0.11l0.04,0.11l0.15,0.18c0,0,0.07,0.07,0.11,0.11c0.04,0.04,0.07,0.18,0.07,0.18l0.07,0.22v0.18
		c0,0-0.04,0.15-0.04,0.18v0.15l-0.15,0.11l-0.33,0.11l-0.18-0.15l-0.15-0.15c0,0-0.11-0.07-0.15,0c-0.04,0.07-0.22,0.11-0.22,0.11
		s-0.11-0.04-0.15-0.04c-0.04,0-0.29-0.11-0.29-0.11s-0.18-0.15-0.22-0.15h-0.22l-0.15,0.07L74,84.64v0.22v0.22l0.15,0.07
		c0,0,0.29,0.15,0.33,0.15s0.29,0.11,0.29,0.11s0.07,0,0.07,0.07v0.15l-0.07,0.15l-0.11,0.15c0,0,0,0.07-0.04,0.15
		c-0.04,0.07-0.18,0.15-0.18,0.18s-0.15,0.11-0.15,0.11s-0.15,0.04-0.15,0.07S74,86.56,74,86.56l-0.29,0.07l-0.15,0.29l-0.07,0.15
		c0,0-0.18,0.11-0.18,0.15c0,0.04-0.04,0.15,0,0.18c0.04,0.04,0,0.22,0,0.22l-0.15,0.04c0,0-0.25-0.07-0.29-0.07
		c-0.04,0-0.25-0.07-0.29-0.07c-0.04,0-0.18-0.04-0.18,0.04s-0.04,0.18-0.04,0.22v0.15c0,0.04-0.15,0.18-0.15,0.18l-0.18-0.07
		c0,0-0.18-0.04-0.18-0.07s-0.11-0.18-0.11-0.22s0-0.29-0.07-0.33c-0.07-0.04-0.11-0.15-0.18-0.15c-0.07,0-0.22-0.07-0.22-0.07
		s-0.04,0-0.04-0.04v-0.25c0-0.11-0.04-0.29-0.04-0.33s-0.18-0.33-0.18-0.33s-0.07-0.11-0.15-0.11c-0.07,0-0.29-0.04-0.29-0.04
		s-0.15-0.07-0.18-0.11c-0.04-0.04-0.25-0.15-0.25-0.15h-0.18c0,0-0.18-0.04-0.22-0.04s-0.33-0.25-0.33-0.25s-0.15,0-0.18,0.04
		s-0.22,0.11-0.22,0.11s-0.15,0.07-0.18,0.07h-0.25c-0.07,0-0.25-0.11-0.25-0.11s-0.15-0.15-0.15-0.18s-0.07-0.18-0.11-0.22
		c-0.04-0.04-0.22-0.11-0.22-0.15s0.07-0.33,0.07-0.33l0.11-0.15l0.33-0.15l0.25-0.15l0.15-0.33l0.15-0.18c0,0,0.07-0.04,0.15-0.07
		l0.07-0.04l0.04-0.15l0.29-0.4l0.25-0.25c0,0,0.04-0.04,0.11,0.04c0.07,0.07,0.11,0.25,0.11,0.29c0,0.04-0.04,0.18-0.04,0.18
		l-0.07,0.25l-0.07,0.15v0.22l0.07,0.15c0,0,0.07,0.11,0.15,0.11c0.07,0,0.18-0.11,0.22-0.11s0.18,0,0.18-0.04s0.11-0.11,0.11-0.11
		s0.15-0.36,0.18-0.36s0.18-0.29,0.18-0.29l0.04-0.29V82.9l-0.11-0.11l-0.15-0.22v-0.22c0-0.04,0.07-0.33,0.07-0.33l0.11-0.11
		c0,0,0.11-0.15,0.11-0.18s0.04-0.33,0.04-0.33l0.18-0.25l0.29-0.15l0.18,0.04c0,0,0.11,0.07,0.11,0.11c0,0.04,0.04,0.22,0.04,0.22
		l0.04,0.29v0.18v0.22l0.07,0.18c0,0,0.07,0.11,0.11,0.11c0.04,0,0.33,0,0.36-0.04s0.33-0.07,0.33-0.11c0-0.04,0.18-0.15,0.18-0.15
		s0.11-0.33,0.11-0.36c0-0.04,0.04-0.33,0.04-0.33l0.07-0.25v-0.18l-0.04-0.29l-0.15-0.29l-0.18-0.18h-0.29l-0.18,0.22l-0.22,0.04
		l-0.29-0.07l-0.18-0.07l-0.15-0.33l-0.18-0.04l-0.29-0.04l-0.36,0.25l-0.11,0.18l-0.07,0.22l-0.11,0.36c0,0-0.07,0.11-0.07,0.15
		c0,0.04-0.15,0.15-0.15,0.15l-0.29,0.15l-0.18,0.11l-0.33-0.07c0,0-0.33-0.11-0.36-0.11s-0.18-0.11-0.22-0.11s-0.25,0.11-0.29,0.11
		c-0.04,0-0.25,0.22-0.29,0.25c-0.04,0.04-0.18,0.18-0.18,0.18s-0.36,0.04-0.4,0.04c-0.04,0-0.25,0.11-0.29,0.15
		s-0.25,0.18-0.25,0.18l-0.04,0.22l-0.11,0.11l-0.15,0.11l-0.15,0.11l-0.36,0.04c0,0-0.11,0-0.18,0.04s-0.18,0.07-0.18,0.07
		l-0.22,0.04l-0.11,0.11l-0.04,0.11c0,0-0.04,0.07,0,0.11s0.04,0.07,0.04,0.07l0.07,0.18l-0.07,0.15c0,0-0.11,0.11-0.11,0.15
		s-0.07,0.11-0.07,0.11s-0.11,0.07-0.11,0.11c0,0.04-0.11,0.22-0.11,0.22v0.15l0.04,0.15c0,0,0.04,0.07,0.07,0.07
		c0.04,0,0.11,0.04,0.11,0.07v0.07c0,0-0.15,0.33-0.15,0.36c0,0.04-0.15,0.11-0.15,0.11h-0.18c0,0-0.07,0.04-0.11,0.04
		s-0.15,0.07-0.15,0.07l-0.04,0.11v0.07l0.07,0.18v0.15c0,0.04-0.04,0.11-0.04,0.11l-0.04,0.11v0.07l0.07,0.18l0.07,0.11l0.04,0.11
		v0.11v0.04l-0.04,0.18l-0.15,0.04h-0.11c-0.04,0-0.11-0.04-0.15-0.07s-0.11-0.11-0.11-0.07s-0.07,0.18-0.07,0.18s0,0.07-0.04,0.11
		c-0.04,0.04-0.07,0.07-0.07,0.15c0,0.07-0.04,0.15-0.04,0.18s-0.15,0.11-0.15,0.11h-0.15l-0.25-0.15c0,0-0.07-0.07-0.11-0.07
		c-0.04,0-0.15-0.04-0.15-0.04h-0.07l-0.29-0.04l-0.22,0.04c0,0-0.07,0.07-0.07,0.15v0.22l-0.04,0.18c0,0-0.15,0-0.18-0.04
		s-0.29-0.07-0.29-0.11c0-0.04-0.15-0.11-0.18-0.18c-0.04-0.07-0.07-0.22-0.15-0.22c-0.07,0-0.25-0.04-0.25-0.04
		s-0.36-0.04-0.36-0.07s-0.11-0.18-0.11-0.22s-0.11-0.18-0.15-0.18c-0.04,0-0.18-0.07-0.18-0.07s-0.07-0.15-0.07-0.18v-0.22
		l0.15-0.36l0.04-0.36l0.07-0.51l0.07-0.29l0.15-0.69v-0.43l-0.08-0.35l-0.11-0.33c0,0,0.04-0.11,0-0.15s-0.18-0.15-0.18-0.15
		l-0.22,0.15l-0.22,0.15v0.25c0,0.04,0.11,0.47,0.11,0.47l-0.04,0.58l0.11,0.9l-0.04,0.18l-0.15,0.25l-0.18,0.33
		c0,0-0.11,0.07-0.15,0.11c-0.04,0.04-0.11,0.22-0.11,0.22l-0.18,0.11l-0.43,0.04h-0.25c0,0-0.15,0.04-0.15,0.11
		c0,0.07,0.04,0.22,0.07,0.25c0.04,0.04,0.15,0.15,0.15,0.18c0,0.04,0.07,0.15,0.07,0.18v0.18l-0.07,0.07l-0.36-0.04l-0.18-0.11
		l-0.07,0.11l-0.07,0.11l0.04,0.25c0,0-0.15,0.07-0.18,0.07c-0.04,0-0.25-0.04-0.25-0.04l-0.15,0.04l-0.36,0.25l-0.22,0.18
		l-0.04,0.15h-0.18l-0.11,0.18l-0.18,0.11l0.04,0.22l-0.04,0.07l0.04,0.25l-0.18,0.11l-0.11,0.18l-0.15,0.15l-0.11,0.18
		c0,0-0.11,0.11-0.11,0.15s-0.04,0.07-0.04,0.11c0,0.04,0.04,0.15,0.04,0.15l-0.04,0.18l-0.25,0.07c0,0-0.22,0-0.25-0.04
		c-0.04-0.04-0.15-0.11-0.18-0.11s-0.22,0-0.22,0.04s-0.11,0.15-0.11,0.18s-0.15,0.07-0.15,0.07l-0.25-0.04l-0.15-0.07L54.48,90
		c0,0,0.04-0.25,0.07-0.33c0.04-0.07,0.07-0.4,0.07-0.4s0.07-0.15,0.04-0.18c-0.04-0.04-0.18-0.18-0.18-0.18l-0.33-0.07l-0.47-0.04
		l-0.15-0.18l0.04-0.25l0.22-0.25c0,0,0.22-0.11,0.25-0.15c0.04-0.04,0.15-0.33,0.15-0.33l0.15-0.18l0.22-0.22l0.04-0.22l-0.07-0.15
		c0,0-0.11-0.04-0.25,0c-0.15,0.04-0.43-0.11-0.43-0.11l-0.18-0.22v-0.15l0.07-0.18l0.07-0.11l0.07-0.11v-0.07l-0.11-0.36
		c0,0-0.04-0.15,0-0.22c0.04-0.07,0.07-0.22,0.07-0.22l0.04-0.11l0.07-0.18c0,0,0.04-0.07-0.07-0.18c-0.11-0.11-0.22-0.22-0.22-0.22
		s-0.15-0.22-0.15-0.25c0-0.04-0.18-0.15-0.18-0.15l-0.04-0.18c0,0-0.15-0.18-0.15-0.22c0-0.04-0.18-0.15-0.18-0.15l-0.11,0.18
		l-0.07,0.15l-0.25,0.04l-0.22,0.07l-0.15,0.04l-0.11-0.15c0,0-0.07,0-0.07-0.11s0.04-0.25,0.04-0.25l-0.22-0.33l-0.51-0.25
		l-0.36,0.11l-0.15-0.25l-0.25-0.33l-0.15-0.15l-0.18-0.22c0,0-0.04-0.33,0-0.36c0.04-0.04,0.07-0.25,0.07-0.25v-0.11
		c0-0.04-0.22-0.22-0.22-0.22l-0.15-0.11c0,0-0.18-0.04-0.15-0.11c0.04-0.07-0.07-0.25,0-0.29c0.07-0.04,0.07-0.22,0.07-0.22v-0.36
		l-0.11-0.18l0.07-0.11l0.18-0.43c0,0,0.11-0.07,0.22-0.11c0.11-0.04,0.22-0.07,0.22-0.07v-0.61l0.25-0.54c0,0,0.29,0.07,0.33,0.18
		s0.11,0.22,0.18,0.36c0.07,0.15,0.18,0.4,0.25,0.4c0.07,0,0.25,0.61,0.25,0.61l-0.04,0.29c0,0,0.04,0.33,0,0.36
		c-0.04,0.04-0.04,0.36-0.04,0.36s0.33,0.4,0.33,0.44c0,0.04,0.04,0.11,0.07,0.25c0.04,0.15,0.11,0.22,0.15,0.29
		c0.04,0.07,0.25,0.47,0.33,0.51c0.07,0.04,0.18,0.07,0.25,0.11c0.07,0.04,0.15,0.11,0.22,0.15c0.07,0.04,0.25,0.15,0.25,0.15
		l0.18,0.11c0,0,0.29-0.07,0.25-0.18c-0.04-0.11-0.11-0.25-0.11-0.25l-0.11-0.11c0,0-0.04-0.22-0.07-0.25
		c-0.04-0.04-0.07-0.07-0.11-0.18c-0.04-0.11-0.04-0.29-0.04-0.29s-0.07-0.04-0.18-0.11l-0.11-0.07l-0.11,0.04c0,0-0.15,0-0.18-0.07
		s-0.04-0.11-0.04-0.15s-0.11-0.11-0.18-0.22c-0.07-0.11-0.22-0.25-0.22-0.25v-0.25l0.07-0.29v-0.33c0-0.07,0.07-0.22,0.07-0.22
		s-0.15-0.18,0.11-0.15c0.25,0.04,0.4-0.04,0.51,0.07c0.11,0.11,0.25,0.22,0.33,0.25c0.07,0.04,0.29,0.18,0.33,0.22
		c0.04,0.04,0.29,0.11,0.33,0.11c0.04,0,0.43,0.04,0.43,0.11c0,0.07,0.11,0.07,0.15,0.33c0.04,0.25,0.07,0.43,0.11,0.47
		c0.04,0.04,0.15,0.22,0.15,0.22s0.07,0.15,0.07,0.22s0.11,0.18,0.11,0.18l0.15-0.44v-0.22c0,0-0.11-0.22,0.15,0
		c0.25,0.22,0.29,0.33,0.29,0.33s0.07,0.07,0.15,0.04c0.07-0.04,0.33-0.07,0.33-0.07l0.07-0.07v-0.15l-0.22-0.18l-0.39-0.29
		l-0.18-0.22l-0.22-0.29l-0.15-0.29l-0.25-0.11l-0.15-0.07c-0.04,0-0.36-0.07-0.36-0.07l-0.29-0.07l-0.25-0.14
		c0,0-0.33-0.15-0.44-0.18c-0.11-0.04-0.36-0.18-0.36-0.18l-0.22-0.11l-0.25-0.11l-0.15-0.15l0.04-0.25c0,0-0.04-0.07,0-0.15
		c0.04-0.07,0.15-0.22,0.15-0.22l0.15-0.11v-0.29v-0.22c0-0.04-0.04-0.29-0.04-0.29s-0.04-0.04,0.04-0.15s0.25-0.33,0.25-0.33
		l0.15-0.11l0.18-0.15l0.25-0.15l0.04-0.25c0,0-0.04-0.07-0.04-0.11c0-0.04-0.07-0.25-0.07-0.25l-0.11-0.51c0,0,0.04-0.15,0.04-0.22
		c0-0.07,0.04-0.36,0.04-0.36v-0.25v-0.18l-0.04-0.22v-0.18l0.04-0.25v-0.15c0,0,0-0.22-0.04-0.29c-0.04-0.07-0.11-0.22-0.11-0.22
		l-0.07-0.11l-0.07,0.04l-0.15,0.07c0,0-0.07,0-0.07,0.07s-0.07,0.18-0.07,0.22s-0.04,0.18-0.04,0.25c0,0.07-0.04,0.15-0.04,0.25
		v0.29c0,0.04-0.04,0.15-0.04,0.15s-0.04,0-0.15,0.07c-0.11,0.07-0.22,0.07-0.22,0.07l-0.25-0.11l-0.04-0.22l-0.15-0.15
		c0,0-0.11-0.04-0.18,0s-0.22,0.04-0.22,0.04l-0.07-0.18c0,0,0-0.11,0.04-0.18s0.15-0.22,0.15-0.22l-0.07-0.15l-0.04-0.22l0.04-0.11
		c0,0-0.04-0.11,0.07-0.11c0.11,0,0.25-0.04,0.33,0c0.07,0.04,0.22,0.04,0.22,0.04l0.18-0.07l0.15-0.25l-0.11-0.29l0.07-0.15
		c0,0,0.07-0.07,0.18-0.07c0.11,0-0.07-0.07,0.29-0.15c0.36-0.07,0.44-0.11,0.44-0.11s-0.04-0.04,0-0.07s0.15-0.15,0.15-0.15
		l0.04-0.25l-0.29-0.11c-0.11-0.04-0.36-0.18-0.36-0.18l-0.18-0.33c0,0-0.25-0.18-0.25-0.22c0-0.04,0.22-0.22,0.22-0.22l0.43-0.04
		h0.11c0.07,0,0.29,0.04,0.33,0.04s0.22,0,0.29,0.04c0.07,0.04,0.29,0.25,0.29,0.25v0.25c0,0.04-0.07,0.04-0.07,0.07
		s-0.04,0.22-0.04,0.22l0.22,0.33h0.15c0,0,0-0.15,0.07-0.29c0.07-0.15,0.18-0.29,0.18-0.29s0.15-0.07,0.22-0.11
		c0.07-0.04,0.22-0.29,0.22-0.29l-0.15-0.15c0,0-0.07-0.11,0-0.15c0.07-0.04,0.11-0.18,0.11-0.18s0.04-0.04,0.04-0.11
		c0-0.07-0.04-0.22-0.15-0.22c-0.11,0-0.29,0.04-0.29,0.04s-0.33-0.07-0.33-0.15c0-0.07-0.04-0.33-0.04-0.33s-0.04-0.22-0.07-0.25
		c-0.04-0.04-0.18-0.18-0.22-0.22c-0.04-0.04-0.07-0.07-0.11-0.11c-0.04-0.04-0.11-0.07-0.11-0.11s-0.04-0.18-0.04-0.18l-0.18-0.33
		c0,0-0.04-0.07-0.07-0.15c-0.04-0.07-0.15-0.15-0.15-0.15l-0.07-0.11c0,0-0.07-0.04,0-0.11c0.07-0.07,0.07-0.11,0.11-0.15
		c0.04-0.04,0.15-0.11,0.15-0.11l0.15-0.15c0,0,0.04-0.18,0.04-0.22s-0.07-0.15-0.07-0.15h-0.4l-0.29-0.15l-0.11-0.04l-0.43,0.07
		l-0.11-0.04c0,0,0.07-0.33,0.07-0.36c0-0.04,0.04-0.44,0.04-0.44l0.22-0.11l0.22,0.07c0,0,0-0.04,0.04-0.07
		c0.04-0.04,0.07-0.18,0.07-0.18v-0.25v-0.22l0.11-0.18L53,64.29l0.15-0.07l0.33-0.07c0,0,0-0.04,0.04-0.04
		c0.04,0,0.18-0.11,0.18-0.18c0-0.07,0.04-0.22,0.04-0.22s0.07-0.11,0.11-0.15c0.04-0.04,0.07-0.25,0.07-0.25s0-0.18,0.04-0.22
		c0.04-0.04,0.04-0.25,0.04-0.25s0.04-0.11,0.07-0.15s0.18-0.22,0.18-0.22l0.15-0.18l0.04-0.04l0.18-0.04l0.15,0.07
		c0,0,0.18,0.11,0.22,0.11c0.04,0,0.07,0.11,0.15,0.07c0.07-0.04,0.25-0.11,0.25-0.11s0.04-0.11,0-0.15s-0.33-0.15-0.33-0.15
		s-0.07,0-0.07-0.07c0-0.07-0.04-0.15-0.04-0.18c0-0.04-0.04-0.18-0.04-0.18l-0.11-0.15l0.04-0.36l0.22-0.18
		c0,0,0.11-0.07,0.18-0.15c0.07-0.07,0.18-0.18,0.18-0.18l0.54,0.11l0.11,0.04c0,0,0.29,0.18,0.43,0.33
		c0.15,0.15,0.07,0.15,0.07,0.15l-0.07,0.4l0.07,0.33c0,0-0.04,0.15-0.07,0.22c-0.04,0.07,0,0.07,0,0.07s0.4,0.18,0.58,0.25
		c0.18,0.07,0,0.36,0,0.44v0.18c0,0,0.04,0.36,0,0.65s0.15,0.15,0.15,0.15l0.11-0.04c0.11-0.04,0.29,0.04,0.29,0.04l0.33,0.25
		c0,0,0.18,0.04,0.33,0s0.07-0.07,0.07-0.07s0.04-0.22-0.04-0.25c-0.07-0.04-0.15-0.29-0.22-0.4c-0.07-0.11,0.4-0.15,0.4-0.15
		s0.18,0.07,0.29,0.11c0.11,0.04,0.22,0.22,0.33,0.29c0.11,0.07,0.4,0.07,0.4,0.07s0.29-0.07,0.4-0.15c0.11-0.07,0-0.47,0-0.54
		c0-0.07,0.51,0.04,0.51,0.04s0.33-0.11,0.47-0.15c0.15-0.04,0.15-0.07,0.15-0.07l0.47-0.15c0,0-0.07-0.25-0.15-0.43
		c-0.07-0.18,0-0.15,0-0.15s0.43-0.25,0.51-0.33c0.07-0.07,0.07-0.11,0.29-0.29c0.22-0.18,0.04-0.15,0.15-0.33
		c0.11-0.18-0.04-0.11-0.04-0.11s-0.07-0.4-0.11-0.47c-0.04-0.07,0.07-0.18,0.18-0.22c0.11-0.04,0.29-0.25,0.29-0.25
		s0.4,0.04,0.51,0.07c0.11,0.04,0.18-0.04,0.18-0.04l0.29-0.36l0.36,0.15l0.29,0.33l0.62,0.29l0.25,0.11l0.11,0.04
		c0,0,0.07,0.07,0.15,0.22c0.07,0.15,0.04,0.29,0.04,0.29s0.11,0.25,0.11,0.29c0,0.04,0.04,0.29,0.04,0.29l0.36,0.18
		c0,0,0.33,0.25,0.4,0.25c0.07,0,0.33,0.11,0.33,0.11l0.22-0.11c0,0,0.11-0.18,0.15-0.29c0.04-0.11,0-0.15,0-0.15l0.11-0.18
		l0.04-0.11v-0.11l0.15-0.15c0,0,0.4-0.36,0.58-0.47c0.18-0.11,0.25,0.04,0.25,0.04l0.15,0.15c0.07,0.07,0,0.25,0,0.25l0.11,0.18
		c0,0,0.07,0.25,0.07,0.29c0,0.04,0.11,0.22,0.11,0.22l-0.04,0.22l-0.11,0.11c0,0-0.15,0.25-0.15,0.29v0.18c0,0,0.11,0.04,0.15,0
		s0.15,0.15,0.18,0.18s0.22,0.51,0.25,0.54c0.04,0.04,0,0.29,0,0.29l-0.15,0.29c0,0-0.11,0.04-0.18,0.07
		c-0.07,0.04-0.11,0.15-0.22,0.22c-0.11,0.07,0.07,0.25,0.11,0.29c0.04,0.04,0.18,0.18,0.25,0.22c0.07,0.04,0.4,0.07,0.4,0.07
		l0.25,0.25c0,0,0.54-0.11,0.62-0.15c0.07-0.04,0.69-0.36,0.69-0.36l0.43-0.33l0.18,0.07v0.29l0.36,0.04l0.25,0.18l0.07-0.15
		l0.11-0.36l0.51,0.22v0.43l0.87,0.22l0.43,0.22l0.62-0.29l0.47-0.07c0,0,0.4,0.33,0.47,0.36c0.07,0.04,0.4-0.07,0.4-0.07l0.15-0.36
		l0.29-0.51l0.25-0.25l0.47-0.07l0.43-0.04h0.58l0.4,0.43l0.54,0.54L79.47,65.78z"/>
	<path class="st0" d="M51.05,69.43c0,0-0.15-0.04-0.18-0.18c-0.04-0.15-0.11-0.33-0.11-0.36c0-0.04-0.11-0.15-0.11-0.29
		s-0.04-0.36-0.04-0.36s-0.15-0.11,0-0.18c0.15-0.07,0.43-0.29,0.43-0.29h0.18c0,0,0,0.11,0.07,0.15c0.07,0.04,0.25,0.15,0.25,0.15
		s0.11,0.04,0.18,0.04c0.07,0-0.07-0.07,0.07,0c0.15,0.07,0.18,0.15,0.18,0.15s0.18,0,0.22-0.04s0.07-0.18,0.07-0.18l0.15-0.11
		l0.15-0.07c0,0,0.07-0.07,0.07,0c0,0.07,0.07,0,0.07,0.15s0.07,0.18,0,0.25c-0.07,0.07-0.11,0.11-0.15,0.18
		c-0.04,0.07-0.15,0.11-0.15,0.18v0.18l-0.04,0.15c0,0,0.04,0.11,0.04,0.18s0.11,0.11,0.04,0.15c-0.07,0.04-0.22,0.11-0.22,0.11
		l-0.4,0.07l-0.07-0.04c0,0-0.15-0.04-0.07,0.04c0.07,0.07,0.11,0.07,0.15,0.18s0.04,0.04,0.04,0.11c0,0.07-0.22,0.18-0.22,0.18
		l-0.43,0.11c0,0-0.33-0.04-0.25-0.15c0.07-0.11,0.15-0.22,0.15-0.22L51.05,69.43z"/>
	<path class="st0" d="M50.07,69.25c0.07,0,0.15-0.04,0.18-0.04s0.15-0.11,0.15-0.11s0.04-0.04,0-0.11
		c-0.04-0.07-0.04-0.04-0.15-0.11C50.14,68.81,50,68.77,50,68.77l-0.32-0.18l-0.22-0.15c-0.11-0.04-0.4,0.15-0.4,0.15
		s0.15-0.07,0,0.11S48.7,69,48.7,69s-0.04,0.07,0,0.15c0.04,0.07,0,0.18,0.04,0.22s0,0.04,0.11,0.15c0.11,0.11,0.07,0.25,0.15,0.25
		c0.07,0,0.04-0.07,0.18,0c0.15,0.07,0.22,0.07,0.29,0.11c0.07,0.04,0.25,0.15,0.29,0.15s0.22,0.11,0.22,0.15s-0.04,0.04,0,0.07
		c0.04,0.04,0,0.07,0.07,0.22c0.07,0.15,0.29,0.4,0.29,0.4s-0.11,0.11,0.07,0.07c0.18-0.04,0.29-0.04,0.29-0.15
		c0-0.11,0.04-0.18,0.04-0.22s-0.04-0.04-0.07-0.18s-0.11-0.25-0.11-0.25s0.18-0.04,0-0.18s-0.04-0.18-0.18-0.15
		c-0.15,0.04-0.29,0.04-0.29,0.04c-0.04-0.18-0.04-0.29-0.04-0.29l-0.07-0.07L50.07,69.25z"/>
	<path class="st0" d="M48.2,67.7c0,0.04-0.29,0.33-0.29,0.43c0,0.11-0.15,0.33-0.15,0.33s0.04,0.25,0,0.43s0.04,0.25,0,0.36
		c-0.04,0.11-0.11,0.18-0.11,0.18l-0.36,0.11l0.07,0.22c0,0,0,0.04-0.07,0.11C47.22,69.93,47,69.93,47,69.93l-0.18-0.11v-0.29
		c0,0-0.07-0.11-0.15-0.11h-0.33c-0.18,0-0.18-0.11-0.18-0.11v-0.07c0-0.07-0.15-0.43-0.15-0.43s0-0.07,0.11-0.11
		c0.11-0.04,0.29-0.25,0.29-0.25s-0.07-0.15,0.07-0.15c0.15,0,0.33,0.04,0.33,0.04l0.15-0.04l0.22-0.11l0.29-0.07
		c0,0-0.11-0.07,0.04-0.25c0.15-0.18,0.07-0.15,0.15-0.18c0.07-0.04,0.29-0.11,0.33-0.11h0.22L48.2,67.7L48.2,67.7z"/>
	<path class="st0" d="M48.74,70.01c0,0-0.43-0.11-0.47-0.07c-0.04,0.04-0.07-0.04-0.07,0.04s0.07,0.22,0,0.25
		c-0.07,0.04-0.11-0.18-0.07,0c0.04,0.18,0.18,0.33,0.18,0.33l0.22,0.15c0,0,0.15-0.04,0.22,0c0.07,0.04,0.15,0,0.15,0l0.29,0.11
		v0.04c0,0,0.11-0.04,0.07-0.25c-0.04-0.22,0-0.22,0-0.22l-0.11-0.15L48.74,70.01z"/>
	<path class="st0" d="M47.98,70.73h-0.22c0,0-0.15,0-0.18,0.11c-0.04,0.11-0.15,0.07-0.15,0.15c0,0.07-0.4,0.22-0.4,0.22
		s0-0.04,0.07,0.07c0.07,0.11,0.07,0.22,0.18,0.22c0.11,0,0.33,0.04,0.36,0s0.15-0.11,0.18-0.07c0.04,0.04,0.07,0.07,0.07,0.15
		c0,0.07-0.07,0.18-0.07,0.25c0,0.07,0.07,0,0,0.07c-0.07,0.07,0.04,0.22,0.07,0.25c0.04,0.04-0.11,0.33-0.11,0.33
		s-0.07,0.07-0.07,0.11c0,0.04,0.22,0.11,0.25,0c0.04-0.11,0.11-0.18,0.15-0.22c0.04-0.04,0.15-0.07,0.15-0.07s-0.07,0.04,0.11,0.04
		c0.18,0,0.33,0.04,0.33-0.07v-0.29c0,0-0.04-0.18,0-0.22c0.04-0.04,0-0.36,0-0.36l-0.11-0.11l-0.07-0.15c0,0,0.04-0.22-0.04-0.22
		c-0.07,0-0.29-0.07-0.29-0.07L47.98,70.73z"/>
	<path class="st0" d="M46.35,73.04l-0.11-0.15l-0.33,0.04c0,0-0.04,0.18,0,0.29s0.04,0.15,0,0.22s-0.11-0.07-0.18,0
		c-0.07,0.07-0.36,0.04-0.36,0.04H45.2l-0.15,0.22l-0.18,0.15l-0.36,0.15l-0.33,0.22c0,0-0.07,0,0,0.15
		c0.07,0.15,0.33,0.25,0.43,0.25c0.11,0,0.29-0.15,0.36,0c0.07,0.15,0.29,0.4,0.29,0.4s0.04-0.04,0.22,0c0.18,0.04,0.18,0.07,0.33,0
		c0.15-0.07,0.22-0.22,0.22-0.22l0.18-0.18l0.51-0.22c0,0-0.04-0.11-0.11-0.33s-0.11-0.33-0.11-0.33s0.18,0.04,0.07-0.15
		c-0.11-0.18-0.15-0.29-0.15-0.29L46.35,73.04z"/>
	<path class="st0" d="M47.33,74.48l-0.22,0.22l-0.07,0.15c0,0,0.04,0.15,0,0.18s-0.18,0.22-0.18,0.22h-0.15l-0.22-0.11l-0.33,0.11
		c0,0-0.15,0.18-0.15,0.25c0,0.07,0.11,0.29,0.22,0.36c0.11,0.07,0.25,0.11,0.29,0.25s0.04,0.29,0.04,0.29s0.29,0.11,0.36-0.11
		c0.07-0.22,0.04-0.36,0.11-0.4c0.07-0.04,0.29-0.25,0.29-0.25s-0.07-0.07,0.11-0.07s0.25-0.07,0.25-0.11v-0.29l-0.15-0.15h0.15
		l0.11-0.15c0,0,0.04-0.11,0-0.18c-0.04-0.07-0.07-0.29-0.07-0.29L47.33,74.48z"/>
	<path class="st0" d="M51.3,73.87l-0.51,0.11l0.25,0.33l0.15,0.22c0,0-0.07,0.07-0.15,0.15c-0.07,0.07-0.25,0.11-0.25,0.11
		s-0.07,0.07-0.07,0.15s-0.15,0-0.33,0.11s-0.69,0.29-0.69,0.29h-0.15c0.15,0,0.25,0.4,0.36,0.4h0.47c0,0-0.04-0.07,0.15-0.11
		c0.18-0.04,0.4-0.18,0.4-0.18c0.22,0.04,0.36-0.11,0.47,0.07c0.11,0.18,0.22,0.15,0.25,0.22c0.04,0.07,0.18,0.33,0.18,0.33
		l-0.11,0.4c0,0,0.18,0.15,0.25,0.11c0.07-0.04,0.29-0.22,0.29-0.22l0.15-0.29c0,0-0.07-0.22,0-0.29c0.07-0.07-0.25-0.22-0.25-0.22
		l-0.44-0.11l-0.29-0.4v-0.18l0.44-0.18l0.29-0.11l-0.33-0.4L51.3,73.87z"/>
	<path class="st0" d="M51.66,76.76c0,0-0.51,0.22-0.51,0.25c0,0.04,0.15,0.25,0.15,0.25h0.25l0.11-0.25L51.66,76.76L51.66,76.76z"/>
	<path class="st0" d="M51.41,77.59l-0.25-0.15c0,0-0.18-0.04-0.18,0.15c0,0.18,0.07,0.43,0.18,0.47c0.11,0.04,0.25,0,0.25,0V77.59z"
		/>
	<path class="st0" d="M48.12,76.54h-0.54l-0.33,0.22l-0.54,0.11c0,0-0.04,0.29,0.22,0.29c0.25,0-0.07-0.07,0.18,0
		s0.51,0.11,0.51,0.18s-0.11,0.11,0.07,0.11c0.18,0,0.43-0.69,0.43-0.69S48.12,76.54,48.12,76.54z"/>
	<path class="st0" d="M44.15,76.18c0,0-0.4,0.33-0.44,0.36c-0.04,0.04-0.47,0.18-0.51,0.18s-0.47,0.04-0.47,0.04l-0.58,0.07
		l-0.4,0.29l0.29,0.33c0,0-0.04,0.29,0,0.33s-0.07,0.18,0.07,0.25c0.15,0.07,0.25,0.15,0.25,0.15s0.43,0.04,0.47-0.04
		c0.04-0.07,0.18-0.11,0.18-0.22c0-0.11-0.25-0.4-0.07-0.47c0.18-0.07,0.4-0.15,0.43-0.18s0.18-0.11,0.25-0.07
		c0.07,0.04,0.15,0.15,0.15,0.15l0.22-0.07l0.07-0.15c0,0,0.04-0.15,0.07-0.22s0.11-0.29,0.11-0.29v-0.18L44.15,76.18z"/>
	<path class="st0" d="M43.75,78.24c0,0-0.36,0.04-0.36,0.07s-0.11,0.11-0.11,0.11s-0.04,0.11-0.25,0.11s-0.44-0.07-0.4,0
		c0.04,0.07-0.04,0.15-0.04,0.25s-0.07,0.29-0.07,0.29v0.18c0,0,0.04,0.18,0.11,0.22c0.07,0.04,0.18,0.07,0.22,0.11
		s0.22,0.15,0.18,0.22c-0.04,0.07,0.36,0.04,0.36,0.04s0.04-0.04,0.07-0.07c0.04-0.04,0.29-0.18,0.29-0.18s0-0.15,0.07-0.15
		c0.07,0,0.51-0.07,0.51-0.07v-0.25c0-0.11-0.18-0.25-0.18-0.25l-0.11-0.11L43.9,78.6c0,0-0.04-0.18-0.04-0.22
		C43.86,78.35,43.75,78.24,43.75,78.24z"/>
	<path class="st0" d="M47,77.37l-0.58-0.11H46.1l-0.18,0.25c0,0,0.04,0.11,0.11,0.18c0.07,0.07,0.22,0.25,0.33,0.29
		c0.11,0.04,0.18,0.07,0.22,0.18s0.04,0.22,0.07,0.33s0.29,0.11,0.29,0.18s0.07-0.04,0.22,0c0.15,0.04,0.04-0.04,0.25,0.18
		s0.36,0.33,0.4,0.4c0.04,0.07,0.15,0,0.15,0l0.18-0.15c0,0-0.04-0.25,0-0.25s0.04-0.33,0.04-0.36c0-0.04-0.07-0.36-0.07-0.36
		s-0.18-0.22-0.22-0.22c-0.04,0-0.33-0.11-0.33-0.11l-0.18-0.18l-0.15-0.18L47,77.37z"/>
	<path class="st0" d="M47.36,80.08c-0.15,0.07-0.29,0.11-0.33,0.15s-0.51,0.04-0.47,0.11c0.04,0.07,0.11,0.18,0.15,0.22
		s0.15,0.25,0.15,0.25s-0.07,0.25-0.07,0.29s-0.07,0.18,0,0.22c0.07,0.04,0.36,0.07,0.43,0.07c0.07,0,0.25-0.04,0.29-0.07
		c0.04-0.04,0.15-0.04,0.25-0.04c0.11,0,0.54,0.04,0.54,0.04s0.07-0.11,0.04-0.22c-0.04-0.11-0.15-0.22-0.15-0.22l-0.04-0.11
		l-0.11-0.07l0.11-0.18v-0.15c0,0-0.11-0.07-0.22-0.07c-0.11,0-0.22,0.04-0.22-0.04c0-0.07-0.15-0.29-0.15-0.29L47.36,80.08z"/>
	<path class="st0" d="M44.8,80.98c0,0-0.15-0.29-0.18-0.29c-0.04,0-0.22-0.04-0.22,0c0,0.04-0.07,0.15-0.07,0.15v0.11
		c0,0.04-0.04,0.11,0,0.18c0.04,0.07-0.04,0.22,0,0.25c0.04,0.04,0.04,0.11,0.07,0.22c0.04,0.11,0.11,0.18,0.11,0.22
		s-0.04,0.18-0.04,0.18s-0.07-0.11-0.07,0.07s-0.29,0.29-0.07,0.33c0.22,0.04,0.43,0.07,0.47,0.07c0.04,0,0.25-0.04,0.25-0.07
		c0-0.04,0-0.22,0.07-0.25c0.07-0.04,0.11-0.07,0.11-0.11c0-0.04-0.11-0.18-0.11-0.22s-0.18-0.18-0.18-0.18l-0.07-0.18l-0.04-0.18
		L44.8,80.98z"/>
	<path class="st0" d="M45.38,81.02c0,0-0.11,0.33-0.11,0.36c0,0.04,0.04,0.36,0.11,0.4s0.25,0.22,0.29,0.29
		c0.04,0.07,0.04,0.18,0.04,0.25c0,0.07-0.11,0.33-0.15,0.33s0,0-0.18,0.07c-0.18,0.07-0.4,0.04-0.47,0.15
		c-0.07,0.11-0.18,0.22-0.18,0.22v0.22c0,0.04-0.04,0.11,0.07,0.11c0.11,0,0.36-0.04,0.43-0.07c0.07-0.04,0.22-0.11,0.22-0.11
		l0.36-0.33l0.18-0.11c0,0-0.07-0.15,0-0.25c0.07-0.11,0.07-0.11,0.11-0.18s0.15-0.07,0.15-0.15c0-0.07,0.07-0.36,0-0.43
		c-0.07-0.07-0.15-0.25-0.22-0.36c-0.07-0.11-0.04-0.15-0.18-0.25c-0.15-0.11-0.29-0.18-0.29-0.18L45.38,81.02z"/>
	<path class="st0" d="M49.31,82.68c0.04,0.11,0.25,0.43,0.25,0.43l0.18,0.36l-0.07,0.29c0,0-0.29,0.07-0.36,0.07h-0.47
		c0,0-0.07-0.11-0.11,0.11c-0.04,0.22-0.4,0.4-0.4,0.4h-0.47c0,0-0.15,0.25-0.15,0.33c0,0.07-0.94,0.47-0.94,0.47l-0.29,0.4
		l-0.29,0.07c0,0-0.07,0.11-0.07,0.15c0,0.04-0.18,0.25-0.18,0.25h-0.11c0,0-0.36,0.07-0.36,0.15c0,0.07,0.07,0.25,0.07,0.33v0.25
		c0,0,0,0.25,0.04,0.25s0.22,0.11,0.22,0.11l0.11,0.18c0,0,0.07,0.04,0.07,0.07s0.11,0.18,0.11,0.18l0.18,0.18c0,0-0.07,0.25,0,0.33
		c0.07,0.07,0.15,0.07,0.22,0.11c0.07,0.04,0.65,0.11,0.65,0.11s0.29,0.04,0.33,0.07s0.22,0.07,0.33,0
		c0.11-0.07,1.08-0.25,1.08-0.25s-0.11-0.15,0-0.18c0.11-0.04,0.29-0.07,0.47-0.22c0.18-0.15,0.58-0.18,0.58-0.18
		s-0.07-0.18,0.04-0.25c0.11-0.07,0.4-0.33,0.43-0.33s0.33,0.22,0.33,0.22s-0.11,0.11,0.07,0.11c0.18,0,0.22-0.07,0.29-0.33
		c0.07-0.25,0.29-0.36,0.29-0.36l0.07-0.11c0,0-0.07-0.07,0-0.25c0.07-0.18,0.15-0.4,0.15-0.4v-0.54c0,0-0.07,0,0.07-0.07
		c0.15-0.07,0.33-0.36,0.22-0.47s-0.25-0.29-0.29-0.36c-0.04-0.07-0.22-0.33-0.22-0.33l-0.07-0.15c0,0,0-0.25-0.15-0.29
		c-0.15-0.04-0.47-0.04-0.47-0.04l-0.25-0.36c0,0-0.22-0.4-0.25-0.4s-0.22,0-0.33-0.04c-0.11-0.04-0.4-0.18-0.4-0.18L49.31,82.68z"
		/>
	<path class="st0" d="M56.17,93.29l0.11-0.18c0,0,0.25-0.22-0.11-0.4c-0.36-0.18-0.65-0.36-0.65-0.36h-0.29l-0.18,0.54
		c0,0,0.22,0,0.18,0.15c-0.04,0.15-0.25,0.07-0.18,0.25c0.07,0.18-0.07,0.11,0.25,0.25c0.33,0.15,0.43,0.29,0.58,0.15
		C56.03,93.55,56.17,93.29,56.17,93.29z"/>
	<path class="st0" d="M56.1,94.16l-0.29-0.18l-0.76-0.11l-0.43-0.29c0,0-0.43,0.4-0.43,0.47c0,0.07-0.33,0.51-0.25,0.61
		c0.07,0.11,0.18,0.25,0.43,0.25c0.25,0,0.51-0.25,0.83-0.4c0.33-0.15,0.43-0.36,0.58-0.29C55.92,94.3,56.1,94.16,56.1,94.16z"/>
	<path class="st0" d="M57.44,93.4l-0.54,0.18c0,0-0.15,0.18-0.15,0.25c0,0.07,0.07,0.4,0.07,0.4s-0.07,0.07-0.07,0.25v0.36
		c0,0,0.18,0.47,0.33,0.54c0.15,0.07,0.4-0.07,0.47-0.29c0.07-0.22-0.15-0.87-0.15-0.87s-0.43-0.18-0.33-0.22
		c0.11-0.04,0.43-0.07,0.47-0.07s0.15-0.11,0.15-0.11l-0.11-0.43L57.44,93.4L57.44,93.4z"/>
	<path class="st0" d="M59.24,89.57v-0.4l-0.33-0.51c0,0-0.25-0.18-0.29-0.25c-0.04-0.07-0.47-0.36-0.47-0.33
		c0,0.04-0.36,0.36-0.36,0.4s-0.58,0.44-0.58,0.44s0.18,0.61,0.18,0.65c0,0.04-0.29,0.04-0.07,0.29c0.22,0.25,0.9,0.33,0.9,0.33
		s0.04-0.22,0.07,0.07c0.04,0.29-0.07,0.44-0.07,0.47c0,0.04,0.18,0.18,0.4,0.18c0.22,0,0.51-0.04,0.54,0s0.54,0.07,0.54,0.07
		s0.04,0,0-0.33s-0.22-0.58-0.22-0.58l-0.18-0.25L59.24,89.57z"/>
	<path class="st0" d="M60.98,87.63c-0.11,0-0.54-0.11-0.54-0.11l-0.07,0.43l-0.33,0.22c0,0-0.15,0.07-0.07,0.18
		c0.07,0.11,0.15,0.18,0.11,0.25c-0.04,0.07-0.25,0-0.22,0.11C59.9,88.82,60.12,89,60.12,89s-0.11,0.18-0.11,0.25
		c0,0.07,0.15,0.22,0.22,0.22c0.07,0,0.29-0.33,0.29-0.33s0.07-0.15,0.15-0.18c0.07-0.04,0.33-0.18,0.33-0.18h0.15
		c0.07,0,0.22-0.29,0.22-0.29s-0.07-0.11,0.15-0.07c0.22,0.04,0.15,0,0.25,0.07c0.11,0.07,0.18,0.07,0.22,0.07s0.18-0.11,0.07-0.22
		c-0.11-0.11-0.22-0.15-0.29-0.25c-0.07-0.11-0.07-0.4-0.07-0.4s-0.07-0.22-0.11-0.22h-0.43L60.98,87.63z"/>
	<path class="st0" d="M62.42,88.49c0,0-0.11,0.33-0.11,0.36c0,0.04-0.07,0.18,0,0.22c0.07,0.04,0.33,0.11,0.33,0.11v0.18
		c0,0.07-0.11,0.11,0.07,0.18s0.65-0.07,0.65-0.07h0.4c0,0,0.15-0.22,0.07-0.29c-0.07-0.07-0.25-0.29-0.25-0.33
		s-0.15-0.07-0.18-0.11c-0.04-0.04-0.25-0.11-0.25-0.11l-0.47-0.15L62.42,88.49L62.42,88.49z"/>
	<path class="st0" d="M61.66,89.68c0,0-0.36-0.04-0.4,0.07c-0.04,0.11-0.11,0.25-0.15,0.29s-0.29,0.15-0.29,0.15l0.22,0.22
		c0,0,0.04,0.11,0.18,0.18c0.15,0.07,0.36,0.22,0.36,0.22s0.04-0.04,0.07,0c0.04,0.04,0.22-0.07,0.22-0.07s-0.04-0.07,0.07-0.07
		c0.11,0,0.29,0.07,0.29,0.07s0.11-0.04,0.15-0.11c0.04-0.07-0.04-0.15,0-0.22s0-0.25,0-0.25l-0.11-0.25c0,0-0.15-0.04-0.22-0.04
		c-0.07,0-0.18-0.04-0.18-0.04l-0.07-0.04L61.66,89.68z"/>
	<path class="st0" d="M60.25,89.94c-0.1,0.01-0.17,0.1-0.18,0.18c-0.01,0.07,0.03,0.12,0.07,0.18c0.02,0.03,0.05,0.07,0.11,0.11
		c0.08,0.05,0.21,0.09,0.25,0.04c0.03-0.04-0.01-0.07-0.04-0.25c-0.02-0.11,0-0.14-0.04-0.18C60.4,89.96,60.32,89.93,60.25,89.94z"
		/>
	<path class="st0" d="M61.77,93.4c0,0-0.18,0.33-0.22,0.4c-0.04,0.07-0.33,0.29-0.33,0.33s0,0.11-0.04,0.22
		c-0.04,0.11-0.15,0.29,0,0.36c0.15,0.07,0.33,0.11,0.33,0.11s0.4-0.22,0.43-0.11c0.04,0.11,0.04,0.18,0.18,0.29
		c0.15,0.11,0.33,0.15,0.36,0.15s0.04-0.18,0.15-0.22c0.11-0.04,0.4-0.29,0.4-0.29s0.04-0.29-0.11-0.36
		c-0.15-0.07-0.29-0.15-0.29-0.15l-0.07-0.18l0.15-0.18l0.04-0.36l-0.65-0.07L61.77,93.4z"/>
	<path class="st0" d="M82.67,81.99c0.04-0.04,0.07-0.33,0.07-0.33l-0.51-0.36c0,0-0.22,0.15-0.18,0.29s0.15,0.33,0.15,0.4
		c0,0.07,0.04,0.25,0,0.33c-0.04,0.07-0.15,0.18-0.15,0.22s-0.11,0.22-0.15,0.29c-0.04,0.07-0.43,0.29-0.43,0.29
		s-0.29,0.29-0.29,0.33s-0.18,0.04-0.11,0.25c0.07,0.22,0.07,0.51,0.07,0.51s-0.18,0.15-0.07,0.25c0.11,0.11,0.22,0.25,0.43,0.33
		c0.22,0.07,0.65,0.25,0.65,0.25l0.47,0.07c0,0,0.36-0.15,0.29-0.22c-0.07-0.07-0.25-0.22-0.25-0.22l-0.07-0.18
		c0,0,0-0.18,0.07-0.29c0.07-0.11,0.25-0.4,0.25-0.4s0.07-0.07,0-0.25c-0.07-0.18-0.11-0.33-0.11-0.33l-0.11-0.18l-0.07-0.22
		c0,0-0.07-0.07-0.04-0.18c0.04-0.11,0-0.4,0-0.4l-0.04-0.11L82.67,81.99z"/>
</g>
</svg>
