<?xml version="1.0" encoding="utf-8"?>
<!-- Generator: Adobe Illustrator 26.5.2, SVG Export Plug-In . SVG Version: 6.00 Build 0)  -->
<svg version="1.1" id="Layer_1" xmlns="http://www.w3.org/2000/svg" xmlns:xlink="http://www.w3.org/1999/xlink" x="0px" y="0px"
	 viewBox="0 0 141.73 141.73" style="enable-background:new 0 0 141.73 141.73;" xml:space="preserve">
<style type="text/css">
	.st0{fill:#FFFFFF;stroke:#020202;stroke-width:0.25;stroke-linecap:round;stroke-linejoin:round;stroke-miterlimit:10;}
	.st1{fill:none;stroke:#020202;stroke-width:0.25;stroke-linecap:round;stroke-linejoin:round;stroke-miterlimit:10;}
</style>
<path class="st0" d="M67.55,64.19l-0.06,0.17v0.33c0,0.04-0.33,0.47-0.33,0.47s-0.11,0.04-0.11,0.07c0,0.04-0.15,0.11-0.15,0.18
	c0,0.07,0,0.22,0.07,0.29c0.07,0.07,0.11,0.15,0.18,0.18c0.07,0.04,0.26,0.18,0.26,0.18l0.29,0.65c0,0,0.22,0.4,0.26,0.47
	c0.04,0.07,0.51,0.43,0.51,0.43s-0.07,0.29-0.07,0.36c0,0.07,0.26,0.4,0.26,0.4s0.07-0.36,0.11,0c0.04,0.36-0.11,0.65-0.11,0.65
	s0.15,0.25,0.18,0.29l-0.05,0.21c0,0-0.13,0.41-0.13,0.44v0.47c0,0-0.07,0.18-0.07,0.25s-0.18,0.15-0.25,0.22s-0.15,0.43-0.15,0.43
	l-0.07,0.18h-0.26h-0.51l-0.44,0.15l-0.07,0.07l-0.22-0.4c0,0-0.29-0.29-0.33-0.33c-0.04-0.04-0.18-0.22-0.22-0.29
	c-0.04-0.07-0.15-0.22-0.15-0.29c0-0.07-0.04-0.29-0.04-0.29s0.26-0.18,0.29-0.26c0.04-0.07,0.11-0.25,0.11-0.33
	c0-0.07,0.11-0.15,0.11-0.15l-0.47-0.25l-0.11-0.33c0,0-0.15-0.51-0.15-0.61c0-0.11,0.07-0.62,0.07-0.62l-0.07-0.11
	c0,0-0.15-0.15-0.22-0.26c-0.07-0.11-0.33-0.4-0.47-0.54c-0.15-0.15-0.18-0.29-0.18-0.29s-0.4-0.61-0.36-0.69
	c0.04-0.07,0-0.25,0-0.25s0.26-0.54,0.26-0.65c0-0.11,0.11-0.29,0.11-0.29s-0.15-0.33-0.18-0.36c-0.04-0.04-0.15-0.4-0.18-0.43
	c-0.04-0.04,0-0.29,0-0.33s0.22-0.22,0.22-0.22l0.33-0.07l0.36,0.15l0.47,0.22l0.22,0.25l0.44,0.11l0.43,0.33l0.51,0.15L67.55,64.19
	"/>
<path class="st0" d="M66.82,71.77l0.07-0.07l0.43-0.15h0.51h0.26l0.07-0.18c0,0,0.07-0.36,0.15-0.43c0.07-0.07,0.26-0.15,0.26-0.22
	c0-0.07,0.07-0.25,0.07-0.25V70c0-0.04,0.12-0.39,0.12-0.39l0.06,0.08c0.15,0.04,0.58,0.02,0.58,0.02s0.04,0.54,0.07,0.61
	c0.04,0.07,0.22,0.43,0.36,0.43c0.15,0,0.4-0.04,0.54,0c0.15,0.04,0.33-0.22,0.33-0.22l0.29-0.4l0.22,0.43
	c0.07,0.15,0.33-0.04,0.29,0.58s0,0.18,0,0.18l-0.04,0.29c0,0,0.04,0.18,0.04,0.25s0.69,0,0.69,0s0.07-0.15,0.15,0.04
	c0.07,0.18,0.15,0.22,0.15,0.29c0,0.07-0.15,0.36-0.15,0.36l-0.44,0.22c0,0-0.11,0.4-0.11,0.47c0,0.07-0.18,0.87-0.18,0.87
	l-0.54,0.76l-0.04,0.61l-0.26,0.47l0.22,0.36l0.09,0.16l-0.38,0.35l-0.25,0.18c0,0-0.11,0.11-0.15,0.18
	c-0.04,0.07-0.22,0.25-0.29,0.33c-0.07,0.07-0.07,0.18-0.07,0.18l-0.4-0.11c0,0-0.18-0.18-0.29-0.29c-0.11-0.11,0.04-0.15,0-0.25
	c-0.04-0.11-0.11-0.26-0.11-0.26l-0.36-0.15v-0.22v-0.22v-0.51l-0.29-0.07c0,0-0.15,0.61-0.15,0.83c0,0.22-0.25,0.43-0.25,0.43
	l-0.18,0.33l-0.4,0.36l-0.91-0.94c0,0-0.07-0.18-0.11-0.29c-0.04-0.11-0.04-0.15-0.04-0.29s0.11-0.25,0.15-0.29
	c0.04-0.04,0-0.15,0-0.18c0-0.04-0.15-0.07-0.29-0.15c-0.15-0.07-0.15-0.07-0.18-0.11c-0.04-0.04-0.07-0.07-0.11-0.22
	c-0.04-0.15-0.04-0.07,0-0.18c0.04-0.11,0.07-0.11,0.04-0.15c-0.04-0.04,0-0.15-0.04-0.29c-0.04-0.15,0.04-0.15,0.07-0.25
	c0.04-0.11,0.11-0.18,0.22-0.29c0.11-0.11,0.29-0.36,0.29-0.36s-0.15-0.29-0.15-0.33c0-0.04,0.15-0.22,0.15-0.33v-0.15
	c0,0,0.07-0.54,0.07-0.58C66.67,72.2,66.82,71.77,66.82,71.77"/>
<path class="st0" d="M78.19,51.85c0,0,0.25,0.33,0.25,0.37c0,0.04,0.18,0.4,0.18,0.4l0.18,0.47c0,0,0.26,0,0.26,0.04
	s0.15,0.11,0.15,0.11s0.36-0.04,0.36-0.07c0-0.04,0.07-0.15,0.07-0.18c0-0.04,0.36-0.07,0.4-0.11c0.04-0.04,0.22,0.11,0.22,0.11
	h0.33c0.04,0,0.11-0.11,0.11-0.11s0.07-0.07,0.18-0.07c0,0,0.26,0.07,0.29,0.07c0.04,0,0.26,0.22,0.26,0.22s0.04-0.07,0.07-0.15
	c0.04-0.07,0.29-0.22,0.29-0.22l0.47-0.07c0,0,0.11-0.29,0.11-0.33c0-0.04,0.04-0.33,0-0.36c-0.04-0.04-0.15-0.47-0.15-0.51
	c0-0.04-0.04-0.22-0.04-0.26c0-0.04,0.33-0.4,0.33-0.4l0.62-0.22l0.72,0.07l0.29,0.11l0.07,0.36c0,0,0.36,0.29,0.36,0.36
	c0,0.07-0.11,0.18-0.11,0.18v0.15c0,0-0.07,0.36-0.07,0.4c0,0.04,0.26,0.15,0.29,0.15c0.04,0,0.18,0.07,0.18,0.07
	s0.29-0.04,0.47-0.15c0.18-0.11,0.36-0.11,0.43-0.15c0.07-0.04,0.36-0.18,0.4-0.25c0.04-0.07,0.15-0.15,0.15-0.18
	c0-0.04,0.04-0.22,0.04-0.29c0-0.07,0.18-0.11,0.18-0.11l0.11,0.22c0,0,0.25,0.07,0.25,0.11c0,0.04,0.36,0.22,0.36,0.22
	s0.11-0.07,0.18-0.15c0.07-0.07,0.11-0.11,0.11-0.22c0-0.11,0.26-0.11,0.33-0.22c0.07-0.11,0.36-0.11,0.43-0.15
	c0.07-0.04,0.22,0.15,0.22,0.15l0.22,0.33l0.29,0.15l0.22,0.15l0.51,0.18c0,0,0.51-0.15,0.54-0.18c0.04-0.04,0.36,0.11,0.36,0.11
	s0.18,0.22,0.18,0.25c0,0.04-0.29,0.15-0.29,0.15l-0.07,0.22l-0.29,0.22c0,0-0.15,0.25-0.22,0.33c-0.07,0.07-0.36,0.15-0.43,0.15
	s-0.11,0.29-0.11,0.29l0.18,0.18c0,0,0.26,0.22,0.33,0.33s0.33-0.04,0.33-0.04l0.33-0.29c0,0,0.33,0,0.29,0.04
	c-0.04,0.04,0.58-0.04,0.58-0.04l0.43,0.11l0.07,0.25l0.26,0.36l0.33,0.4l0.26,0.25l0.43-0.07c0,0,0.51-0.18,0.65-0.18h0.4
	l0.07,0.07c0,0,0.29,0.33,0.29,0.36c0,0.04,0.33,0.43,0.33,0.43h0.18c0.04,0,0.43,0.15,0.43,0.15l0.29,0.29c0,0,0.51-0.04,0.61-0.07
	c0.11-0.04,0.36,0.15,0.36,0.15l0.22,0.26c0,0,0.4,0.07,0.65,0.18l0,0l-0.76,0.36h-0.58h-0.26l-0.54,0.4l-0.22,0.4l-0.4,0.36
	c0,0-0.54,0.04-0.54,0.07c0,0.04-0.18,0.29-0.18,0.33s0.11,0.15-0.15,0.22c-0.25,0.07-0.36,0.15-0.36,0.15l-0.4,0.15l-0.11,0.25
	c0,0-0.04,0.15-0.07,0.18c-0.04,0.04-0.04,0.07-0.18,0.15c-0.15,0.07-0.25,0.15-0.22,0.15c0.04,0,0,0-0.04,0.15
	s-0.07,0.11-0.04,0.18c0.04,0.07,0,0.26,0,0.26l-0.15,0.25l-0.22,0.25c0,0,0.07,0.22,0.11,0.29c0.04,0.07,0.18,0.15,0.18,0.15
	s0.11,0.07,0.11,0.15v0.22c0,0,0.04,0.15,0.04,0.22c0,0.07-0.04,0.18-0.04,0.18l-0.15,0.15c0,0-0.22,0.04-0.26,0.11
	c-0.04,0.07-0.18,0.18-0.22,0.22c-0.04,0.04-0.25,0.15-0.25,0.15s-0.11,0.11-0.18,0.11c-0.07,0-0.25,0.04-0.29,0.07
	c-0.04,0.04-0.4,0.15-0.4,0.15v0.07c0,0-0.22-0.07-0.25-0.11c-0.04-0.04-0.33-0.11-0.33-0.11l-0.33-0.15c0,0-0.07-0.07-0.07-0.11
	c0-0.04-0.07-0.15-0.07-0.15l-0.26-0.07c0,0,0.07-0.07,0-0.22c-0.07-0.15-0.22-0.33-0.22-0.33s-0.11-0.07-0.11-0.11
	c0-0.04-0.04-0.29-0.11-0.33c-0.07-0.04-0.29-0.18-0.29-0.18l-0.15-0.11l-0.36-0.04c0,0-0.11-0.07-0.15,0
	c-0.04,0.07-0.07,0.11-0.11,0.18c-0.04,0.07-0.11,0.15-0.11,0.18c0,0.04-0.4,0.15-0.4,0.15v0.15c0,0,0.04,0,0,0.15
	c-0.04,0.15-0.11,0.29-0.11,0.29l-0.11,0.18l-0.18,0.07l-0.33-0.11l-0.29,0.04l-0.22-0.18c0,0-0.18-0.11-0.22-0.15
	c-0.04-0.04-0.18-0.15-0.18-0.15s-0.11-0.15-0.15,0c-0.04,0.15-0.15,0.18-0.15,0.18s-0.07,0.04-0.15,0.07
	c-0.07,0.04-0.33,0.26-0.33,0.26h-0.33l-0.33-0.11l-0.4,0.11c0,0-0.29,0.43-0.29,0.51c0,0.07-0.22,0.54-0.22,0.54l-0.11,0.36
	c0,0-0.04,0.29,0,0.33c0.04,0.04,0.25,0.11,0.25,0.11l0.33,0.33c0,0,0.11,0.11,0.11,0.15s0.04,0.11,0,0.22
	c-0.04,0.11-0.15,0.11-0.18,0.15c-0.04,0.04-0.33,0.07-0.36,0.07c-0.04,0-0.44-0.11-0.44-0.11l-0.07-0.47l-0.4-0.11l-0.36,0.22
	c0,0-0.22-0.07-0.22-0.15s-0.04-0.4-0.07-0.4c-0.04,0-0.36-0.18-0.4-0.07c-0.04,0.11,0.04,0.4,0,0.47
	c-0.04,0.07-0.26,0.11-0.26,0.15c0,0.04,0.04-0.04,0,0.07c-0.04,0.11-0.07,0.22-0.07,0.22l-0.29,0.07
	c-0.07,0.11-0.25,0.22-0.25,0.22v0.07h-0.36l-0.43,0.04c0,0,0.07,0.22,0.07,0.25c0,0.04,0.22,0.29,0.25,0.29
	c0.04,0,0.36,0.07,0.36,0.07l0.18,0.15l0.18,0.25v0.25c0,0-0.04,0.36-0.04,0.4c0,0.04-0.36,0.25-0.36,0.25s-0.11-0.04-0.15-0.07
	c-0.04-0.04-0.18-0.29-0.18-0.29l-0.22-0.26L80,66.48h-0.11l-0.29,0.18l-0.29,0.11v0.25v0.22c0,0.04-0.26,0.07-0.26,0.07l-0.25,0.04
	l-0.11-0.04c0,0-0.29,0.15-0.33,0.15s-0.22,0.07-0.22,0.11c0,0.04-0.04,0.29-0.04,0.33c0,0.04,0.22,0.15,0.22,0.18
	c0,0.04,0.15,0.15,0.15,0.15l0.8,0.07l0.4,0.36l0.11,0.36c0,0,0.04,0.26,0.07,0.29c0.04,0.04,0.36,0.22,0.36,0.29
	c0,0.07,0.04,0.33,0.04,0.36s-0.18,0.25-0.18,0.25l-0.29,0.15l-0.18,0.18c0,0-0.04,0.26,0.04,0.29c0.07,0.04,0.15,0.26,0.15,0.26
	s-0.15,0.22-0.15,0.25c0,0.04-0.11,0.22-0.11,0.22s-0.07,0.11-0.07,0.15c0,0.04-0.07,0.07,0,0.15c0.07,0.07,0.11,0.25,0.11,0.33
	c0,0.07,0.04,0.22,0.04,0.25s-0.11,0.11-0.11,0.18s-0.07,0.22-0.07,0.22l-0.04,0.15l-0.11,0.4l0.26,0.4c0,0,0.15,0,0.15,0.22
	s-0.18,0.44-0.25,0.51c-0.07,0.07-0.07,0.07-0.18,0.18c-0.11,0.11-0.22,0.11-0.25,0.15c-0.04,0.04-0.33,0.4-0.33,0.4l-0.04,0.58
	l0.07,0.4c0,0,0.18-0.04,0.22,0c0.04,0.04,0.04,0,0.22,0.07s0.26,0.11,0.26,0.11s0.07-0.33,0.15-0.4c0.07-0.07,0.29-0.33,0.29-0.33
	s0.07,0,0.11,0.11c0.04,0.11,0.11,0.33,0.11,0.36v0.11l0.26,0.07l0.33,0.22l0.04,0.11c0.04,0.11-0.18,0.04,0.04,0.18l0.22,0.15
	c0,0-0.07-0.04,0,0c0.07,0.04,0.43-0.15,0.43-0.15l0.07-0.11l0.4-0.07h0.18c0.07,0,0.72,0.07,0.72,0.07s0,0.07,0.04,0.25
	c0.04,0.18,0.11,0.18,0.11,0.26c0,0.07-0.04,0.07-0.07,0.22c-0.04,0.15-0.11,0.11-0.07,0.22c0.04,0.11-0.04,0.04,0.04,0.22
	c0.07,0.18,0.07,0.26,0.11,0.26h0.04l0.04,0.33c0,0-0.18,0.25-0.26,0.25c-0.07,0-0.29-0.07-0.36-0.15
	c-0.07-0.07-0.25-0.33-0.33-0.29c-0.07,0.04-0.29,0.11-0.29,0.11s-0.33,0.04-0.33,0.07s-0.07-0.04-0.07,0.11s-0.04,0-0.04,0.15
	c0,0.15,0.04,0.29,0.07,0.36c0.04,0.07,0.04,0.25,0.04,0.33c0,0.07,0.04,0.15,0,0.29c-0.04,0.15-0.07,0.11-0.07,0.25
	c0,0.15-0.07,0.33-0.07,0.33l-0.11,0.18c0,0,0-0.15-0.04,0s-0.18,0.25-0.18,0.25s-0.15,0.04-0.18,0.15
	c-0.04,0.11-0.11,0.29-0.11,0.33c0,0.04-0.07,0.22-0.07,0.26s-0.04,0.22,0,0.26c0.04,0.04,0.07,0.11,0.04,0.18s-0.15,0.15-0.15,0.22
	c0,0.07-0.11,0.18-0.11,0.18l-0.18,0.11l-0.69,0.22h-0.07c0,0,0.07-0.07-0.07,0.11c-0.15,0.18-0.26,0.22-0.29,0.22
	c-0.04,0-0.36,0.07-0.36,0.07l-0.29-0.33l-0.4-0.04h-0.36l-0.36,0.25c0,0-0.25,0.04-0.29,0.07c-0.04,0.04-0.4,0.07-0.4,0.07
	s-0.15,0.04-0.15,0s-0.15-0.15-0.22-0.22c-0.07-0.07-0.15-0.33-0.29-0.25c-0.15,0.07-0.4,0.07-0.4,0.07l-0.33-0.33
	c0,0-0.18-0.33-0.18-0.36s-0.11-0.22-0.11-0.22s-0.22-0.11-0.25-0.07c-0.04,0.04-0.22,0.15-0.22,0.18c0,0.04-0.11,0.22-0.11,0.22
	s0.07,0.11,0,0.11c-0.07,0-0.22,0-0.22-0.04c0-0.04-0.11-0.07-0.11-0.11v-0.15c0-0.04-0.11-0.29-0.11-0.29s-0.15-0.15-0.18-0.11
	c0,0-0.25-0.43-0.4-0.61c-0.15-0.18,0-0.25,0.07-0.33c0.07-0.07,0-0.22,0-0.33c0-0.11-0.15-0.25-0.22-0.33
	c-0.07-0.07-0.18-0.29-0.18-0.29v-0.4c0-0.15,0.29-0.07,0.29-0.07s-0.11-0.54-0.22-0.62c-0.11-0.07,0-0.07-0.07-0.29
	c-0.07-0.22-0.04-0.29-0.04-0.29s0.11-0.29,0.11-0.43c0-0.15-0.18-0.33-0.18-0.33s-0.18-0.07-0.36-0.18c-0.18-0.11-0.07,0.04-0.18,0
	c-0.11-0.04-0.18-0.4-0.18-0.4l-0.4-0.11l-0.58,0.11L71,76.29l-0.22-0.36l0.25-0.47l0.04-0.62l0.54-0.76c0,0,0.18-0.8,0.18-0.87
	s0.11-0.47,0.11-0.47l0.43-0.22c0,0,0.15-0.29,0.15-0.36c0-0.07-0.07-0.11-0.15-0.29c-0.07-0.18-0.15-0.04-0.15-0.04
	s-0.69,0.07-0.69,0s-0.04-0.25-0.04-0.25l0.04-0.29c0,0-0.04,0.43,0-0.18c0.04-0.61-0.22-0.44-0.29-0.58L71,70.09l-0.29,0.4
	c0,0-0.18,0.25-0.33,0.22c-0.15-0.04-0.4,0-0.54,0s-0.33-0.36-0.36-0.44c-0.04-0.07-0.07-0.61-0.07-0.61s-0.43,0.04-0.58,0
	s0.04-0.33,0-0.36C68.79,69.25,68.64,69,68.64,69s0.15-0.29,0.11-0.65c-0.04-0.36-0.11,0-0.11,0s-0.26-0.33-0.26-0.4
	s0.07-0.36,0.07-0.36s-0.47-0.36-0.51-0.43c-0.04-0.07-0.26-0.47-0.26-0.47l-0.29-0.65c0,0-0.18-0.15-0.26-0.18
	c-0.07-0.04-0.11-0.11-0.18-0.18c-0.07-0.07-0.07-0.22-0.07-0.29c0-0.07,0.15-0.15,0.15-0.18s0.11-0.07,0.11-0.07
	s0.33-0.43,0.33-0.47v-0.33l0.11-0.29l0.36-0.25l0.11-0.22l0.22-0.22l0.04-0.04c0,0,0.29-0.15,0.29-0.36c0-0.22,0.18,0,0.18,0
	L69,62.8h0.43c0,0,0.22,0.07,0.29,0.07c0.07,0,0.22,0.07,0.22,0.07s0.29-0.15,0.36-0.18c0.07-0.04,0.07-0.11,0.07-0.15
	c0-0.04,0,0.04,0,0c0-0.04-0.11-0.22-0.07-0.36s-0.07-0.18-0.07-0.18s-0.11-0.18-0.15-0.33c-0.04-0.15-0.07-0.07-0.22-0.22
	c-0.15-0.15-0.07-0.18-0.07-0.29s-0.26-0.18-0.29-0.22c-0.04-0.04-0.29-0.18-0.36-0.29c-0.07-0.11-0.11-0.11-0.07-0.18
	c0.04-0.07-0.04-0.29-0.15-0.4c-0.11-0.11-0.15-0.04-0.26-0.15c-0.11-0.11-0.18-0.15-0.22-0.29c-0.04-0.15,0.07-0.11,0.11-0.15
	c0.04-0.04-0.11-0.36-0.11-0.36l-0.29-0.33c0,0,0.04-0.29,0.04-0.36V58.3l0.07-0.4l0.54-0.18h0.61c0.33,0,0.62-0.43,0.62-0.43
	s0.29-0.18,0.29-0.26c0-0.07,0.29-0.43,0.29-0.65c0-0.22,0.11,0,0.11,0l0.26-0.18l0.76-0.26c0.76-0.25,0.07-0.25,0.07-0.25
	l0.62-0.51l0.29,0.04c0,0,0.33,0.11,0.29,0.07c-0.04-0.04,0.51-0.15,0.51-0.15L74,55.47h0.15l0.36-0.36c0,0,0.29-0.15,0.33-0.25
	c0.04-0.11,0.29-0.18,0.29-0.26c0-0.07,0.18-0.33,0.18-0.4c0-0.07,0.51-0.25,0.58-0.25c0.07,0,0.04-0.29,0-0.36
	c-0.04-0.07,0-0.62,0-0.62s0.4-0.29,0.47-0.26c0.07,0.04,0.11,0.47,0.11,0.47h0.65c0,0,0.07-0.36,0.07-0.43
	c0-0.07,0.18-0.4,0.18-0.4l0.69-0.43l0.26-0.25"/>
<g>
	<path class="st0" d="M63.3,80.43C63.29,80.43,63.29,80.43,63.3,80.43C63.29,80.43,63.3,80.43,63.3,80.43z"/>
	<path class="st0" d="M71.1,76.46L71.1,76.46l-0.38,0.35l-0.26,0.18c0,0-0.11,0.11-0.15,0.18c-0.04,0.07-0.22,0.26-0.29,0.33
		c-0.07,0.07-0.07,0.18-0.07,0.18l-0.4-0.11c0,0-0.18-0.18-0.29-0.29s0.04-0.15,0-0.26c-0.04-0.11-0.11-0.25-0.11-0.25l-0.36-0.15
		V76.4v-0.22v-0.51l-0.29-0.07c0,0-0.15,0.62-0.15,0.83c0,0.22-0.26,0.43-0.26,0.43l-0.18,0.33l-0.4,0.36l-0.91-0.94
		c0,0-0.07-0.18-0.11-0.29c-0.04-0.11-0.04-0.15-0.04-0.29s0.11-0.25,0.15-0.29c0.04-0.04,0-0.15,0-0.18c0-0.04-0.15-0.07-0.29-0.15
		c-0.15-0.07-0.15-0.07-0.18-0.11c-0.04-0.04-0.07-0.07-0.11-0.22c-0.04-0.15-0.04-0.07,0-0.18c0.04-0.11,0.07-0.11,0.04-0.15
		c-0.04-0.04,0-0.15-0.04-0.29c-0.04-0.15,0.04-0.15,0.07-0.26c0.04-0.11,0.11-0.18,0.22-0.29c0.11-0.11,0.29-0.36,0.29-0.36
		s-0.15-0.29-0.15-0.33s0.15-0.22,0.15-0.33v-0.15c0,0,0.07-0.54,0.07-0.58c0-0.04,0.15-0.47,0.15-0.47l0,0l0,0l0,0l-0.22-0.4
		c0,0-0.29-0.29-0.33-0.33c-0.04-0.04-0.18-0.22-0.22-0.29c-0.04-0.07-0.15-0.22-0.15-0.29c0-0.07-0.04-0.29-0.04-0.29
		s0.26-0.18,0.29-0.25c0.04-0.07,0.11-0.26,0.11-0.33c0-0.07,0.11-0.15,0.11-0.15l-0.47-0.26l-0.11-0.33c0,0-0.15-0.51-0.15-0.61
		c0-0.11,0.07-0.62,0.07-0.62l-0.07-0.11c0,0-0.15-0.15-0.22-0.25c-0.07-0.11-0.33-0.4-0.47-0.54c-0.15-0.15-0.18-0.29-0.18-0.29
		s-0.4-0.61-0.36-0.69c0.04-0.07,0-0.26,0-0.26s0.26-0.54,0.26-0.65c0-0.11,0.11-0.29,0.11-0.29s-0.15-0.33-0.18-0.36
		c-0.04-0.04-0.15-0.4-0.18-0.43c-0.04-0.04,0-0.29,0-0.33s0.22-0.22,0.22-0.22l0.33-0.07l0.36,0.15l0.47,0.22l0.22,0.25l0.43,0.11
		l0.43,0.33l0.51,0.15l0.14-0.14l0.42-0.37l0.11-0.22l0.22-0.22l0.04-0.04c0,0,0.29-0.15,0.29-0.36c0-0.22,0.18,0,0.18,0l0.22-0.15
		h0.43c0,0,0.22,0.07,0.29,0.07c0.07,0,0.22,0.07,0.22,0.07s0.29-0.15,0.36-0.18c0.07-0.04,0.07-0.11,0.07-0.15
		s-0.11-0.22-0.07-0.36c0.04-0.15-0.07-0.18-0.07-0.18s-0.11-0.18-0.15-0.33c-0.04-0.15-0.07-0.07-0.22-0.22
		c-0.15-0.15-0.07-0.18-0.07-0.29s-0.26-0.18-0.29-0.22c-0.04-0.04-0.29-0.18-0.36-0.29s-0.11-0.11-0.07-0.18
		c0.04-0.07-0.04-0.29-0.15-0.4c-0.11-0.11-0.15-0.04-0.26-0.15c-0.11-0.11-0.18-0.15-0.22-0.29c-0.04-0.15,0.07-0.11,0.11-0.15
		c0.04-0.04-0.11-0.36-0.11-0.36l-0.44-0.4l-0.21-0.11c0,0-0.18-0.15-0.18-0.22s-0.11-0.36-0.11-0.36s-0.36-0.07-0.36-0.04
		c0,0.04-0.04,0.18-0.11,0.15c-0.07-0.04-0.29-0.15-0.29-0.18c0-0.04-0.25-0.22-0.25-0.22l-0.18-0.18l-0.18-0.43
		c0,0-0.36-0.18-0.43-0.22c-0.07-0.04-0.26-0.04-0.29-0.07c-0.04-0.04-0.36-0.25-0.36-0.25l-0.4-0.04c0,0-0.43,0.07-0.47,0.11
		c-0.04,0.04-0.15,0.29-0.15,0.29l-0.29,0.15l-0.51,0.15l-0.72-0.07l-0.33,0.22l-0.47-0.11l-0.47,0.22l-0.83,0.22l-0.54,0.29
		l-0.44,0.29l-0.18,0.15l-0.54,0.07l-0.62-0.25l-0.26-0.4l-0.18-0.47l-0.26-0.43l-0.07-0.22l-0.11-0.18c0,0-0.04-0.29-0.04-0.36
		c0-0.07-0.07-0.18-0.07-0.18l-0.07-0.18l-0.15-0.26l-0.22-0.18l-0.18-0.04l-0.11,0.25l-0.18,0.26L55.99,56l-0.15-0.04l-0.15-0.29
		l-0.04-0.4c0,0,0-0.07-0.04-0.15c-0.04-0.07-0.18-0.07-0.18-0.07l-0.26,0.11l-0.36,0.11l-0.43-0.22l-0.69-0.4
		c0,0-0.58-0.29-0.61-0.33c-0.04-0.04-0.47-0.22-0.47-0.22s-0.15-0.25-0.15-0.29c0-0.04-0.25-0.29-0.29-0.33
		c-0.04-0.04-0.29-0.26-0.29-0.26s-0.22-0.11-0.26-0.11c-0.04,0-0.22,0.04-0.22,0.04l-0.54,0.51l-0.15,0.22l-0.04,0.18
		c0,0,0.15,0.72,0.22,0.83s0.07,0.18,0.11,0.26c0.04,0.07,0.33,0.22,0.33,0.29c0,0.07-0.11,0.25-0.15,0.33
		c-0.04,0.07-0.11,0.18-0.11,0.18l-0.26-0.15l-0.25-0.51c0,0-0.15-0.54-0.18-0.58s-0.26-0.22-0.26-0.22l-0.94-0.33
		c0,0-0.22-0.04-0.29-0.07c-0.07-0.04-0.29,0.07-0.33,0.04c-0.04-0.04-0.43,0.22-0.61,0.22c-0.18,0-0.36,0.11-0.36,0.15
		s-0.04,0.18-0.04,0.18l0.33,0.22c0,0,0.22,0.07,0.29,0.11c0.07,0.04,0.26,0.11,0.29,0.15c0.04,0.04,0,0.29,0,0.29h-0.4
		c-0.18,0-0.15,0.11-0.15,0.11l0.04,0.18c0,0,0.25,0.07,0.36,0.07c0.11,0,0.15,0.15,0.18,0.18c0.04,0.04,0.25,0.29,0.25,0.29
		s0.29,0.04,0.36,0.07s0.07,0.18,0.07,0.18v0.36c0,0.07-0.07,0.15-0.11,0.18c-0.04,0.04-0.22,0.22-0.26,0.25
		c-0.04,0.04-0.15,0.11-0.22,0.11c-0.07,0-0.15,0.11-0.22,0.15c-0.07,0.04-0.15,0.11-0.18,0.15c-0.04,0.04-0.11,0.15-0.22,0.33
		c-0.11,0.18-0.07,0.18-0.07,0.18v0.22l-0.26,0.15h-0.04c-0.04,0-0.11-0.07-0.22-0.07l-0.07,0.22c0,0-0.07,0.18-0.11,0.18
		c-0.04,0,0.04,0.22,0.04,0.22l-0.15,0.18l-0.11,0.15l-0.26,0.04c0,0-0.22,0.04-0.25,0c-0.04-0.04-0.15-0.04-0.18-0.04
		s-0.15-0.15-0.15-0.22c0-0.07,0.15-0.11,0.15-0.11s0.15-0.18,0.18-0.26c0.04-0.07,0.07-0.04,0.15-0.11
		c0.07-0.07,0.07-0.07,0.11-0.15c0.04-0.07,0-0.07-0.04-0.11c-0.04-0.04,0-0.11-0.04-0.25c-0.04-0.15,0.04-0.15,0.04-0.15
		s0.07-0.25,0.11-0.36c0.04-0.11,0.15-0.15,0.26-0.29c0.11-0.15,0-0.04,0.15-0.18c0.15-0.15,0-0.18,0-0.18s-0.15-0.11-0.18-0.18
		c-0.04-0.07-0.11-0.07-0.11-0.11v-0.22c0-0.07,0.07-0.11,0.11-0.18c0.04-0.07,0.04-0.18,0.04-0.25s0.04-0.07,0.04-0.11
		c0-0.04,0.04-0.29,0.04-0.44s-0.04-0.15-0.07-0.33s-0.07-0.07-0.15-0.11c-0.07-0.04-0.26-0.04-0.26-0.04l-0.15,0.33
		c0,0,0,0.11-0.04,0.22c-0.04,0.11,0,0.11,0,0.11l-0.07,0.26l-0.04,0.29c0,0-0.07,0.29-0.07,0.33s-0.04,0.25-0.04,0.25
		s-0.04,0.11-0.07,0.18c-0.04,0.07-0.11,0.22-0.11,0.26c0,0.04-0.18,0.18-0.22,0.22s-0.07,0.04-0.07,0.04h-0.33
		c-0.07,0-0.07-0.04-0.11-0.29c-0.04-0.25,0,0,0-0.15s0,0-0.07-0.18c-0.07-0.18-0.11-0.18-0.15-0.22s-0.11,0-0.29,0
		c-0.18,0-0.15,0.04-0.18,0.04s-0.15,0.11-0.18,0.15c-0.04,0.04-0.11,0.18-0.18,0.26c-0.07,0.07,0,0.18,0,0.18v0.26
		c0,0.07,0.07,0.33,0.15,0.43c0.07,0.11,0,0.29,0,0.29s-0.11,0.18-0.22,0.36c-0.11,0.18,0,0-0.04,0c-0.04,0-0.29-0.07-0.33-0.15
		c-0.04-0.07-0.18-0.04-0.22-0.04c-0.04,0-0.11-0.04-0.11-0.04l-0.26,0.4l-0.36,0.36l-0.51,0.94l-0.04,0.11c0,0,0,0.18-0.04,0.29
		l-0.04,0.11c0,0-0.04,0.29-0.07,0.33c-0.04,0.04,0,0.18,0,0.18l0.04,0.25h0.47c0.22,0,0.15-0.04,0.22-0.15c0.07-0.11,0,0-0.04-0.11
		c-0.04-0.11-0.04-0.07-0.07-0.18c-0.04-0.11,0-0.15,0-0.26s0.04-0.18,0.04-0.33c0-0.15,0.04-0.04,0.04-0.04s0.26,0,0.29,0.04
		c0.04,0.04,0.15,0.07,0.15,0.07s0.22,0.15,0.26,0.18c0.04,0.04,0.15,0.18,0.26,0.25c0.11,0.07,0.11,0.04,0.22,0.07
		c0.11,0.04,0.11,0.07,0.11,0.07l0.04,0.22v0.29c0,0.04-0.07,0.15-0.07,0.15h-0.33c-0.18,0-0.22,0-0.47,0.07
		c-0.25,0.07-0.22,0.11-0.25,0.15c-0.04,0.04-0.11,0.22-0.15,0.26c-0.04,0.04,0.04,0.22,0.04,0.25c0,0.04,0.11,0.04,0.11,0.04
		s0.15,0.04,0.29,0c0.15-0.04,0.18,0.11,0.25,0.15c0.07,0.04,0.26,0,0.33-0.04c0.07-0.04,0.07,0,0.07,0l0.47-0.07
		c0,0,0.07-0.04,0.15-0.15c0,0,0.15-0.04,0.22-0.04c0.07,0,0.04-0.04,0.04-0.04s0.07-0.11,0.07-0.15s0.04-0.07,0.04-0.15
		s-0.04-0.11-0.04-0.15c0-0.04,0.11-0.11,0.4-0.25c0.29-0.15,0.15,0,0.15,0s0.04,0.11,0.07,0.18c0.04,0.07,0,0.26,0,0.26
		s-0.04,0.15-0.07,0.22c-0.04,0.07-0.07,0.18-0.11,0.22c-0.04,0.04-0.11,0.29-0.11,0.29l0.07,0.04c0.07,0.04,0.33,0.22,0.33,0.22
		l0.33,0.29l-0.15,0.51l-0.15,0.47c0,0-0.07,0.18-0.07,0.29c0,0.11-0.07,0.33-0.07,0.33s0.11,0.04,0.26,0.04l0.33,0.26
		c0,0,0.15,0.43,0.15,0.51V66l-0.04,0.4v0.47l-0.04,0.4c0,0-0.11,0.25-0.11,0.33v0.26l0.26,0.36c0,0,0.04,0.18,0.04,0.25
		s-0.07,0.33-0.07,0.33v0.15l0.07,0.29l0.07,0.29l-0.07,0.29l0.15,0.15l-0.04,0.18h0.87c0,0,0.11-0.04,0.18-0.04
		c0.07,0,0.29,0.11,0.36,0.15c0.07,0.04,0.11,0.25,0.11,0.25s0.18-0.15,0.26-0.15c0.07,0-0.07-0.36-0.07-0.36l-0.15-0.29h-0.04
		c0,0-0.04-0.15-0.04-0.18v-0.29c0-0.07-0.04-0.15-0.04-0.15s0.18-0.11,0.22-0.22c0.04-0.11,0-0.18-0.04-0.25
		c-0.04-0.07-0.15-0.07-0.18-0.07c-0.04,0-0.07-0.18-0.07-0.18s-0.07-0.26-0.07-0.29c0-0.04-0.15-0.15-0.22-0.22
		s-0.04-0.18-0.04-0.26c0-0.07-0.15-0.18-0.18-0.29c-0.04-0.11-0.11-0.18-0.15-0.25s0.04-0.22,0.04-0.33c0-0.11,0.11-0.15,0.11-0.18
		c0-0.04-0.07-0.22-0.07-0.22s-0.07-0.18-0.07-0.22v-0.15c0,0,0.29-0.18,0.36-0.22c0.07-0.04,0.04-0.15,0-0.22
		c-0.04-0.07-0.18-0.22-0.18-0.25c0-0.04-0.15-0.18-0.15-0.18s-0.11-0.07-0.18-0.11c-0.07-0.04-0.11-0.07-0.11-0.07
		s-0.26-0.04-0.29-0.04s-0.07-0.11-0.07-0.11l0.07-0.07c0,0,0.18-0.15,0.18-0.18c0-0.04,0.11-0.18,0.11-0.22
		c0-0.04-0.04-0.15-0.04-0.15s0.04-0.36,0.04-0.4s0.04-0.29,0.04-0.29l0.04-0.18l0.29-0.11l0.15,0.61c0,0,0,0.36,0.04,0.4
		c0.04,0.04,0.07,0.22,0.07,0.22s0.04,0.11,0.07,0.11s0.07,0.15,0.07,0.15s0.11,0.15,0.15,0.18c0.04,0.04,0.15,0.18,0.15,0.18h0.29
		h0.18h0.11L48.79,65c0,0,0.07-0.07,0.15-0.15c0.07-0.07,0.04-0.11,0.04-0.11l0.07-0.18c0,0,0-0.29,0.04-0.4
		c0.04-0.11,0.04-0.15,0.07-0.15c0.04,0,0.11-0.15,0.11-0.18c0-0.04,0.18,0,0.18,0l0.18,0.04c0,0,0.07,0.15,0.07,0.18
		c0,0.04-0.07,0.15-0.07,0.15l-0.02,0.22l-0.07,0.26l0.04,0.29v0.11c0,0.04-0.04,0.07-0.07,0.11c-0.04,0.04-0.07,0.18-0.07,0.22
		v0.11c0,0,0.04,0.11,0.07,0.11s0.04,0.18,0.04,0.18l0.07,0.33l0.04,0.22c0,0-0.04,0.15-0.04,0.18c0,0.04,0.07,0.18,0.07,0.18
		s0.15,0.11,0.15,0.15c0,0.04,0.15,0.15,0.15,0.15s0.07,0.11,0.11,0.22c0.04,0.11,0.11,0.15,0.11,0.15v0.18L50,67.87l-0.26,0.22
		v0.18l0.07,0.25l-0.04,0.18l0.18,0.4l0.04,0.25l0.04,0.4v0.18c0,0.07-0.04,0.22-0.04,0.22s0,0.15-0.07,0.22
		c-0.07,0.07-0.18,0.15-0.18,0.15s-0.15,0.07-0.18,0.11c-0.04,0.04,0.04,0.15,0.04,0.22s0.11,0.18,0.11,0.18l0.25,0.18l0.15,0.36
		c0,0,0.07,0.04,0.18,0.04c0.11,0,0.18,0.15,0.22,0.18c0.04,0.04,0.15,0.11,0.18,0.11c0.04,0,0.18,0.07,0.18,0.07l0.11,0.15
		l-0.07,0.07l-0.11,0.18l-0.04,0.07c0,0-0.43,0.07-0.47,0.07c-0.04,0-0.26,0.11-0.36,0.11c-0.11,0-0.11,0.04-0.11,0.04l-0.04,0.22
		v0.29l0.15,0.11l0.11,0.11l0.04,0.07c0.04,0.07,0.15,0.18,0.15,0.18l0.22,0.22l0.18,0.33l-0.22,0.36l-0.07,0.11l-0.15,0.29
		l-0.11,0.18v0.33c0,0,0,0.07,0.07,0.15c0.07,0.07,0.04,0.15,0.04,0.15l0.07,0.07v0.29c0,0-0.11,0.22-0.18,0.25
		c-0.07,0.04-0.15,0.29-0.15,0.29l-0.18,0.11c0,0-0.22,0.11-0.29,0.15c-0.07,0.04-0.07,0.07-0.18,0.15
		c-0.11,0.07-0.04,0.07-0.15,0.22c-0.11,0.15,0,0.29,0,0.29v0.18c0,0.07,0.15,0.11,0.15,0.11l0.11-0.04c0,0,0.11-0.15,0.11-0.18
		c0-0.04,0.15-0.18,0.15-0.18h0.33c0.04,0,0.07,0.04,0.07,0.04l0.33,0.33c0,0,0.07,0.07,0.07,0.11c0,0.04,0.07,0,0.15,0
		c0.07,0,0.07-0.04,0.07-0.07c0-0.04,0.22,0,0.22,0h0.18c0.04,0,0.11,0.11,0.11,0.11l0.22,0.26l0.15,0.26l0.22,0.51h0.15l0.11,0.07
		c0.11,0.07,0.04,0.22,0.04,0.22l-0.11,0.04L51.8,79.5v0.07l0.22,0.07v0.15c0,0,0.11,0.29,0.15,0.36c0.04,0.07,0.15,0.11,0.15,0.11
		l0.04,0.18l0.22,0.11l0.04,0.26l-0.04,0.18l0.04,0.51c0,0,0.15,0,0.18-0.04c0.04-0.04,0.18,0,0.22,0h0.26l0.33,0.18l-0.05,0.13
		l0.41,0.02l0.15-0.04c0,0,0.11-0.11,0.11-0.15v-0.07l0.15-0.18c0,0,0.25-0.15,0.29-0.22c0.04-0.07,0.22-0.07,0.26-0.15
		c0.04-0.07,0.26-0.04,0.26-0.04h0.26l0.36-0.04l0.07-0.07l0.29-0.11c0,0,0.18,0,0.22-0.04c0.04-0.04,0.25-0.07,0.33-0.11
		c0.07-0.04,0.18-0.11,0.26-0.18c0.07-0.07,0.11-0.04,0.15-0.11c0.04-0.07,0.07-0.11,0.18-0.22c0.11-0.11,0-0.11-0.07-0.25
		c-0.07-0.15,0-0.18,0-0.25c0-0.07,0.07-0.18,0.07-0.25c0-0.07,0.07-0.18,0.11-0.25c0.04-0.07,0.15-0.18,0.11-0.29
		s0.11-0.18,0.15-0.33s0.43-0.07,0.43-0.07s0.22-0.07,0.33-0.07s0.18-0.07,0.47-0.18c0.29-0.11,0.26-0.07,0.26-0.07l0.4,0.29
		l0.11,0.04c0,0,0.29,0.07,0.33,0.07c0.04,0,0.22-0.18,0.29-0.18c0.07,0,0.11,0.04,0.18,0.11c0.07,0.07,0.11,0.15,0.18,0.26
		c0.07,0.11,0,0.15,0,0.15s0.47-0.22,0.51-0.18c0.04,0.04,0.29,0.29,0.29,0.29s-0.07,0.51-0.11,0.51c-0.04,0-0.07,0.29-0.07,0.33
		c0,0.04,0.22,0.33,0.22,0.33s0.15,0.18,0.11,0.26c-0.04,0.07,0,0.15,0,0.15h0.51c0.07,0,0.11,0.07,0.15,0.11
		c0.04,0.04,0.22,0.15,0.25,0.15c0.04,0,0.11,0.15,0.11,0.15s0.04-0.04,0.07-0.07c0.04-0.04,0.11-0.11,0.11-0.11v-0.26
		c0-0.04,0.11-0.04,0.22-0.11c0.11-0.07,0.11,0.07,0.26,0.11c0.09,0.02,0.11,0.03,0.11,0.04c0.03-0.01,0.25-0.11,0.29-0.18
		c0.04-0.07,0.11-0.11,0.18-0.18c0.07-0.07,0.07,0.04,0.07,0.04l0.4,0.18l0.22-0.18c0,0,0.4,0.18,0.43,0.22
		c0.04,0.04,0.29,0.04,0.29,0.04s0.29-0.22,0.29-0.25c0-0.04,0.11-0.22,0.11-0.25c0-0.04,0.26,0,0.26,0s0.43-0.11,0.47-0.15
		c0.04-0.04,0.07-0.07,0.07-0.07l0.07-0.11c0,0,0.11,0.04,0.15,0.07c0.04,0.04,0.11,0.04,0.11,0.04l0.18-0.04l0.29-0.11l0.26,0.29
		l0.15,0.25l-0.04,0.33c0,0,0.04,0.15,0,0.26c-0.04,0.11,0,0.18,0,0.18s0.11,0.25,0.15,0.29c0.04,0.04,0.18,0.36,0.18,0.36
		s0.04,0.18,0.04,0.22c0,0.04-0.04,0.25-0.07,0.29c-0.04,0.04,0,0.15,0,0.18s0.29,0.22,0.29,0.29v0.11l0.58,0.07l0.33-0.25
		l0.15,0.15c0,0,0.18,0.22,0.18,0.29c0,0.07,0.07,0.18,0.07,0.18s0.29,0.25,0.29,0.36v0.11l0.47,0.04l0.25,0.07l0.33-0.04
		c0,0,0.36-0.07,0.4-0.15c0.04-0.07,0.11-0.04,0.15-0.18c0.04-0.15,0.04-0.15,0.04-0.29s-0.04-0.22-0.04-0.25v-0.25
		c0-0.04,0.15-0.22,0.15-0.22l0.33-0.04l0.11,0.22l0.22,0.15c0,0,0.33,0.07,0.4,0.07s0.07,0.07,0.07,0.22v0.29
		c0,0.11,0.26,0.11,0.29,0.07c0.04-0.04,0.07-0.04,0.11-0.18c0.04-0.15,0.07-0.11,0.11-0.22c0.04-0.11,0-0.11,0-0.15
		c0-0.04,0.15-0.07,0.18-0.11c0.04-0.04,0.11-0.11,0.11-0.11l-0.07-0.15c0,0,0-0.07-0.04-0.11c-0.04-0.04-0.07-0.15-0.15-0.22
		c-0.07-0.07-0.04-0.11-0.04-0.11l0.18-0.18c0.04-0.04,0.04-0.15,0.04-0.15s0.36,0,0.4-0.04c0,0-0.25-0.44-0.4-0.62
		c-0.15-0.18,0-0.25,0.07-0.33c0.07-0.07,0-0.22,0-0.33c0-0.11-0.15-0.26-0.22-0.33c-0.07-0.07-0.18-0.29-0.18-0.29v-0.4
		c0-0.15,0.29-0.07,0.29-0.07s-0.11-0.54-0.22-0.62c-0.11-0.07,0-0.07-0.07-0.29c-0.07-0.22-0.04-0.29-0.04-0.29
		s0.11-0.29,0.11-0.43c0-0.15-0.18-0.33-0.18-0.33s-0.18-0.07-0.36-0.18c-0.18-0.11-0.07,0.04-0.18,0c-0.11-0.04-0.18-0.4-0.18-0.4
		l-0.4-0.11l-0.58,0.11"/>
	<path class="st0" d="M70.79,75.94"/>
	<path class="st0" d="M71.05,75.46"/>
	<line class="st1" x1="71.16" y1="76.55" x2="71.1" y2="76.46"/>
</g>
</svg>
